<svg width="674" height="676" xmlns="http://www.w3.org/2000/svg" xmlns:xlink="http://www.w3.org/1999/xlink">
 <defs>
  <linearGradient y2="0.77406" x2="0.98249" y1="0.08184" x1="0.04431" id="imagebot_48" xlink:href="#imagebot_76"/>
  <linearGradient id="imagebot_76">
   <stop stop-color="#217d17" id="imagebot_78" offset="0"/>
   <stop stop-color="#185412" id="imagebot_77" offset="1"/>
  </linearGradient>
  <linearGradient y2="0.5" x2="0.45709" y1="0.5" x1="0.00028" id="imagebot_29" xlink:href="#imagebot_73"/>
  <linearGradient id="imagebot_73">
   <stop stop-color="#b2997c" id="imagebot_75" offset="0"/>
   <stop stop-color="#b2997c" stop-opacity="0" id="imagebot_74" offset="1"/>
  </linearGradient>
 </defs>
 <metadata id="imagebot_72">image/svg+xml</metadata>
 <g id="imagebot_2" label="Capa 1">
  <g label="Capa 1" transform="translate(-12.8438, -194.398) matrix(3.05784, 0, 0, 3.05784, 17181.6, 21568.8)" id="imagebot_3">
   <path fill="#00b9ff" fill-rule="evenodd" id="imagebot_71" d="M-5611.7124,-6797.90381L-5480.3847,-6779.45011L-5394.14491,-6847.22891L-5488.3353,-6990.03001L-5614.6657,-6938.15051L-5611.7124,-6797.90381"/>
   <path fill="#ffdcb2" fill-rule="evenodd" d="M-5487,-6930.64 C-5487,-6906.06 -5506.92,-6886.14 -5531.5,-6886.14 C-5556.08,-6886.14 -5576,-6906.06 -5576,-6930.64 C-5576,-6955.21 -5556.08,-6975.14 -5531.5,-6975.14 C-5506.92,-6975.14 -5487,-6955.21 -5487,-6930.64 z" id="imagebot_70"/>
   <g transform="matrix(-1,0,0,1,-11066.977,0)" id="imagebot_66">
    <path fill="#ffdcb2" fill-rule="evenodd" d="M-5577.7334,-6937.36035C-5609.8718,-6942.84605 -5589.4351,-6905.32425 -5576.7794,-6917.32755" id="imagebot_69"/>
    <path fill="#b2997c" fill-rule="evenodd" id="imagebot_68" d="M-5578.36475,-6919.75439C-5578.23995,-6919.64559 -5578.45275,-6919.15649 -5579.19195,-6918.44859C-5579.56155,-6918.09469 -5580.06765,-6917.69299 -5580.74125,-6917.32659C-5581.41485,-6916.96019 -5582.25735,-6916.62829 -5583.27915,-6916.47409C-5584.96065,-6916.24569 -5587.00705,-6916.55009 -5588.93575,-6917.52909C-5590.60625,-6918.36929 -5592.23985,-6919.60889 -5593.64095,-6921.19499C-5595.04215,-6922.78099 -5596.20675,-6924.70999 -5596.98595,-6926.79239C-5596.98595,-6926.79239 -5596.98595,-6926.79239 -5596.98595,-6926.79239C-5597.69925,-6928.64049 -5598.08805,-6930.70599 -5597.91105,-6932.77529C-5597.73495,-6934.79569 -5596.88675,-6936.73089 -5595.52095,-6938.16319C-5593.64825,-6940.03329 -5591.30545,-6940.82129 -5589.28375,-6941.10589C-5587.68345,-6941.34189 -5586.23195,-6941.34269 -5584.97655,-6941.25029C-5583.72115,-6941.15829 -5582.66095,-6940.97229 -5581.81645,-6940.77899C-5580.12735,-6940.39239 -5579.30455,-6939.99879 -5579.36145,-6939.78539C-5579.37745,-6939.56509 -5580.28285,-6939.52059 -5581.95785,-6939.50839C-5582.79535,-6939.49839 -5583.82195,-6939.49839 -5584.99085,-6939.42539C-5586.15975,-6939.35239 -5587.47065,-6939.20849 -5588.84985,-6938.86699C-5590.55055,-6938.43019 -5592.39905,-6937.71429 -5593.56855,-6936.33509C-5594.45025,-6935.36679 -5594.98065,-6933.97669 -5595.09765,-6932.53679C-5595.22655,-6930.99479 -5594.88935,-6929.35579 -5594.32465,-6927.78769C-5594.32465,-6927.78769 -5594.32465,-6927.78769 -5594.32465,-6927.78769C-5593.65915,-6926.00789 -5592.71005,-6924.33669 -5591.58315,-6922.93729C-5590.45625,-6921.53789 -5589.15355,-6920.41369 -5587.80355,-6919.61259C-5586.29115,-6918.72159 -5584.74155,-6918.28029 -5583.42525,-6918.29269C-5582.63615,-6918.28269 -5581.91885,-6918.43499 -5581.30205,-6918.62559C-5580.68525,-6918.81619 -5580.16795,-6919.04709 -5579.75035,-6919.24499C-5578.91535,-6919.64089 -5578.46725,-6919.88409 -5578.36475,-6919.75419z"/>
    <path fill="#b2997c" fill-rule="evenodd" d="M-5585.34,-6927.78 C-5585.34,-6927.78 -5585.34,-6927.78 -5585.35,-6927.78 C-5585.35,-6927.78 -5585.35,-6927.78 -5585.35,-6927.78 C-5585.5,-6927.79 -5585.59,-6928.11 -5585.63,-6928.72 C-5585.66,-6929.33 -5585.63,-6930.23 -5585.53,-6931.23 C-5585.14,-6932.13 -5584.23,-6932.88 -5583.17,-6933.01 C-5582.46,-6933.04 -5581.82,-6932.89 -5581.29,-6932.68 C-5580.75,-6932.47 -5580.32,-6932.19 -5579.99,-6931.93 C-5579.33,-6931.42 -5579.08,-6931.02 -5579.18,-6930.88 C-5579.26,-6930.74 -5579.73,-6930.85 -5580.45,-6931.1 C-5581.18,-6931.35 -5582.13,-6931.75 -5583.05,-6931.61 C-5583.53,-6931.62 -5584.01,-6931.27 -5584.27,-6930.84 C-5584.43,-6929.97 -5584.62,-6929.2 -5584.81,-6928.65 C-5585,-6928.1 -5585.19,-6927.78 -5585.33,-6927.78 C-5585.33,-6927.78 -5585.33,-6927.78 -5585.33,-6927.78 C-5585.35,-6927.78 -5585.34,-6927.78 -5585.34,-6927.78 L-5585.34,-6927.78 z" id="imagebot_67"/>
   </g>
   <g id="imagebot_62">
    <path fill="#ffdcb2" fill-rule="evenodd" id="imagebot_65" d="M-5577.7334,-6937.36035C-5609.8718,-6942.84605 -5589.4351,-6905.32425 -5576.7794,-6917.32755"/>
    <path fill="#b2997c" fill-rule="evenodd" d="M-5578.36475,-6919.75439C-5578.23995,-6919.64559 -5578.45275,-6919.15649 -5579.19195,-6918.44859C-5579.56155,-6918.09469 -5580.06765,-6917.69299 -5580.74125,-6917.32659C-5581.41485,-6916.96019 -5582.25735,-6916.62829 -5583.27915,-6916.47409C-5584.96065,-6916.24569 -5587.00705,-6916.55009 -5588.93575,-6917.52909C-5590.60625,-6918.36929 -5592.23985,-6919.60889 -5593.64095,-6921.19499C-5595.04215,-6922.78099 -5596.20675,-6924.70999 -5596.98595,-6926.79239C-5596.98595,-6926.79239 -5596.98595,-6926.79239 -5596.98595,-6926.79239C-5597.69925,-6928.64049 -5598.08805,-6930.70599 -5597.91105,-6932.77529C-5597.73495,-6934.79569 -5596.88675,-6936.73089 -5595.52095,-6938.16319C-5593.64825,-6940.03329 -5591.30545,-6940.82129 -5589.28375,-6941.10589C-5587.68345,-6941.34189 -5586.23195,-6941.34269 -5584.97655,-6941.25029C-5583.72115,-6941.15829 -5582.66095,-6940.97229 -5581.81645,-6940.77899C-5580.12735,-6940.39239 -5579.30455,-6939.99879 -5579.36145,-6939.78539C-5579.37745,-6939.56509 -5580.28285,-6939.52059 -5581.95785,-6939.50839C-5582.79535,-6939.49839 -5583.82195,-6939.49839 -5584.99085,-6939.42539C-5586.15975,-6939.35239 -5587.47065,-6939.20849 -5588.84985,-6938.86699C-5590.55055,-6938.43019 -5592.39905,-6937.71429 -5593.56855,-6936.33509C-5594.45025,-6935.36679 -5594.98065,-6933.97669 -5595.09765,-6932.53679C-5595.22655,-6930.99479 -5594.88935,-6929.35579 -5594.32465,-6927.78769C-5594.32465,-6927.78769 -5594.32465,-6927.78769 -5594.32465,-6927.78769C-5593.65915,-6926.00789 -5592.71005,-6924.33669 -5591.58315,-6922.93729C-5590.45625,-6921.53789 -5589.15355,-6920.41369 -5587.80355,-6919.61259C-5586.29115,-6918.72159 -5584.74155,-6918.28029 -5583.42525,-6918.29269C-5582.63615,-6918.28269 -5581.91885,-6918.43499 -5581.30205,-6918.62559C-5580.68525,-6918.81619 -5580.16795,-6919.04709 -5579.75035,-6919.24499C-5578.91535,-6919.64089 -5578.46725,-6919.88409 -5578.36475,-6919.75419z" id="imagebot_64"/>
    <path fill="#b2997c" fill-rule="evenodd" id="imagebot_63" d="M-5585.34,-6927.78 C-5585.34,-6927.78 -5585.34,-6927.78 -5585.35,-6927.78 C-5585.35,-6927.78 -5585.35,-6927.78 -5585.35,-6927.78 C-5585.5,-6927.79 -5585.59,-6928.11 -5585.63,-6928.72 C-5585.66,-6929.33 -5585.63,-6930.23 -5585.53,-6931.23 C-5585.14,-6932.13 -5584.23,-6932.88 -5583.17,-6933.01 C-5582.46,-6933.04 -5581.82,-6932.89 -5581.29,-6932.68 C-5580.75,-6932.47 -5580.32,-6932.19 -5579.99,-6931.93 C-5579.33,-6931.42 -5579.08,-6931.02 -5579.18,-6930.88 C-5579.26,-6930.74 -5579.73,-6930.85 -5580.45,-6931.1 C-5581.18,-6931.35 -5582.13,-6931.75 -5583.05,-6931.61 C-5583.53,-6931.62 -5584.01,-6931.27 -5584.27,-6930.84 C-5584.43,-6929.97 -5584.62,-6929.2 -5584.81,-6928.65 C-5585,-6928.1 -5585.19,-6927.78 -5585.33,-6927.78 C-5585.33,-6927.78 -5585.33,-6927.78 -5585.33,-6927.78 C-5585.35,-6927.78 -5585.34,-6927.78 -5585.34,-6927.78 L-5585.34,-6927.78 z"/>
   </g>
   <path fill="#b2997c" fill-rule="evenodd" id="imagebot_61" d="M-5489,-6932.64 C-5489.09,-6932.59 -5489.15,-6933.32 -5489.31,-6934.8 C-5489.47,-6936.27 -5489.73,-6938.5 -5490.4,-6941.36 C-5491.08,-6944.23 -5492.18,-6947.74 -5494.1,-6951.58 C-5496.02,-6955.43 -5498.78,-6959.6 -5502.7,-6963.44 C-5506.2,-6966.85 -5510.63,-6969.97 -5515.87,-6972.24 C-5521.1,-6974.52 -5527.14,-6975.94 -5533.5,-6975.9 C-5538.81,-6975.87 -5544.32,-6974.81 -5549.57,-6972.67 C-5554.83,-6970.53 -5559.82,-6967.32 -5563.99,-6963.13 C-5567.88,-6959.22 -5571.04,-6954.46 -5573.21,-6949.23 C-5575.39,-6944.01 -5576.58,-6938.33 -5576.57,-6932.64 C-5576.57,-6926.95 -5575.39,-6921.26 -5573.21,-6916.04 C-5571.04,-6910.82 -5567.88,-6906.06 -5563.99,-6902.15 C-5559.82,-6897.95 -5554.83,-6894.74 -5549.57,-6892.61 C-5544.32,-6890.47 -5538.81,-6889.4 -5533.5,-6889.37 C-5527.14,-6889.33 -5521.1,-6890.76 -5515.87,-6893.03 C-5510.63,-6895.31 -5506.2,-6898.42 -5502.7,-6901.84 C-5498.78,-6905.67 -5496.02,-6909.85 -5494.1,-6913.69 C-5492.18,-6917.53 -5491.08,-6921.05 -5490.4,-6923.91 C-5489.73,-6926.78 -5489.47,-6929 -5489.31,-6930.48 C-5489.15,-6931.95 -5489.09,-6932.68 -5489,-6932.64 C-5488.91,-6932.68 -5488.81,-6931.95 -5488.8,-6930.45 C-5488.79,-6928.95 -5488.89,-6926.67 -5489.42,-6923.71 C-5489.94,-6920.74 -5490.92,-6917.09 -5492.77,-6913.05 C-5494.62,-6909.02 -5497.36,-6904.61 -5501.37,-6900.5 C-5504.94,-6896.85 -5509.52,-6893.49 -5514.97,-6891.01 C-5520.43,-6888.54 -5526.76,-6886.94 -5533.5,-6886.9 C-5539.13,-6886.87 -5544.97,-6887.94 -5550.56,-6890.16 C-5556.14,-6892.38 -5561.47,-6895.75 -5565.94,-6900.2 C-5570.11,-6904.35 -5573.5,-6909.4 -5575.82,-6914.95 C-5578.15,-6920.5 -5579.42,-6926.55 -5579.43,-6932.64 C-5579.43,-6938.72 -5578.15,-6944.77 -5575.82,-6950.33 C-5573.5,-6955.88 -5570.11,-6960.93 -5565.94,-6965.08 C-5561.47,-6969.53 -5556.14,-6972.9 -5550.56,-6975.12 C-5544.97,-6977.34 -5539.13,-6978.4 -5533.5,-6978.37 C-5526.76,-6978.33 -5520.43,-6976.74 -5514.97,-6974.26 C-5509.52,-6971.78 -5504.94,-6968.43 -5501.37,-6964.77 C-5497.36,-6960.67 -5494.62,-6956.25 -5492.77,-6952.22 C-5490.92,-6948.19 -5489.94,-6944.53 -5489.42,-6941.57 C-5488.89,-6938.6 -5488.79,-6936.33 -5488.8,-6934.82 C-5488.81,-6933.32 -5488.91,-6932.59 -5489,-6932.64 z"/>
   <path fill="#ffdcb2" id="imagebot_60" d="M-5456.70117,-6818.39941C-5467.29907,-6804.86921 -5475.17637,-6792.53601 -5462.53477,-6789.23121L-5456.70117,-6818.39941"/>
   <path fill="#ffdcb2" d="M-5438.2832,-6818.39941C-5427.6853,-6804.86921 -5419.808,-6792.53601 -5432.4496,-6789.23121L-5438.2832,-6818.39941" id="imagebot_59"/>
   <path fill="#b2997c" d="M-5456.70166,-6818.39893C-5456.52596,-6818.38593 -5456.49936,-6817.62893 -5456.64566,-6816.16403C-5456.79196,-6814.69913 -5457.11196,-6812.52703 -5457.59496,-6809.78633C-5458.07806,-6807.04573 -5458.72386,-6803.73823 -5459.48306,-6800.08923C-5460.24226,-6796.44033 -5461.11366,-6792.45253 -5462.01886,-6788.40563C-5463.74846,-6788.58533 -5465.52636,-6788.96833 -5467.16456,-6789.71003C-5467.16456,-6789.71003 -5467.16456,-6789.71003 -5467.16456,-6789.71003C-5468.22536,-6790.44183 -5469.13306,-6791.44893 -5469.72366,-6792.67173C-5470.88456,-6795.36383 -5470.44676,-6798.17563 -5469.60866,-6800.40213C-5469.60866,-6800.40213 -5469.60866,-6800.40223 -5469.60866,-6800.40223C-5468.37316,-6803.93043 -5466.48166,-6806.81063 -5464.78886,-6809.20393C-5462.57116,-6812.35463 -5460.54656,-6814.72943 -5459.11956,-6816.28063C-5457.69266,-6817.83173 -5456.85156,-6818.55003 -5456.70186,-6818.39903C-5456.51936,-6818.28983 -5457.02946,-6817.30873 -5458.14576,-6815.53553C-5459.26206,-6813.76243 -5460.99576,-6811.20763 -5462.93476,-6807.99323C-5464.41526,-6805.52723 -5466.08166,-6802.72503 -5467.05776,-6799.55943C-5467.05776,-6799.55943 -5467.05776,-6799.55943 -5467.05776,-6799.55943C-5467.61326,-6797.56733 -5468.02326,-6795.41993 -5467.17066,-6793.88883C-5466.84006,-6793.17943 -5466.24076,-6792.55013 -5465.53286,-6792.04683C-5465.53286,-6792.04683 -5465.53286,-6792.04683 -5465.53286,-6792.04683C-5464.88686,-6791.19363 -5464.00566,-6790.57873 -5463.05146,-6790.05683C-5462.37166,-6793.93523 -5461.68736,-6797.72583 -5461.02446,-6801.18723C-5460.36166,-6804.64863 -5459.71986,-6807.77903 -5459.13606,-6810.37263C-5458.55226,-6812.96633 -5458.02676,-6815.02153 -5457.60566,-6816.39403C-5457.18446,-6817.76643 -5456.86876,-6818.45473 -5456.70166,-6818.39893z" id="imagebot_58"/>
   <path fill="#b2997c" id="imagebot_57" d="M-5437.92529,-6818.39893C-5437.75819,-6818.45493 -5437.44249,-6817.76643 -5437.02129,-6816.39403C-5436.60019,-6815.02153 -5436.07469,-6812.96633 -5435.49089,-6810.37263C-5434.90709,-6807.77903 -5434.26529,-6804.64863 -5433.60249,-6801.18723C-5432.93959,-6797.72583 -5432.25529,-6793.93523 -5431.57549,-6790.05683C-5430.62129,-6790.57873 -5429.74009,-6791.19363 -5429.09409,-6792.04683C-5429.09409,-6792.04683 -5429.09409,-6792.04683 -5429.09409,-6792.04683C-5428.38619,-6792.55013 -5427.78689,-6793.17943 -5427.45629,-6793.88883C-5426.60369,-6795.41993 -5427.01369,-6797.56733 -5427.56919,-6799.55943C-5427.56919,-6799.55943 -5427.56919,-6799.55943 -5427.56919,-6799.55943C-5428.54529,-6802.72503 -5430.21169,-6805.52723 -5431.69219,-6807.99323C-5433.63119,-6811.20763 -5435.36489,-6813.76243 -5436.48119,-6815.53553C-5437.59749,-6817.30873 -5438.10759,-6818.28983 -5437.92509,-6818.39903C-5437.77539,-6818.55003 -5436.93429,-6817.83173 -5435.50739,-6816.28063C-5434.08039,-6814.72943 -5432.05579,-6812.35463 -5429.83809,-6809.20393C-5428.14529,-6806.81063 -5426.25379,-6803.93043 -5425.01829,-6800.40223C-5425.01829,-6800.40223 -5425.01829,-6800.40213 -5425.01829,-6800.40213C-5424.18019,-6798.17563 -5423.74239,-6795.36383 -5424.90329,-6792.67173C-5425.49389,-6791.44893 -5426.40159,-6790.44183 -5427.46239,-6789.71003C-5427.46239,-6789.71003 -5427.46239,-6789.71003 -5427.46239,-6789.71003C-5429.10059,-6788.96833 -5430.87849,-6788.58533 -5432.60809,-6788.40563C-5433.51329,-6792.45253 -5434.38469,-6796.44033 -5435.14389,-6800.08923C-5435.90309,-6803.73823 -5436.54889,-6807.04573 -5437.03199,-6809.78633C-5437.51499,-6812.52703 -5437.83499,-6814.69913 -5437.98129,-6816.16403C-5438.12759,-6817.62893 -5438.10099,-6818.38623 -5437.92529,-6818.39893z"/>
   <path fill="#00bcff" id="imagebot_56" d="M-5456.52441,-6818.75293L-5438.13971,-6818.75293C-5433.96301,-6806.82873 -5431.06741,-6791.06163 -5428.77051,-6773.49813C-5433.01551,-6770.59393 -5436.83281,-6770.68423 -5440.61451,-6771.02323L-5441.49841,-6780.92273C-5445.01381,-6779.49613 -5446.93761,-6780.19153 -5449.09981,-6780.56913L-5449.45341,-6771.02323C-5455.16921,-6769.07133 -5460.88491,-6769.20483 -5466.60071,-6771.02323C-5464.46421,-6787.37763 -5463.57241,-6804.18453 -5456.52441,-6818.75293"/>
   <path fill="#ffdcb2" id="imagebot_55" d="M-5563.29297,-6822.08789L-5556.03007,-6843.07279C-5557.61797,-6847.37389 -5562.35307,-6849.94349 -5570.15407,-6848.44409C-5569.21897,-6872.65239 -5554.64917,-6873.29169 -5548.23587,-6874.93299L-5546.32767,-6883.44609C-5591.24547,-6873.55589 -5594.72827,-6828.77279 -5563.29297,-6822.08789z"/>
   <path fill="#ffdcb2" id="imagebot_54" d="M-5516.45215,-6816.86279L-5518.91215,-6838.93229C-5516.41545,-6842.77779 -5511.23065,-6844.24079 -5503.95175,-6841.05919C-5499.52925,-6864.87849 -5513.60005,-6868.71259 -5519.49405,-6871.72689L-5519.47905,-6880.45119C-5477.84495,-6860.90589 -5484.31625,-6816.45619 -5516.45195,-6816.86279z"/>
   <path fill="#ffdcb2" d="M-5516.45215,-6816.86279L-5518.91215,-6838.93229C-5516.41545,-6842.77779 -5511.23065,-6844.24079 -5503.95175,-6841.05919C-5499.52925,-6864.87849 -5513.60005,-6868.71259 -5519.49405,-6871.72689L-5519.47905,-6880.45119C-5477.84495,-6860.90589 -5484.31625,-6816.45619 -5516.45195,-6816.86279z" id="imagebot_53"/>
   <path fill="#13470d" id="imagebot_52" d="M-5543.71729,-6951.02588C-5535.68548,-6939.89688 -5504.01968,-6949.31908 -5475.12788,-6956.32918C-5506.19348,-6991.73688 -5543.49258,-6989.72548 -5559.98068,-6969.76428C-5594.32408,-6961.51858 -5585.46948,-6944.74908 -5575.33348,-6940.64338C-5569.50058,-6949.81668 -5562.26108,-6960.17818 -5543.71728,-6951.02588"/>
   <path fill="#b2997c" d="M-5564.06,-6823.7 C-5564.06,-6823.7 -5564.06,-6823.7 -5564.07,-6823.66 C-5564.31,-6823.67 -5564.93,-6823.75 -5565.93,-6823.98 C-5566.93,-6824.21 -5568.31,-6824.57 -5569.98,-6825.23 C-5571.66,-6825.88 -5573.65,-6826.82 -5575.72,-6828.25 C-5577.79,-6829.68 -5579.95,-6831.59 -5581.77,-6834.22 C-5583.36,-6836.62 -5584.62,-6839.52 -5585.29,-6842.8 C-5585.97,-6846.07 -5586.06,-6849.71 -5585.39,-6853.4 C-5584.73,-6856.95 -5583.42,-6860.5 -5581.5,-6863.88 C-5579.58,-6867.26 -5577.04,-6870.45 -5574.05,-6873.23 C-5570.34,-6876.43 -5566.03,-6879.07 -5561.35,-6881.13 C-5556.67,-6883.19 -5551.64,-6884.66 -5546.56,-6885.59 C-5547.09,-6882.28 -5547.62,-6878.98 -5548.14,-6875.7 C-5548.14,-6875.7 -5548.14,-6875.7 -5548.14,-6875.7 C-5550.4,-6874.99 -5552.59,-6874.49 -5554.62,-6873.77 C-5557.02,-6873.07 -5559.3,-6872.08 -5561.21,-6870.66 C-5563.67,-6868.86 -5565.55,-6866.34 -5566.82,-6863.63 C-5569.14,-6859.51 -5570.02,-6854.93 -5570.45,-6850.61 C-5567.3,-6851.49 -5563.96,-6851.64 -5561.12,-6850.52 C-5558.59,-6849.29 -5556.74,-6847.1 -5555.91,-6844.69 C-5558.37,-6837.85 -5560.35,-6832.48 -5561.74,-6828.92 C-5563.13,-6825.35 -5563.92,-6823.59 -5564.07,-6823.7 C-5564.25,-6823.7 -5563.78,-6825.57 -5562.69,-6829.16 C-5561.61,-6832.74 -5559.91,-6838.04 -5557.69,-6844.67 C-5558.39,-6846.38 -5559.95,-6847.89 -5561.95,-6848.57 C-5564.64,-6849.78 -5567.98,-6849.88 -5571.41,-6849.5 C-5571.48,-6854.31 -5571.1,-6859.61 -5569.2,-6864.72 C-5567.82,-6867.79 -5565.71,-6870.69 -5562.84,-6872.85 C-5560.61,-6874.51 -5558.05,-6875.68 -5555.4,-6876.45 C-5553.5,-6876.89 -5551.62,-6877.06 -5549.87,-6877.38 C-5549.87,-6877.38 -5549.87,-6877.38 -5549.87,-6877.38 C-5549.14,-6879.75 -5548.39,-6882.13 -5547.64,-6884.51 C-5552.24,-6883.32 -5556.77,-6881.63 -5560.95,-6879.42 C-5565.13,-6877.21 -5568.95,-6874.47 -5572.2,-6871.23 C-5575.02,-6868.64 -5577.43,-6865.69 -5579.27,-6862.58 C-5581.11,-6859.48 -5582.39,-6856.21 -5583.04,-6852.95 C-5583.73,-6849.58 -5583.73,-6846.23 -5583.2,-6843.2 C-5582.67,-6840.17 -5581.61,-6837.46 -5580.22,-6835.21 C-5578.69,-6832.6 -5576.78,-6830.63 -5574.91,-6829.13 C-5573.04,-6827.62 -5571.21,-6826.58 -5569.64,-6825.83 C-5568.08,-6825.08 -5566.77,-6824.61 -5565.82,-6824.3 C-5564.87,-6823.98 -5564.27,-6823.82 -5564.06,-6823.73 C-5564.07,-6823.69 -5564.07,-6823.7 -5564.07,-6823.7 L-5564.06,-6823.7 z" id="imagebot_51"/>
   <path fill="#b2997c" id="imagebot_50" d="M-5513.7,-6816.56 C-5513.7,-6816.56 -5513.7,-6816.56 -5513.7,-6816.59 C-5513.47,-6816.63 -5512.85,-6816.66 -5511.86,-6816.76 C-5510.86,-6816.85 -5509.49,-6817.02 -5507.79,-6817.41 C-5506.1,-6817.8 -5504.09,-6818.41 -5501.93,-6819.47 C-5499.78,-6820.52 -5497.48,-6822.02 -5495.41,-6824.23 C-5493.56,-6826.12 -5491.93,-6828.52 -5490.74,-6831.36 C-5489.56,-6834.2 -5488.82,-6837.47 -5488.75,-6840.91 C-5488.67,-6844.23 -5489.19,-6847.7 -5490.3,-6851.14 C-5491.42,-6854.58 -5493.12,-6857.99 -5495.3,-6861.14 C-5497.75,-6865.01 -5500.87,-6868.52 -5504.46,-6871.6 C-5508.05,-6874.67 -5512.1,-6877.32 -5516.32,-6879.5 C-5516.12,-6877.01 -5515.91,-6874.52 -5515.72,-6872.05 C-5515.72,-6872.05 -5515.72,-6872.05 -5515.72,-6872.05 C-5514.08,-6871.35 -5512.28,-6870.77 -5510.53,-6869.93 C-5508.12,-6868.59 -5505.88,-6866.89 -5504.07,-6864.78 C-5501.75,-6862.03 -5500.32,-6858.74 -5499.66,-6855.44 C-5498.93,-6850.04 -5499.73,-6844.79 -5500.86,-6840.11 C-5502.49,-6840.67 -5504.12,-6841.12 -5505.71,-6841.35 C-5507.3,-6841.57 -5508.84,-6841.58 -5510.29,-6841.28 C-5512.39,-6841.06 -5514.25,-6839.94 -5515.3,-6838.42 C-5514.6,-6831.46 -5514.11,-6825.93 -5513.84,-6822.19 C-5513.57,-6818.45 -5513.53,-6816.52 -5513.7,-6816.56 C-5513.87,-6816.48 -5514.25,-6818.38 -5514.82,-6822.16 C-5515.39,-6825.94 -5516.15,-6831.62 -5517.03,-6838.83 C-5515.69,-6841 -5513.4,-6842.73 -5510.66,-6843.37 C-5509.15,-6843.6 -5507.6,-6843.51 -5506.06,-6843.15 C-5504.51,-6842.8 -5502.99,-6842.18 -5501.55,-6841.4 C-5501.01,-6845.71 -5500.86,-6850.37 -5502.22,-6854.9 C-5502.86,-6857.83 -5504.13,-6860.7 -5506.14,-6863 C-5507.69,-6864.8 -5509.69,-6866.27 -5511.89,-6867.49 C-5513.7,-6868.63 -5515.73,-6869.61 -5517.77,-6870.79 C-5517.77,-6870.79 -5517.77,-6870.79 -5517.77,-6870.79 C-5517.57,-6874.1 -5517.35,-6877.44 -5517.14,-6880.79 C-5512.39,-6878.76 -5507.81,-6876.22 -5503.7,-6873.18 C-5499.59,-6870.14 -5495.96,-6866.61 -5493.05,-6862.68 C-5490.74,-6859.3 -5488.97,-6855.63 -5487.84,-6851.91 C-5486.71,-6848.2 -5486.22,-6844.44 -5486.36,-6840.83 C-5486.51,-6837.09 -5487.41,-6833.55 -5488.79,-6830.51 C-5490.17,-6827.47 -5492.03,-6824.91 -5494.12,-6822.92 C-5496.47,-6820.76 -5499,-6819.37 -5501.34,-6818.43 C-5503.67,-6817.49 -5505.81,-6817.01 -5507.59,-6816.74 C-5509.38,-6816.48 -5510.8,-6816.42 -5511.82,-6816.42 C-5512.85,-6816.42 -5513.47,-6816.48 -5513.7,-6816.52 C-5513.7,-6816.56 -5513.7,-6816.56 -5513.7,-6816.56 L-5513.7,-6816.56 z"/>
   <path fill="#ffffff" id="imagebot_49" d="M-5546.30957,-6884.30078C-5562.20957,-6849.05208 -5567.56847,-6813.07008 -5560.87837,-6776.24988C-5552.66187,-6771.97048 -5546.22957,-6773.15708 -5539.73167,-6774.14248C-5541.76877,-6782.73138 -5542.77137,-6790.02588 -5541.48967,-6794.46258C-5535.79907,-6793.34338 -5530.27167,-6794.11058 -5524.78657,-6795.36638C-5524.52947,-6789.67828 -5524.90697,-6781.27988 -5527.17017,-6773.99888C-5520.64257,-6773.04288 -5514.14817,-6772.69978 -5507.92597,-6777.38628C-5506.54737,-6818.74438 -5507.46137,-6853.39318 -5519.55817,-6882.82588L-5546.30957,-6884.30078"/>
   <path fill="url(#imagebot_48)" stroke="#000000" stroke-width="0.32703" stroke-linecap="round" stroke-miterlimit="4" stroke-dashoffset="0" id="imagebot_47" d="M-5518.88525,-6831.07568C-5534.62275,-6832.69288 -5554.19986,-6831.76618 -5562.00175,-6831.29478C-5564.55845,-6813.14908 -5564.25195,-6794.79528 -5560.87995,-6776.23719C-5552.66345,-6771.95779 -5546.23115,-6773.14439 -5539.73325,-6774.12979C-5541.77045,-6782.71879 -5542.77305,-6790.01319 -5541.49135,-6794.44999C-5535.80076,-6793.33079 -5530.27326,-6794.09789 -5524.78816,-6795.35369C-5524.53106,-6789.66569 -5524.90856,-6781.26729 -5527.17176,-6773.98629C-5520.64426,-6773.03019 -5514.14986,-6772.68719 -5507.92756,-6777.37369C-5507.30556,-6796.03459 -5507.15986,-6813.32429 -5508.28796,-6829.39049C-5511.40926,-6830.13879 -5515.02126,-6830.67869 -5518.88526,-6831.07569z"/>
   <path fill="#ffffff" fill-rule="evenodd" id="imagebot_46" d="M-5569.5957,-6923.5918C-5545.1604,-6932.2785 -5520.0351,-6931.3039 -5494.4285,-6923.5918C-5504.0879,-6887.4684 -5558.47791,-6886.2078 -5569.5957,-6923.5918"/>
   <path fill="#2d2d2d" id="imagebot_45" d="M-5507.69287,-6785.11426C-5513.22387,-6784.75696 -5519.15467,-6784.68296 -5525.08597,-6784.79056C-5525.44217,-6781.20966 -5526.08717,-6777.47516 -5527.17167,-6773.98636C-5520.64417,-6773.03026 -5514.14967,-6772.68726 -5507.92747,-6777.37376C-5507.84047,-6779.98556 -5507.75907,-6782.55576 -5507.69287,-6785.11426zM-5541.82297,-6785.55706C-5549.98387,-6786.08896 -5557.29597,-6786.76316 -5562.53497,-6787.33296C-5562.10447,-6783.64336 -5561.55327,-6779.94326 -5560.87987,-6776.23736C-5552.66337,-6771.95796 -5546.23107,-6773.14446 -5539.73317,-6774.12986C-5540.72457,-6778.30976 -5541.46567,-6782.17056 -5541.82297,-6785.55706z"/>
   <path fill="#ffdcb2" fill-rule="evenodd" id="imagebot_44" d="M-5487,-6929.1377C-5487,-6904.561 -5506.9233,-6884.6377 -5531.5,-6884.6377C-5556.0767,-6884.6377 -5576,-6904.561 -5576,-6929.1377C-5576,-6953.7144 -5556.0767,-6973.6377 -5531.5,-6973.6377C-5506.9233,-6973.6377 -5487,-6953.7144 -5487,-6929.1377z" transform="matrix(0.77861796,0,0,0.77861796,-1136.566,-1466.2295)"/>
   <path fill="#b2997c" fill-rule="evenodd" transform="matrix(-0.77861796,0,0,0.77861796,-9749.451,-1464.0432)" d="M-5487,-6929.13965C-5487.086,-6929.09365 -5487.152,-6929.82345 -5487.3117,-6931.29825C-5487.4714,-6932.77295 -5487.7306,-6934.99915 -5488.4042,-6937.86415C-5489.0779,-6940.72915 -5490.1754,-6944.24335 -5492.0973,-6948.08445C-5494.0192,-6951.92555 -5496.7756,-6956.10255 -5500.7024,-6959.93525C-5504.1994,-6963.35345 -5508.6323,-6966.46925 -5513.8677,-6968.74255C-5519.1031,-6971.01585 -5525.1424,-6972.44325 -5531.5,-6972.40195C-5536.8084,-6972.37295 -5542.3179,-6971.30645 -5547.5722,-6969.16895C-5552.8265,-6967.03145 -5557.8216,-6963.82305 -5561.99,-6959.62765C-5565.8819,-6955.71875 -5569.0399,-6950.95875 -5571.2143,-6945.73505C-5573.3887,-6940.51145 -5574.5774,-6934.82825 -5574.5743,-6929.13765C-5574.5743,-6923.44695 -5573.3887,-6917.76385 -5571.2143,-6912.54025C-5569.0399,-6907.31655 -5565.8819,-6902.55655 -5561.99,-6898.64765C-5557.8216,-6894.45215 -5552.8265,-6891.24385 -5547.5722,-6889.10635C-5542.3179,-6886.96885 -5536.8084,-6885.90285 -5531.5,-6885.87335C-5525.1424,-6885.83235 -5519.1031,-6887.25945 -5513.8677,-6889.53275C-5508.6323,-6891.80595 -5504.1994,-6894.92185 -5500.7024,-6898.34005C-5496.7756,-6902.17275 -5494.0192,-6906.34975 -5492.0973,-6910.19085C-5490.1754,-6914.03195 -5489.0779,-6917.54605 -5488.4042,-6920.41114C-5487.7306,-6923.27614 -5487.4714,-6925.50225 -5487.3117,-6926.97704C-5487.152,-6928.45174 -5487.086,-6929.18154 -5487,-6929.13554C-5486.914,-6929.18154 -5486.8074,-6928.45204 -5486.799,-6926.95094C-5486.789,-6925.44984 -5486.886,-6923.17034 -5487.415,-6920.20694C-5487.9444,-6917.24354 -5488.9174,-6913.58584 -5490.7675,-6909.55374C-5492.6177,-6905.52164 -5495.3557,-6901.10624 -5499.3651,-6897.00274C-5502.9408,-6893.34824 -5507.5158,-6889.99114 -5512.9705,-6887.51384C-5518.4253,-6885.03664 -5524.7614,-6883.44324 -5531.5,-6883.40194C-5537.1266,-6883.37294 -5542.9703,-6884.43894 -5548.5563,-6886.65734C-5554.1422,-6888.87574 -5559.466,-6892.24574 -5563.9425,-6896.69514C-5568.1135,-6900.84914 -5571.4956,-6905.89845 -5573.8234,-6911.45004C-5576.1511,-6917.00174 -5577.4226,-6923.05164 -5577.4257,-6929.13764C-5577.4257,-6935.22364 -5576.1511,-6941.27354 -5573.8234,-6946.82514C-5571.4956,-6952.37684 -5568.1135,-6957.42614 -5563.9425,-6961.58014C-5559.466,-6966.02954 -5554.1422,-6969.39954 -5548.5563,-6971.61794C-5542.9703,-6973.83634 -5537.1266,-6974.90284 -5531.5,-6974.87334C-5524.7614,-6974.83234 -5518.4253,-6973.23864 -5512.9705,-6970.76144C-5507.5158,-6968.28414 -5502.9408,-6964.92704 -5499.3651,-6961.27254C-5495.3557,-6957.16904 -5492.6177,-6952.75364 -5490.7675,-6948.72154C-5488.9174,-6944.68934 -5487.9444,-6941.03174 -5487.415,-6938.06834C-5486.8857,-6935.10494 -5486.7907,-6932.82534 -5486.799,-6931.32434C-5486.809,-6929.82324 -5486.914,-6929.09374 -5487,-6929.13964z" id="imagebot_43"/>
   <path fill="#ff7200" id="imagebot_42" d="M-5445.71875,-6789.37793C-5452.92425,-6789.28193 -5459.97295,-6788.78873 -5464.46875,-6788.40923C-5465.23935,-6782.63623 -5465.83875,-6776.81293 -5466.59375,-6771.03423C-5460.87795,-6769.21573 -5455.18445,-6769.08223 -5449.46875,-6771.03423L-5449.09375,-6780.56543C-5446.93155,-6780.18783 -5445.01535,-6779.48263 -5441.49995,-6780.90923L-5440.62495,-6771.03423C-5436.84325,-6770.69523 -5433.02615,-6770.59873 -5428.78115,-6773.50293C-5429.46795,-6778.75403 -5430.21925,-6783.81523 -5431.03115,-6788.69043C-5435.24745,-6789.26863 -5440.46455,-6789.44803 -5445.71875,-6789.37793z"/>
   <path fill="#13380d" d="M-5544.97949,-6952.74707C-5544.98949,-6952.62847 -5545.92219,-6953.10737 -5547.83879,-6953.96957C-5548.79699,-6954.40067 -5550.00379,-6954.92177 -5551.47349,-6955.41717C-5552.94329,-6955.91247 -5554.67649,-6956.38597 -5556.68369,-6956.59627C-5557.93379,-6956.72907 -5559.29209,-6956.73867 -5560.70779,-6956.55327C-5562.12359,-6956.36767 -5563.59739,-6955.98677 -5565.03619,-6955.32647C-5567.20119,-6954.37267 -5569.26469,-6952.88347 -5571.25469,-6950.95257C-5573.24469,-6949.02157 -5575.15979,-6946.64587 -5577.14029,-6944.14607C-5579.93539,-6945.37587 -5582.56069,-6947.34577 -5584.52899,-6949.95427C-5586.15249,-6952.42497 -5587.07119,-6955.61757 -5586.40699,-6958.84647C-5585.95429,-6960.77277 -5585.00539,-6962.50747 -5583.73789,-6964.01357C-5582.47029,-6965.51967 -5580.88419,-6966.79697 -5579.20119,-6967.80947C-5576.43569,-6969.51837 -5573.39209,-6970.79007 -5570.19349,-6971.74737C-5566.99489,-6972.70457 -5563.64179,-6973.34787 -5560.29029,-6973.85217C-5555.56579,-6978.75377 -5549.43359,-6982.27587 -5542.66959,-6984.20577C-5535.90569,-6986.13567 -5528.52449,-6986.47267 -5521.49779,-6985.18747C-5511.71299,-6983.24097 -5502.75889,-6978.66867 -5495.02089,-6972.74917C-5487.28299,-6966.82967 -5480.76539,-6959.59827 -5475.56969,-6952.33537C-5483.89299,-6950.83247 -5491.77519,-6949.26447 -5499.04739,-6948.06097C-5506.31959,-6946.85747 -5512.98039,-6946.01737 -5518.85979,-6945.61367C-5522.15739,-6945.43617 -5525.24279,-6945.37717 -5528.03129,-6945.52567C-5530.81969,-6945.67467 -5533.31229,-6946.02707 -5535.47359,-6946.52777C-5537.90699,-6947.08957 -5539.91189,-6947.91067 -5541.38489,-6948.82087C-5542.94649,-6949.78487 -5543.88459,-6950.84147 -5544.40159,-6951.57847C-5544.91859,-6952.31557 -5545.05389,-6952.73717 -5544.97689,-6952.74437C-5544.93489,-6952.80937 -5544.67999,-6952.46147 -5544.08139,-6951.84177C-5543.48289,-6951.22197 -5542.50149,-6950.33177 -5540.97729,-6949.53557C-5539.52889,-6948.77927 -5537.59809,-6948.12937 -5535.23129,-6947.69507C-5533.12089,-6947.30927 -5530.69829,-6947.07017 -5527.97879,-6947.02677C-5525.25929,-6946.98377 -5522.24179,-6947.14017 -5518.97829,-6947.39847C-5513.25079,-6947.76567 -5506.78329,-6948.47447 -5499.71019,-6949.45817C-5492.63699,-6950.44187 -5484.95819,-6951.70187 -5476.79829,-6952.83397C-5482.07229,-6959.61367 -5488.58819,-6966.28777 -5496.20799,-6971.63527C-5503.82779,-6976.98277 -5512.54639,-6980.96967 -5521.98799,-6982.37817C-5528.73199,-6983.49597 -5535.82239,-6983.12797 -5542.30299,-6981.29557C-5548.78369,-6979.46327 -5554.64039,-6976.16677 -5559.11289,-6971.58197C-5562.54399,-6971.01867 -5565.91889,-6970.36247 -5569.09219,-6969.43107C-5572.26549,-6968.49977 -5575.23669,-6967.29267 -5577.89569,-6965.67817C-5579.39029,-6964.74377 -5580.79969,-6963.65307 -5581.90269,-6962.42317C-5583.00569,-6961.19317 -5583.80209,-6959.82417 -5584.11429,-6958.33287C-5584.71559,-6955.90717 -5583.96559,-6953.26077 -5582.66629,-6951.13947C-5581.45609,-6948.75437 -5579.58229,-6946.88377 -5577.49749,-6945.66927C-5575.76129,-6948.10047 -5573.95599,-6950.45337 -5571.99559,-6952.38147C-5570.03519,-6954.30967 -5567.92129,-6955.81597 -5565.67199,-6956.78537C-5564.04379,-6957.46117 -5562.41169,-6957.82107 -5560.86449,-6957.96437C-5559.31729,-6958.10777 -5557.85429,-6958.03437 -5556.52199,-6957.82837C-5554.40539,-6957.49747 -5552.62629,-6956.90837 -5551.14329,-6956.30277C-5549.66029,-6955.69717 -5548.47289,-6955.07087 -5547.54759,-6954.53897C-5546.62229,-6954.00717 -5545.95879,-6953.56637 -5545.53559,-6953.25987C-5545.11249,-6952.95347 -5544.92969,-6952.77957 -5544.97949,-6952.74697z" id="imagebot_41"/>
   <path fill="#bbbbbb" d="M-5546.31,-6884.3 C-5546.39,-6884.44 -5544.12,-6884.45 -5539.55,-6884.3 C-5534.98,-6884.15 -5528.11,-6883.84 -5519.18,-6883.36 C-5516.66,-6877.43 -5514.2,-6870.32 -5512.17,-6862.13 C-5510.14,-6853.94 -5508.55,-6844.68 -5507.51,-6834.69 C-5506.72,-6825.94 -5506.33,-6816.62 -5506.26,-6806.91 C-5506.19,-6797.2 -5506.44,-6787.1 -5506.81,-6776.81 C-5509.84,-6774.42 -5513.47,-6772.81 -5517.27,-6772.18 C-5520.88,-6772.08 -5524.48,-6772.72 -5527.95,-6773.51 C-5525.78,-6780.23 -5525.13,-6787.47 -5525.34,-6794.64 C-5525.34,-6794.64 -5525.34,-6794.64 -5525.34,-6794.64 C-5530.35,-6793.29 -5535.71,-6792.51 -5540.95,-6793.57 C-5542.73,-6787.36 -5540.53,-6780.39 -5538.95,-6773.62 C-5538.95,-6773.62 -5538.95,-6773.62 -5538.95,-6773.62 C-5542.46,-6772.83 -5546.05,-6772.02 -5549.71,-6771.86 C-5554,-6772.18 -5558.15,-6773.51 -5561.84,-6775.54 C-5564.78,-6791.76 -5565.04,-6807.31 -5563.84,-6821.03 C-5562.65,-6834.75 -5560.04,-6846.64 -5557.3,-6856.15 C-5554.56,-6865.66 -5551.71,-6872.81 -5549.67,-6877.5 C-5548.65,-6879.85 -5547.82,-6881.58 -5547.25,-6882.71 C-5546.68,-6883.85 -5546.36,-6884.37 -5546.31,-6884.3 C-5546.23,-6884.31 -5546.42,-6883.73 -5546.86,-6882.54 C-5547.31,-6881.36 -5548.01,-6879.58 -5548.9,-6877.2 C-5550.7,-6872.45 -5553.31,-6865.3 -5555.86,-6855.87 C-5558.4,-6846.45 -5560.86,-6834.74 -5561.96,-6821.31 C-5563.06,-6807.87 -5562.79,-6792.72 -5559.92,-6776.96 C-5556.76,-6775.43 -5553.22,-6774.53 -5549.62,-6774.59 C-5546.68,-6774.21 -5543.64,-6774.45 -5540.51,-6774.67 C-5540.51,-6774.67 -5540.51,-6774.67 -5540.51,-6774.67 C-5542.06,-6781.08 -5544.1,-6788.27 -5542.03,-6795.35 C-5536.29,-6794.26 -5530.2,-6794.93 -5524.23,-6796.09 C-5524.23,-6796.09 -5524.23,-6796.09 -5524.23,-6796.09 C-5523.8,-6788.86 -5524.3,-6781.46 -5526.39,-6774.49 C-5523.39,-6774.34 -5520.43,-6774.31 -5517.6,-6774.97 C-5514.49,-6775.17 -5511.49,-6776.23 -5509.04,-6777.97 C-5508.73,-6788.03 -5508.53,-6797.89 -5508.62,-6807.37 C-5508.72,-6816.84 -5509.11,-6825.93 -5509.87,-6834.47 C-5510.6,-6844.24 -5511.88,-6853.3 -5513.63,-6861.34 C-5515.38,-6869.38 -5517.6,-6876.4 -5519.93,-6882.3 C-5528.53,-6882.78 -5535.21,-6883.22 -5539.68,-6883.57 C-5544.15,-6883.91 -5546.4,-6884.17 -5546.31,-6884.3 L-5546.31,-6884.3 z" id="imagebot_40"/>
   <path fill="#164f0f" d="M-5520.09,-6831.71 C-5520.09,-6831.71 -5520.09,-6831.71 -5520.09,-6831.74 C-5519.77,-6831.77 -5518.7,-6831.75 -5516.86,-6831.64 C-5515.02,-6831.53 -5512.42,-6831.34 -5509.1,-6830.77 C-5508.42,-6825.47 -5507.67,-6818.21 -5507.1,-6809.27 C-5506.54,-6800.34 -5506.17,-6789.75 -5505.97,-6778.03 C-5508.8,-6775.6 -5512.31,-6773.83 -5516.11,-6773.04 C-5519.63,-6772.76 -5523.23,-6773.21 -5526.77,-6773.84 C-5524.94,-6780.48 -5524.53,-6787.74 -5525.05,-6795.04 C-5529.96,-6793.51 -5535.28,-6792.47 -5540.61,-6793.32 C-5542.12,-6787.1 -5539.67,-6780.23 -5537.79,-6773.46 C-5541.25,-6772.52 -5544.81,-6771.56 -5548.49,-6771.23 C-5552.79,-6771.38 -5557.01,-6772.54 -5560.8,-6774.44 C-5562.99,-6784.72 -5564.19,-6794.87 -5564.6,-6804.4 C-5565,-6813.93 -5564.62,-6822.83 -5563.77,-6830.76 C-5563.77,-6830.76 -5563.77,-6830.76 -5563.77,-6830.76 C-5556.65,-6831.6 -5550.24,-6832.13 -5544.69,-6832.44 C-5536.69,-6832.73 -5530.43,-6832.64 -5526.26,-6832.41 C-5522.1,-6832.17 -5520.01,-6831.85 -5520.1,-6831.71 C-5520.03,-6831.56 -5522.13,-6831.58 -5526.28,-6831.53 C-5528.36,-6831.51 -5530.95,-6831.46 -5534.01,-6831.34 C-5537.08,-6831.23 -5540.62,-6831.04 -5544.6,-6830.77 C-5549.9,-6830.52 -5555.96,-6830.15 -5562.6,-6829.6 C-5562.6,-6829.6 -5562.6,-6829.6 -5562.6,-6829.6 C-5563.31,-6821.92 -5563.55,-6813.39 -5563.01,-6804.33 C-5562.47,-6795.27 -5561.14,-6785.68 -5558.86,-6775.99 C-5555.65,-6774.59 -5552.08,-6773.85 -5548.51,-6774.05 C-5545.56,-6773.77 -5542.54,-6774.14 -5539.43,-6774.47 C-5541.25,-6780.87 -5543.54,-6787.99 -5541.78,-6795.07 C-5535.92,-6794.19 -5529.86,-6795.13 -5524.03,-6796.51 C-5523.29,-6789.13 -5523.57,-6781.7 -5525.35,-6774.82 C-5522.29,-6774.76 -5519.31,-6774.84 -5516.51,-6775.57 C-5513.33,-6775.9 -5510.34,-6777.13 -5507.96,-6778.96 C-5507.93,-6790.16 -5508.05,-6800.33 -5508.39,-6809 C-5508.73,-6817.66 -5509.28,-6824.82 -5509.78,-6830.14 C-5512.78,-6830.82 -5515.23,-6831.11 -5516.98,-6831.31 C-5518.73,-6831.51 -5519.79,-6831.62 -5520.1,-6831.68 C-5520.1,-6831.71 -5520.1,-6831.71 -5520.1,-6831.71 L-5520.09,-6831.71 z" id="imagebot_39"/>
   <path fill="#757575" fill-rule="evenodd" id="imagebot_38" d="M-5529.4292,-6883.41113L-5537.7494,-6883.80483L-5540.7996,-6877.03863L-5534.4076,-6870.63433L-5526.9093,-6877.25003L-5529.4292,-6883.41113zM-5534.6356,-6870.28243L-5545.4274,-6829.35153L-5537.3152,-6819.20213L-5528.7983,-6826.77333L-5534.6356,-6870.28243z"/>
   <path fill="#5d5d5d" fill-rule="evenodd" d="M-5526.75,-6882.32 C-5526.75,-6882.32 -5526.75,-6882.32 -5526.68,-6882.35 C-5526.68,-6882.35 -5526.68,-6882.35 -5526.68,-6882.35 C-5526.53,-6882.13 -5526.23,-6881.45 -5525.79,-6880.32 C-5525.36,-6879.19 -5524.77,-6877.6 -5524.07,-6875.66 C-5526.46,-6873.85 -5529.68,-6871.55 -5533.16,-6869.12 C-5535.37,-6871.71 -5537.71,-6874.48 -5539.85,-6877.07 C-5538.24,-6879.79 -5536.7,-6882.33 -5535.4,-6884.43 C-5532.61,-6884.03 -5530.37,-6883.61 -5528.89,-6883.24 C-5527.41,-6882.87 -5526.7,-6882.54 -5526.75,-6882.32 C-5526.77,-6882.1 -5527.54,-6882 -5528.91,-6882.06 C-5530.28,-6882.12 -5532.25,-6882.35 -5534.58,-6882.72 C-5535.49,-6881 -5536.51,-6879.15 -5537.58,-6877.25 C-5536.01,-6875.25 -5534.43,-6873.18 -5532.88,-6871.14 C-5530.32,-6873.02 -5527.84,-6874.78 -5525.69,-6876.22 C-5526.39,-6879.5 -5526.85,-6881.78 -5526.82,-6882.3 C-5526.82,-6882.3 -5526.82,-6882.3 -5526.82,-6882.3 C-5526.75,-6882.33 -5526.75,-6882.33 -5526.75,-6882.33 L-5526.75,-6882.32 z M-5533.28,-6869.8 C-5533.28,-6869.8 -5533.28,-6869.8 -5533.24,-6869.8 C-5533.24,-6869.8 -5533.24,-6869.8 -5533.24,-6869.8 C-5533.15,-6869.44 -5533.03,-6868.09 -5532.88,-6865.82 C-5532.73,-6863.54 -5532.54,-6860.33 -5532.33,-6856.35 C-5532.12,-6852.38 -5531.88,-6847.63 -5531.63,-6842.38 C-5531.38,-6837.12 -5531.12,-6831.35 -5530.86,-6825.38 C-5534.31,-6823.05 -5537.85,-6820.67 -5541.4,-6818.31 C-5541.4,-6818.31 -5541.4,-6818.31 -5541.4,-6818.31 C-5544.13,-6822.26 -5546.85,-6826.23 -5549.47,-6830.07 C-5547.33,-6835.78 -5545.24,-6841.24 -5543.34,-6846.16 C-5541.44,-6851.07 -5539.71,-6855.44 -5538.25,-6859 C-5536.8,-6862.57 -5535.61,-6865.34 -5534.77,-6867.17 C-5533.93,-6869 -5533.42,-6869.89 -5533.28,-6869.8 C-5533.12,-6869.77 -5533.33,-6868.78 -5533.9,-6866.87 C-5534.47,-6864.96 -5535.39,-6862.15 -5536.63,-6858.6 C-5537.86,-6855.05 -5539.4,-6850.75 -5541.16,-6845.95 C-5542.93,-6841.16 -5544.91,-6835.85 -5547.01,-6830.33 C-5545.03,-6827.02 -5543.03,-6823.63 -5541.03,-6820.23 C-5541.03,-6820.23 -5541.03,-6820.23 -5541.03,-6820.23 C-5538.37,-6822.33 -5535.7,-6824.42 -5533.07,-6826.47 C-5533.17,-6832.26 -5533.24,-6837.86 -5533.3,-6842.96 C-5533.36,-6848.06 -5533.41,-6852.67 -5533.43,-6856.55 C-5533.46,-6860.44 -5533.46,-6863.59 -5533.45,-6865.84 C-5533.43,-6868.09 -5533.4,-6869.44 -5533.33,-6869.8 C-5533.33,-6869.8 -5533.33,-6869.8 -5533.33,-6869.8 C-5533.28,-6869.8 -5533.28,-6869.8 -5533.28,-6869.8 z" id="imagebot_37"/>
   <path fill="#000000" d="M-5505.81,-6784.9 C-5505.63,-6784.92 -5505.47,-6784.24 -5505.37,-6782.86 C-5505.26,-6781.48 -5505.22,-6779.4 -5505.26,-6776.75 C-5506.44,-6775.76 -5507.89,-6774.77 -5509.6,-6773.93 C-5511.31,-6773.09 -5513.28,-6772.41 -5515.4,-6772.03 C-5515.4,-6772.03 -5515.4,-6772.03 -5515.4,-6772.03 C-5518.84,-6771.87 -5522.54,-6772.47 -5526.08,-6773.28 C-5524.94,-6777.29 -5524.27,-6781.49 -5523.85,-6785.31 C-5518.49,-6785.33 -5513.83,-6785.39 -5510.65,-6785.36 C-5507.48,-6785.33 -5505.8,-6785.19 -5505.81,-6784.9 C-5505.77,-6784.63 -5507.4,-6784.23 -5510.38,-6783.97 C-5513.35,-6783.72 -5517.66,-6783.65 -5522.56,-6783.86 C-5522.83,-6780.75 -5523.4,-6777.46 -5524.51,-6774.27 C-5521.45,-6774.12 -5518.45,-6774.11 -5515.71,-6774.68 C-5515.71,-6774.68 -5515.71,-6774.68 -5515.71,-6774.68 C-5513.95,-6774.76 -5512.28,-6775.11 -5510.78,-6775.63 C-5509.29,-6776.15 -5507.96,-6776.83 -5506.84,-6777.57 C-5506.71,-6779.87 -5506.55,-6781.73 -5506.37,-6782.99 C-5506.19,-6784.26 -5505.99,-6784.93 -5505.81,-6784.9 L-5505.81,-6784.9 z M-5539.94,-6785.35 C-5539.74,-6785.39 -5539.45,-6784.38 -5539.02,-6782.36 C-5538.6,-6780.33 -5538.01,-6777.3 -5537.24,-6773.51 C-5538.73,-6773.16 -5540.37,-6772.77 -5542.14,-6772.43 C-5543.91,-6772.08 -5545.82,-6771.78 -5547.83,-6771.66 C-5547.83,-6771.66 -5547.83,-6771.66 -5547.83,-6771.66 C-5551.9,-6771.89 -5556.2,-6773.16 -5560.03,-6775.27 C-5560.58,-6779.51 -5560.98,-6783.78 -5561.24,-6787.71 C-5558.09,-6787.46 -5555.12,-6787.24 -5552.47,-6787.03 C-5549.83,-6786.82 -5547.52,-6786.62 -5545.63,-6786.42 C-5543.75,-6786.23 -5542.3,-6786.03 -5541.35,-6785.85 C-5540.39,-6785.66 -5539.92,-6785.49 -5539.94,-6785.35 C-5539.93,-6785.06 -5541.93,-6784.9 -5545.51,-6785.06 C-5549.1,-6785.22 -5554.24,-6785.71 -5560.07,-6786.54 C-5559.51,-6783.38 -5558.79,-6780.08 -5557.97,-6776.79 C-5554.74,-6775.22 -5551.16,-6774.36 -5547.74,-6774.34 C-5547.74,-6774.34 -5547.74,-6774.34 -5547.74,-6774.34 C-5546.12,-6774.1 -5544.52,-6774.06 -5542.96,-6774.09 C-5541.4,-6774.13 -5539.9,-6774.23 -5538.47,-6774.33 C-5539.38,-6777.64 -5539.9,-6780.44 -5540.09,-6782.37 C-5540.27,-6784.3 -5540.15,-6785.35 -5539.94,-6785.35 z" id="imagebot_36"/>
   <path fill="#cccccc" fill-rule="evenodd" id="imagebot_35" d="M-5564.50244,-6912.75439C-5557.65594,-6915.92039 -5550.97654,-6915.62139 -5544.65014,-6914.26689C-5550.87474,-6913.84919 -5557.23994,-6914.41539 -5562.98984,-6910.67459L-5564.50244,-6912.75439"/>
   <path fill="#cccccc" fill-rule="evenodd" d="M-5499.4624,-6912.94385C-5511.8513,-6916.10985 -5523.9378,-6915.81085 -5535.3856,-6914.45635C-5524.122,-6914.03865 -5512.6041,-6914.60485 -5502.1995,-6910.86405L-5499.4624,-6912.94385" id="imagebot_34"/>
   <path fill="#cccccc" fill-rule="evenodd" id="imagebot_33" d="M-5516.10059,-6905.00293C-5515.42329,-6905.47153 -5511.27659,-6915.40663 -5514.20989,-6922.20833L-5516.10059,-6905.00293"/>
   <path fill="#cccccc" fill-rule="evenodd" d="M-5552.87646,-6908.02783C-5553.29136,-6908.36773 -5555.83176,-6915.57343 -5554.03476,-6920.50653L-5552.87646,-6908.02783" id="imagebot_32"/>
   <path fill="#cccccc" fill-rule="evenodd" id="imagebot_31" d="M-5506.83594,-6907.83838C-5506.42104,-6908.17828 -5503.88064,-6915.38398 -5505.67764,-6920.31708L-5506.83594,-6907.83838"/>
   <path fill="#a8a8a8" fill-rule="evenodd" d="M-5570.04834,-6921.8916C-5570.01434,-6921.9366 -5569.79994,-6921.4237 -5569.34374,-6920.3927C-5568.88754,-6919.3617 -5568.18554,-6917.8099 -5567.06924,-6915.8754C-5565.95294,-6913.9409 -5564.41604,-6911.6194 -5562.26144,-6909.2034C-5560.10674,-6906.7874 -5557.32804,-6904.2745 -5553.79644,-6902.1659C-5550.79764,-6900.3718 -5547.29154,-6898.866 -5543.39054,-6897.8817C-5539.48964,-6896.8973 -5535.19444,-6896.4363 -5530.76644,-6896.6924C-5530.76644,-6896.6924 -5530.76644,-6896.6924 -5530.76644,-6896.6924C-5527.00214,-6896.912 -5523.12714,-6897.6492 -5519.36924,-6898.9672C-5515.61124,-6900.2852 -5511.97264,-6902.1843 -5508.71544,-6904.6817C-5505.39514,-6907.1203 -5502.52004,-6910.1925 -5500.25194,-6913.6598C-5497.98384,-6917.1271 -5496.32434,-6920.9863 -5495.38734,-6924.9652C-5500.44114,-6926.2225 -5505.51664,-6927.199 -5510.48384,-6927.8857C-5515.45094,-6928.5724 -5520.30874,-6928.9694 -5524.94094,-6929.1087C-5534.20534,-6929.3871 -5542.53604,-6928.6105 -5549.31604,-6927.4332C-5556.09614,-6926.2558 -5561.33634,-6924.7169 -5564.82534,-6923.593C-5566.56984,-6923.0311 -5567.88164,-6922.5708 -5568.75364,-6922.2737C-5569.62564,-6921.9765 -5570.05814,-6921.843 -5570.04754,-6921.8933C-5570.09054,-6921.9223 -5569.68984,-6922.1343 -5568.84434,-6922.5076C-5567.99884,-6922.8808 -5566.70784,-6923.4143 -5564.97374,-6924.0436C-5561.50554,-6925.3021 -5556.24204,-6926.952 -5549.38194,-6928.1944C-5542.52194,-6929.4368 -5534.05474,-6930.2315 -5524.62274,-6929.9142C-5519.90684,-6929.7556 -5514.95794,-6929.3252 -5509.89804,-6928.5923C-5504.83814,-6927.8594 -5499.66814,-6926.824 -5494.52414,-6925.498C-5495.40574,-6921.223 -5497.03704,-6917.0698 -5499.30654,-6913.3232C-5501.57614,-6909.5767 -5504.48224,-6906.2401 -5507.86014,-6903.5621C-5511.25404,-6900.9788 -5515.03024,-6899.0242 -5518.92094,-6897.6795C-5522.81154,-6896.3347 -5526.81434,-6895.5995 -5530.69664,-6895.4045C-5530.69664,-6895.4045 -5530.69664,-6895.4045 -5530.69664,-6895.4045C-5535.26364,-6895.173 -5539.68144,-6895.6904 -5543.68334,-6896.7495C-5547.68524,-6897.8086 -5551.27074,-6899.4072 -5554.32484,-6901.2979C-5557.92484,-6903.5307 -5560.72194,-6906.1613 -5562.86324,-6908.6794C-5565.00444,-6911.1976 -5566.49644,-6913.6056 -5567.55174,-6915.6094C-5568.60694,-6917.6132 -5569.23184,-6919.2173 -5569.60494,-6920.2897C-5569.97814,-6921.3621 -5570.10314,-6921.9062 -5570.04834,-6921.8916z" id="imagebot_30"/>
   <path fill="url(#imagebot_29)" fill-rule="evenodd" id="imagebot_28" d="M-5547.69434,-6940.0293C-5547.69434,-6938.1096 -5549.25064,-6936.5533 -5551.17034,-6936.5533C-5553.09014,-6936.5533 -5554.64634,-6938.1096 -5554.64634,-6940.0293C-5554.64634,-6941.949 -5553.09014,-6943.5053 -5551.17034,-6943.5053C-5549.25064,-6943.5053 -5547.69434,-6941.949 -5547.69434,-6940.0293z" transform="matrix(0,1.6255175,-1.6255175,0,-16812.736,2089.2621)"/>
   <g id="imagebot_24">
    <path fill="#313131" fill-rule="evenodd" id="imagebot_27" d="M-5547.69434,-6940.0293C-5547.69434,-6938.1096 -5549.25064,-6936.5533 -5551.17034,-6936.5533C-5553.09014,-6936.5533 -5554.64634,-6938.1096 -5554.64634,-6940.0293C-5554.64634,-6941.949 -5553.09014,-6943.5053 -5551.17034,-6943.5053C-5549.25064,-6943.5053 -5547.69434,-6941.949 -5547.69434,-6940.0293z" transform="matrix(1.1730769,0,0,1.1730769,956.96926,1201.7605)"/>
    <path fill="#ffffff" fill-rule="evenodd" transform="matrix(0.35576922,0,0,0.35576922,-3581.8832,-4472.0833)" d="M-5547.69434,-6940.0293C-5547.69434,-6938.1096 -5549.25064,-6936.5533 -5551.17034,-6936.5533C-5553.09014,-6936.5533 -5554.64634,-6938.1096 -5554.64634,-6940.0293C-5554.64634,-6941.949 -5553.09014,-6943.5053 -5551.17034,-6943.5053C-5549.25064,-6943.5053 -5547.69434,-6941.949 -5547.69434,-6940.0293z" id="imagebot_26"/>
    <path fill="#ffffff" fill-rule="evenodd" id="imagebot_25" d="M-5547.69434,-6940.0293C-5547.69434,-6938.1096 -5549.25064,-6936.5533 -5551.17034,-6936.5533C-5553.09014,-6936.5533 -5554.64634,-6938.1096 -5554.64634,-6940.0293C-5554.64634,-6941.949 -5553.09014,-6943.5053 -5551.17034,-6943.5053C-5549.25064,-6943.5053 -5547.69434,-6941.949 -5547.69434,-6940.0293z" transform="matrix(0.15384614,0,0,0.15384614,-4703.8956,-5871.5971)"/>
   </g>
   <g transform="translate(46.925988,0)" id="imagebot_20">
    <path fill="#313131" fill-rule="evenodd" transform="matrix(1.1730769,0,0,1.1730769,956.96926,1201.7605)" d="M-5547.69434,-6940.0293C-5547.69434,-6938.1096 -5549.25064,-6936.5533 -5551.17034,-6936.5533C-5553.09014,-6936.5533 -5554.64634,-6938.1096 -5554.64634,-6940.0293C-5554.64634,-6941.949 -5553.09014,-6943.5053 -5551.17034,-6943.5053C-5549.25064,-6943.5053 -5547.69434,-6941.949 -5547.69434,-6940.0293z" id="imagebot_23"/>
    <path fill="#ffffff" fill-rule="evenodd" id="imagebot_22" d="M-5547.69434,-6940.0293C-5547.69434,-6938.1096 -5549.25064,-6936.5533 -5551.17034,-6936.5533C-5553.09014,-6936.5533 -5554.64634,-6938.1096 -5554.64634,-6940.0293C-5554.64634,-6941.949 -5553.09014,-6943.5053 -5551.17034,-6943.5053C-5549.25064,-6943.5053 -5547.69434,-6941.949 -5547.69434,-6940.0293z" transform="matrix(0.35576922,0,0,0.35576922,-3581.8832,-4472.0833)"/>
    <path fill="#ffffff" fill-rule="evenodd" transform="matrix(0.15384614,0,0,0.15384614,-4703.8956,-5871.5971)" d="M-5547.69434,-6940.0293C-5547.69434,-6938.1096 -5549.25064,-6936.5533 -5551.17034,-6936.5533C-5553.09014,-6936.5533 -5554.64634,-6938.1096 -5554.64634,-6940.0293C-5554.64634,-6941.949 -5553.09014,-6943.5053 -5551.17034,-6943.5053C-5549.25064,-6943.5053 -5547.69434,-6941.949 -5547.69434,-6940.0293z" id="imagebot_21"/>
   </g>
   <path fill="#0099ff" d="M-5456.52,-6818.75 C-5456.43,-6818.74 -5456.57,-6818.24 -5456.92,-6817.26 C-5457.27,-6816.28 -5457.81,-6814.81 -5458.44,-6812.85 C-5459.07,-6810.9 -5459.79,-6808.45 -5460.49,-6805.52 C-5461.18,-6802.59 -5461.84,-6799.19 -5462.42,-6795.39 C-5463,-6791.98 -5463.53,-6788.24 -5464.06,-6784.25 C-5464.58,-6780.25 -5465.11,-6775.99 -5465.77,-6771.55 C-5460.94,-6770 -5455.39,-6769.81 -5450.37,-6771.71 C-5450.15,-6774.87 -5449.92,-6778.07 -5449.69,-6781.29 C-5448.25,-6781.32 -5446.95,-6781.28 -5445.76,-6781.49 C-5445.76,-6781.49 -5445.76,-6781.49 -5445.76,-6781.49 C-5444.22,-6781.24 -5442.62,-6781.35 -5441.06,-6781.65 C-5440.65,-6778.36 -5440.25,-6775.07 -5439.84,-6771.79 C-5436.21,-6771.45 -5432.52,-6771.9 -5429.85,-6773.98 C-5430.93,-6782.73 -5432.07,-6791.13 -5433.52,-6798.63 C-5434.97,-6806.13 -5436.74,-6812.74 -5438.56,-6818.16 C-5444.31,-6818.15 -5448.86,-6818.21 -5451.93,-6818.32 C-5455,-6818.43 -5456.58,-6818.59 -5456.52,-6818.75 C-5456.58,-6818.91 -5455,-6819.07 -5451.82,-6819.18 C-5448.64,-6819.29 -5443.86,-6819.36 -5437.72,-6819.34 C-5435.71,-6813.82 -5433.71,-6806.93 -5432.03,-6799.04 C-5430.34,-6791.15 -5428.97,-6782.26 -5427.69,-6773.02 C-5431.74,-6770.5 -5436.7,-6769.85 -5441.38,-6770.25 C-5441.57,-6773.56 -5441.76,-6776.88 -5441.94,-6780.2 C-5443.11,-6779.38 -5444.45,-6778.8 -5445.86,-6778.65 C-5445.86,-6778.65 -5445.86,-6778.65 -5445.86,-6778.65 C-5446.89,-6778.93 -5447.76,-6779.44 -5448.51,-6779.84 C-5448.51,-6776.65 -5448.52,-6773.47 -5448.53,-6770.34 C-5454.89,-6768.35 -5461.63,-6768.67 -5467.44,-6770.49 C-5466.9,-6775.18 -5466.47,-6779.7 -5465.99,-6783.94 C-5465.52,-6788.17 -5465,-6792.13 -5464.39,-6795.72 C-5463.67,-6799.55 -5462.86,-6802.98 -5462,-6805.92 C-5461.14,-6808.86 -5460.25,-6811.3 -5459.45,-6813.23 C-5458.65,-6815.16 -5457.93,-6816.57 -5457.42,-6817.49 C-5456.91,-6818.4 -5456.59,-6818.82 -5456.52,-6818.75 L-5456.52,-6818.75 z" id="imagebot_19"/>
   <path fill="#ff5700" d="M-5444.81,-6789.16 C-5444.81,-6789.16 -5444.81,-6789.16 -5444.81,-6789.2 C-5444.43,-6789.25 -5442.94,-6789.23 -5440.38,-6789.04 C-5437.82,-6788.86 -5434.18,-6788.54 -5429.69,-6787.62 C-5429.26,-6783.07 -5428.84,-6777.53 -5428.5,-6771.29 C-5430.49,-6770.26 -5432.72,-6769.66 -5435.05,-6769.43 C-5437.39,-6769.19 -5439.84,-6769.34 -5442.23,-6769.76 C-5442.13,-6772.99 -5442.01,-6776.31 -5441.89,-6779.67 C-5443.13,-6778.97 -5444.52,-6778.5 -5445.94,-6778.48 C-5446.94,-6778.86 -5447.76,-6779.44 -5448.47,-6779.91 C-5448.76,-6776.75 -5449.06,-6773.59 -5449.37,-6770.46 C-5452.63,-6769.76 -5455.95,-6769.64 -5459.15,-6770 C-5462.34,-6770.36 -5465.4,-6771.19 -5468.17,-6772.35 C-5466.62,-6779.11 -5465.33,-6785.34 -5464.07,-6790.54 C-5457.87,-6790.54 -5452.95,-6790.29 -5449.67,-6789.99 C-5446.39,-6789.68 -5444.76,-6789.35 -5444.82,-6789.16 C-5444.79,-6788.97 -5446.45,-6788.92 -5449.59,-6788.99 C-5452.74,-6789.05 -5457.36,-6789.2 -5463.08,-6789.29 C-5464.1,-6784.56 -5465.11,-6779.11 -5466.4,-6773.26 C-5464.09,-6772.28 -5461.56,-6771.61 -5458.96,-6771.36 C-5456.36,-6771.12 -5453.68,-6771.3 -5451.1,-6772.02 C-5450.58,-6775.15 -5450.04,-6778.32 -5449.51,-6781.48 C-5448.07,-6781.37 -5446.78,-6781.21 -5445.57,-6781.3 C-5444.06,-6780.9 -5442.46,-6780.87 -5440.89,-6781.01 C-5440.79,-6777.65 -5440.71,-6774.33 -5440.63,-6771.09 C-5438.77,-6770.74 -5436.89,-6770.59 -5435.13,-6770.76 C-5433.37,-6770.94 -5431.74,-6771.43 -5430.32,-6772.31 C-5430.42,-6777.62 -5430.61,-6782.47 -5430.82,-6786.64 C-5434.81,-6787.69 -5438.17,-6788.16 -5440.58,-6788.49 C-5442.99,-6788.83 -5444.45,-6789.01 -5444.82,-6789.12 C-5444.82,-6789.16 -5444.82,-6789.16 -5444.82,-6789.16 L-5444.81,-6789.16 z" id="imagebot_18"/>
   <g id="imagebot_14" transform="matrix(1.1159192,0,0,1.1159192,739.35091,868.2234)">
    <path fill="#313131" fill-rule="evenodd" id="imagebot_17" d="M-5547.69434,-6940.0293C-5547.69434,-6938.1096 -5549.25064,-6936.5533 -5551.17034,-6936.5533C-5553.09014,-6936.5533 -5554.64634,-6938.1096 -5554.64634,-6940.0293C-5554.64634,-6941.949 -5553.09014,-6943.5053 -5551.17034,-6943.5053C-5549.25064,-6943.5053 -5547.69434,-6941.949 -5547.69434,-6940.0293z" transform="matrix(1.1730769,0,0,1.1730769,956.96926,1201.7605)"/>
    <path fill="#ffffff" fill-rule="evenodd" transform="matrix(0.35576922,0,0,0.35576922,-3581.8832,-4472.0833)" d="M-5547.69434,-6940.0293C-5547.69434,-6938.1096 -5549.25064,-6936.5533 -5551.17034,-6936.5533C-5553.09014,-6936.5533 -5554.64634,-6938.1096 -5554.64634,-6940.0293C-5554.64634,-6941.949 -5553.09014,-6943.5053 -5551.17034,-6943.5053C-5549.25064,-6943.5053 -5547.69434,-6941.949 -5547.69434,-6940.0293z" id="imagebot_16"/>
    <path fill="#ffffff" fill-rule="evenodd" id="imagebot_15" d="M-5547.69434,-6940.0293C-5547.69434,-6938.1096 -5549.25064,-6936.5533 -5551.17034,-6936.5533C-5553.09014,-6936.5533 -5554.64634,-6938.1096 -5554.64634,-6940.0293C-5554.64634,-6941.949 -5553.09014,-6943.5053 -5551.17034,-6943.5053C-5549.25064,-6943.5053 -5547.69434,-6941.949 -5547.69434,-6940.0293z" transform="matrix(0.15384614,0,0,0.15384614,-4703.8956,-5871.5971)"/>
   </g>
   <path fill="#b2997c" fill-rule="evenodd" id="imagebot_13" d="M-5439.4,-6850.46 C-5439.3,-6850.58 -5438.9,-6850.4 -5438.19,-6850.09 C-5437.84,-6849.94 -5437.4,-6849.76 -5436.89,-6849.61 C-5436.37,-6849.47 -5435.78,-6849.36 -5435.13,-6849.38 C-5434.06,-6849.39 -5432.79,-6849.77 -5431.56,-6850.52 C-5430.45,-6851.19 -5429.38,-6852.13 -5428.46,-6853.29 C-5427.54,-6854.46 -5426.76,-6855.84 -5426.21,-6857.32 C-5426.21,-6857.32 -5426.21,-6857.32 -5426.21,-6857.32 C-5425.75,-6858.61 -5425.47,-6859.96 -5425.58,-6861.21 C-5425.68,-6862.38 -5426.1,-6863.5 -5426.8,-6864.28 C-5427.73,-6865.4 -5429.25,-6865.99 -5430.66,-6866.37 C-5431.8,-6866.66 -5432.89,-6866.79 -5433.87,-6866.86 C-5434.84,-6866.94 -5435.7,-6866.95 -5436.41,-6866.97 C-5437.81,-6867.01 -5438.58,-6867.08 -5438.6,-6867.3 C-5438.66,-6867.51 -5437.97,-6867.88 -5436.55,-6868.24 C-5435.84,-6868.42 -5434.95,-6868.59 -5433.88,-6868.69 C-5432.82,-6868.78 -5431.59,-6868.79 -5430.23,-6868.61 C-5428.5,-6868.38 -5426.49,-6867.72 -5424.86,-6866.11 C-5423.67,-6864.87 -5422.92,-6863.2 -5422.77,-6861.46 C-5422.61,-6859.68 -5422.94,-6857.9 -5423.55,-6856.33 C-5423.55,-6856.33 -5423.55,-6856.33 -5423.55,-6856.33 C-5424.21,-6854.55 -5425.2,-6852.91 -5426.4,-6851.56 C-5427.59,-6850.2 -5428.99,-6849.15 -5430.42,-6848.44 C-5432.07,-6847.6 -5433.83,-6847.35 -5435.28,-6847.56 C-5436.15,-6847.7 -5436.87,-6847.99 -5437.45,-6848.31 C-5438.02,-6848.63 -5438.44,-6848.99 -5438.75,-6849.29 C-5439.37,-6849.91 -5439.53,-6850.34 -5439.4,-6850.45 L-5439.4,-6850.46 z"/>
   <path fill="#b2997c" fill-rule="evenodd" d="M-5432.2,-6859.24 C-5432.2,-6859.24 -5432.2,-6859.24 -5432.21,-6859.24 C-5432.21,-6859.24 -5432.21,-6859.24 -5432.21,-6859.24 C-5432.21,-6859.24 -5432.21,-6859.24 -5432.21,-6859.24 C-5432.21,-6859.24 -5432.21,-6859.24 -5432.21,-6859.24 C-5432.21,-6859.24 -5432.21,-6859.24 -5432.21,-6859.24 C-5432.36,-6859.25 -5432.54,-6859.52 -5432.71,-6859.97 C-5432.89,-6860.43 -5433.07,-6861.07 -5433.21,-6861.79 C-5433.41,-6862.11 -5433.78,-6862.37 -5434.14,-6862.35 C-5434.87,-6862.48 -5435.67,-6862.16 -5436.28,-6861.97 C-5436.89,-6861.78 -5437.3,-6861.71 -5437.39,-6861.85 C-5437.48,-6861.99 -5437.29,-6862.35 -5436.74,-6862.8 C-5436.2,-6863.25 -5435.25,-6863.79 -5434.02,-6863.76 C-5433.09,-6863.63 -5432.29,-6862.97 -5431.94,-6862.18 C-5431.87,-6861.32 -5431.86,-6860.57 -5431.9,-6860.05 C-5431.95,-6859.53 -5432.05,-6859.25 -5432.19,-6859.24 C-5432.19,-6859.24 -5432.19,-6859.24 -5432.19,-6859.24 C-5432.19,-6859.24 -5432.19,-6859.24 -5432.19,-6859.24 C-5432.19,-6859.24 -5432.19,-6859.24 -5432.19,-6859.24 C-5432.19,-6859.24 -5432.19,-6859.24 -5432.19,-6859.24 C-5432.21,-6859.24 -5432.2,-6859.24 -5432.2,-6859.24 L-5432.2,-6859.24 z" id="imagebot_12"/>
   <path fill="#b2997c" fill-rule="evenodd" d="M-5475.31006,-6867.34229C-5475.29506,-6867.17819 -5475.43106,-6866.98729 -5475.78436,-6866.86149C-5476.13766,-6866.73559 -5476.72416,-6866.67289 -5477.45626,-6867.01469C-5478.03726,-6867.31179 -5478.61716,-6867.85439 -5478.96716,-6868.57269C-5479.26926,-6869.17419 -5479.47096,-6869.88429 -5479.52036,-6870.63599C-5479.56936,-6871.38779 -5479.46636,-6872.17919 -5479.20566,-6872.92079C-5478.98986,-6873.59679 -5478.59776,-6874.27789 -5478.02426,-6874.85479C-5477.44556,-6875.43219 -5476.66596,-6875.79209 -5475.83736,-6875.87569C-5474.74136,-6875.92069 -5473.89556,-6875.55809 -5473.31866,-6875.11949C-5472.41206,-6874.45259 -5471.94136,-6873.73399 -5471.70926,-6873.20639C-5471.47716,-6872.67879 -5471.48236,-6872.32889 -5471.65326,-6872.19059C-5471.81626,-6872.04279 -5472.15516,-6872.10959 -5472.63216,-6872.32189C-5473.10916,-6872.53429 -5473.71826,-6872.90169 -5474.42066,-6873.12309C-5474.84876,-6873.23929 -5475.26896,-6873.34049 -5475.51056,-6873.22109C-5475.67016,-6873.18309 -5475.85646,-6873.03789 -5476.01756,-6872.86809C-5476.21616,-6872.66509 -5476.37446,-6872.34439 -5476.52476,-6871.97849C-5476.83196,-6871.10569 -5476.92456,-6870.17809 -5476.76226,-6869.44579C-5476.67526,-6869.06159 -5476.56446,-6868.73289 -5476.40216,-6868.50399C-5476.23606,-6868.21039 -5475.92886,-6868.00569 -5475.70206,-6867.83068C-5475.47536,-6867.65569 -5475.31596,-6867.50678 -5475.30986,-6867.34209z" id="imagebot_11"/>
   <path fill="#b2997c" fill-opacity="0.5" fill-rule="evenodd" id="imagebot_10" d="M-5458.65527,-6889.49365C-5455.08187,-6889.08995 -5451.64277,-6887.56935 -5448.93927,-6885.19795C-5446.23587,-6882.82655 -5444.28027,-6879.61475 -5443.41437,-6876.12445C-5442.19937,-6871.22675 -5443.19997,-6865.82355 -5446.08817,-6861.68565L-5442.61217,-6860.08135L-5436.72977,-6867.83545L-5428.17347,-6865.69645L-5423.62787,-6859.54655C-5425.09347,-6857.19725 -5426.60907,-6854.87925 -5428.17347,-6852.59455C-5429.22127,-6851.06425 -5430.29097,-6849.54885 -5431.38207,-6848.04905C-5432.31867,-6845.24985 -5431.96897,-6842.04805 -5430.45027,-6839.51705C-5428.93167,-6836.98595 -5426.27107,-6835.17075 -5423.36047,-6834.67985C-5420.38387,-6834.17785 -5417.24837,-6835.04735 -5414.80417,-6836.81885C-5412.68967,-6838.35135 -5411.06177,-6840.54495 -5410.20757,-6843.01275C-5409.35337,-6845.48045 -5409.27677,-6848.21115 -5409.99127,-6850.72285L-5408.11957,-6863.02255C-5408.10857,-6865.72845 -5408.46967,-6868.43565 -5409.18917,-6871.04415C-5410.75707,-6876.72895 -5414.06187,-6881.92215 -5418.54757,-6885.75025C-5422.36067,-6887.40055 -5426.19357,-6889.00495 -5430.04517,-6890.56315C-5432.97567,-6891.74865 -5435.91707,-6892.90745 -5438.86877,-6894.03915L-5447.42517,-6893.50445C-5450.34317,-6892.37235 -5453.28527,-6891.30255 -5456.24877,-6890.29575C-5457.04937,-6890.02375 -5457.85157,-6889.75635 -5458.65527,-6889.49365"/>
   <g id="imagebot_5">
    <path fill="#ffff00" fill-rule="evenodd" d="M-5438.86914,-6893.23682L-5408.11984,-6866.49842C-5401.64654,-6880.30712 -5417.68234,-6902.72852 -5438.86914,-6893.23682" id="imagebot_9"/>
    <path fill="#ff0000" fill-rule="evenodd" d="M-5413.25,-6888.71875L-5419.5084,-6877.17175L-5410.7965,-6868.76015L-5411.0244,-6886.06655L-5413,-6888.43745C-5413.086,-6888.52945 -5413.1629,-6888.62845 -5413.25,-6888.71875z" id="imagebot_8"/>
    <path fill="#0000ff" fill-rule="evenodd" id="imagebot_7" d="M-5417.89258,-6893.15088L-5427.80698,-6883.80508L-5434.74788,-6890.02848L-5421.29278,-6894.14218C-5421.18558,-6894.07618 -5417.99838,-6893.21828 -5417.89258,-6893.15088z"/>
    <path fill="#ffb500" fill-rule="evenodd" id="imagebot_6" d="M-5438.86865,-6893.2373C-5438.92465,-6893.3203 -5438.67615,-6893.5463 -5438.10335,-6893.8838C-5437.53055,-6894.2212 -5436.63115,-6894.6706 -5435.38475,-6895.1173C-5434.13835,-6895.5641 -5432.54135,-6896.0087 -5430.61855,-6896.2448C-5428.69565,-6896.481 -5426.44415,-6896.5076 -5423.98585,-6896.0321C-5422.01265,-6895.6415 -5419.94665,-6894.9289 -5417.92535,-6893.8463C-5415.90415,-6892.7637 -5413.92875,-6891.3105 -5412.17335,-6889.5084C-5412.17335,-6889.5084 -5412.17335,-6889.5084 -5412.17335,-6889.5084C-5409.25925,-6886.5259 -5406.90925,-6882.5847 -5405.83845,-6878.1632C-5405.22495,-6874.09661 -5405.80145,-6869.5751 -5407.94355,-6865.6643C-5412.30845,-6869.3064 -5416.57005,-6872.8857 -5420.42785,-6876.1756C-5424.28575,-6879.4655 -5427.73705,-6882.4641 -5430.55115,-6884.9785C-5433.36525,-6887.4929 -5435.54085,-6889.5217 -5436.95055,-6890.9304C-5438.36035,-6892.3392 -5439.00445,-6893.1268 -5438.86875,-6893.2366C-5438.77875,-6893.3862 -5437.90975,-6892.8579 -5436.34505,-6891.68021C-5434.78035,-6890.5025 -5432.52205,-6888.6758 -5429.73025,-6886.31551C-5426.93845,-6883.95521 -5423.61505,-6881.06281 -5419.96845,-6877.82701C-5416.32175,-6874.59131 -5412.35335,-6871.01431 -5408.29635,-6867.33291C-5407.17405,-6870.38521 -5407.42995,-6874.10071 -5408.59005,-6877.51041C-5409.49165,-6881.40381 -5411.53015,-6884.95351 -5414.07085,-6887.70251C-5414.07085,-6887.70251 -5414.07085,-6887.70251 -5414.07085,-6887.70251C-5415.59815,-6889.34981 -5417.32315,-6890.71191 -5419.09685,-6891.75761C-5420.87045,-6892.80331 -5422.69185,-6893.53271 -5424.44655,-6893.97851C-5426.62145,-6894.54241 -5428.68115,-6894.66011 -5430.48285,-6894.59081C-5432.28445,-6894.52181 -5433.83045,-6894.26571 -5435.07075,-6894.00831C-5436.31105,-6893.75101 -5437.24925,-6893.49171 -5437.88195,-6893.33911C-5438.51465,-6893.18641 -5438.84425,-6893.14031 -5438.86865,-6893.23731z"/>
   </g>
   <path fill="#000000" fill-rule="evenodd" id="imagebot_4" d="M-5421.75635,-6902.59521L-5420.41945,-6903.66471L-5396.88955,-6881.73921L-5400.09815,-6880.40231L-5421.75635,-6902.59521"/>
  </g>
  <title>Capa 1</title>
 </g>
</svg>