<svg width="300" height="220" xmlns="http://www.w3.org/2000/svg" xmlns:xlink="http://www.w3.org/1999/xlink">
 <defs>
  <linearGradient id="imagebot_56">
   <stop stop-color="#bc2421" id="imagebot_78" offset="0"/>
   <stop stop-color="#bc2421" stop-opacity="0" id="imagebot_77" offset="1"/>
  </linearGradient>
  <linearGradient id="imagebot_57">
   <stop stop-color="#ffffff" id="imagebot_76" offset="0"/>
   <stop stop-color="#ffffff" stop-opacity="0" id="imagebot_75" offset="1"/>
  </linearGradient>
  <linearGradient id="imagebot_58">
   <stop stop-color="#d03c30" id="imagebot_74" offset="0"/>
   <stop stop-color="#d03c30" stop-opacity="0" id="imagebot_73" offset="1"/>
  </linearGradient>
  <linearGradient id="imagebot_59">
   <stop stop-color="#761613" id="imagebot_72" offset="0"/>
   <stop stop-color="#821815" stop-opacity="0" id="imagebot_71" offset="1"/>
  </linearGradient>
  <linearGradient id="imagebot_55">
   <stop stop-color="#ec291e" stop-opacity="0.86957" id="imagebot_70" offset="0"/>
   <stop stop-color="#ed4728" stop-opacity="0" id="imagebot_69" offset="1"/>
  </linearGradient>
  <linearGradient id="imagebot_61">
   <stop stop-color="#ffffff" id="imagebot_68" offset="0"/>
   <stop stop-color="#ffffff" stop-opacity="0" id="imagebot_67" offset="1"/>
  </linearGradient>
  <clipPath clipPathUnits="userSpaceOnUse" id="imagebot_10">
   <path d="M331.28516,352.5L345.75,352.5L345.75,333.16113L331.28516,333.16113L331.28516,352.5z" id="imagebot_66"/>
  </clipPath>
  <clipPath clipPathUnits="userSpaceOnUse" id="imagebot_20">
   <path d="M387.6543,342.75977L395.98633,342.75977L395.98633,340.35693L387.6543,340.35693L387.6543,342.75977z" id="imagebot_65"/>
  </clipPath>
  <clipPath clipPathUnits="userSpaceOnUse" id="imagebot_26">
   <path d="M360.21729,317.53564L364.95508,317.53564L364.95508,311.7124L360.21729,311.7124L360.21729,317.53564z" id="imagebot_64"/>
  </clipPath>
  <clipPath clipPathUnits="userSpaceOnUse" id="imagebot_32">
   <path d="M340.44922,313.57959L383.58545,313.57959L383.58545,297.84082L340.44922,297.84082L340.44922,313.57959z" id="imagebot_63"/>
  </clipPath>
  <clipPath clipPathUnits="userSpaceOnUse" id="imagebot_47">
   <path d="M320.2832,366.29883L364.03516,366.29883L364.03516,307.75635L320.2832,307.75635L320.2832,366.29883z" id="imagebot_62"/>
  </clipPath>
  <linearGradient y2="0.05717" x2="0.54509" y1="1.12493" x1="0.58151" id="imagebot_35" xlink:href="#imagebot_61"/>
  <linearGradient y2="-0.34766" x2="0.8619" y1="1.18208" x1="0.47545" id="imagebot_40" xlink:href="#imagebot_59"/>
  <linearGradient y2="0.13478" x2="0.53391" y1="0.43494" x1="0.72019" id="imagebot_42" xlink:href="#imagebot_58"/>
  <linearGradient y2="0.42107" x2="0.48077" y1="1.78946" x1="0.14422" id="imagebot_4" xlink:href="#imagebot_57"/>
  <linearGradient y2="0.74781" x2="0.49968" y1="0.6003" x1="0.50283" id="imagebot_38" xlink:href="#imagebot_56"/>
  <linearGradient y2="0.18218" x2="0.59019" y1="0.97271" x1="0.64179" id="imagebot_16" xlink:href="#imagebot_55"/>
 </defs>
 <metadata id="imagebot_54">image/svg+xml</metadata>
 <g id="imagebot_2" label="Layer 1">
  <g id="imagebot_5" label="lambe aacopy" transform="translate(-118.633, -115.664) matrix(3.00701, 1.11222, 1.1527, -2.90142, -1194.87, 797.776)">
   <g id="imagebot_6" transform="scale(1,-1)">
    <path fill="#d02925" fill-rule="nonzero" d="M401.32813,-348.77637C401.32813,-348.77637 409.65819,-340.44434 405.31152,-329.94043C385.24317,-302.36445 358.32069,-288.54582 320.19286,-304.2251C320.19286,-304.2251 329.24804,-310.38184 329.24804,-310.38184C329.24804,-310.38184 384.66601,-342.25635 384.66601,-342.25635C384.66601,-342.25635 391.18554,-359.09961 401.32812,-348.77637z" id="imagebot_53"/>
    <path fill="#231f20" fill-rule="nonzero" d="M325.62598,-308.2085C325.62598,-308.2085 333.86572,-322.96924 333.86572,-322.96924C333.86572,-322.96924 339.98318,-323.20559 341.92578,-325.23242C343.27973,-326.64508 343.37402,-331.02734 343.37402,-331.02734C343.37402,-331.02734 348.80762,-323.06055 352.79199,-324.87061C356.77637,-326.68066 362.93408,-331.39063 362.93408,-331.39063C362.93408,-331.39063 363.29639,-334.65039 363.29639,-334.65039C363.29639,-334.65039 365.83252,-332.11426 367.64307,-333.20068C369.45313,-334.2876 375.82637,-335.96589 377.75,-339.5C378.96508,-341.73236 377.75,-347.25 377.75,-347.25C377.75,-347.25 378.5083,-346.96387 380.31934,-349.5C382.13135,-352.03613 386.83936,-350.58643 387.92627,-348.41357C389.01318,-346.24023 387.56299,-341.89404 384.66602,-339.3584C381.76953,-336.82324 371.98926,-332.11426 363.6582,-327.40576C355.32715,-322.69727 348.44531,-316.53857 341.92578,-313.64209C335.40625,-310.74414 328.16211,-308.2085 325.62597,-308.2085z" id="imagebot_52"/>
    <path fill="#981d1a" fill-rule="nonzero" d="M319.10693,-307.84668C323.0967,-327.63998 328.98943,-351.05746 345.91016,-363.26465C350.61865,-366.1626 357.13867,-365.43848 360.39893,-368.33545C363.6582,-371.2334 366.01221,-375.85205 371.08301,-377.30029C382.85129,-378.95856 397.72805,-371.11582 398.52051,-357.74121C398.21387,-356.5166 399.06348,-354.48096 396.34766,-352.57959C395.64355,-352.0874 391.18555,-349.86279 391.18555,-349.86279C391.18555,-349.86279 387.92627,-348.41357 387.92627,-348.41357C387.92627,-348.41357 384.9375,-356.11084 373.43848,-354.57129C370.37061,-354.16064 367.55176,-349.04785 361.12305,-348.41357C357.44727,-348.05078 346.99561,-340.08252 344.46094,-336.46094C341.92578,-332.83936 326.53223,-307.75635 326.53223,-307.75635C326.53223,-307.75635 320.19287,-304.2251 320.19287,-304.2251C320.19287,-304.2251 319.10693,-307.84668 319.10693,-307.84668z" id="imagebot_51"/>
    <g id="imagebot_44" transform="scale(1,-1)">
     <g id="imagebot_50"/>
     <g id="imagebot_45">
      <g opacity="0.31" clip-path="url(#imagebot_47)" id="imagebot_46">
       <g transform="scale(1,-1)" id="imagebot_48">
        <path fill="#db5a5a" fill-rule="nonzero" d="M320.2832,-307.75635C320.2832,-307.75635 328.16113,-342.25635 339.02832,-348.50439C349.89453,-354.75293 362.11816,-358.55615 363.74854,-361.27246C365.37842,-363.98926 359.67383,-366.97754 356.41357,-366.1626C353.15332,-365.34766 330.87793,-365.34766 320.2832,-307.75635z" id="imagebot_49"/>
       </g>
      </g>
     </g>
    </g>
    <path fill="#a8201d" fill-rule="nonzero" d="M322.18506,-306.94092C322.18506,-306.94092 329.79102,-345.5166 342.55957,-351.76465C348.6001,-354.7207 365.13135,-361.54492 364.83496,-362.63086C364.02051,-365.61914 362.11816,-370.2373 367.00879,-373.76855C371.89795,-377.30029 379.23242,-377.57227 384.9375,-374.5835C396.91186,-369.77175 406.25261,-352.99868 388.19727,-350.94971C385.52441,-351.06641 378.96143,-356.6543 374.34326,-355.02441C369.72559,-353.39453 379.77588,-362.90234 380.04834,-365.61914C380.31934,-368.33545 358.8584,-347.96191 358.8584,-347.96191C358.8584,-347.96191 347.17773,-344.1582 342.55957,-335.19336C337.94141,-326.22852 327.89014,-311.2876 322.18506,-306.94092z" id="imagebot_43"/>
    <path fill="url(#imagebot_42)" fill-rule="nonzero" d="M320.19238,-306.76025C320.19238,-306.76025 328.88525,-346.96484 344.09814,-352.03613C359.31201,-357.10742 368.36572,-364.71338 367.64258,-367.97363C366.91797,-371.2334 369.45313,-366.52539 357.50049,-361.0918C345.54736,-355.6582 329.97217,-353.12158 320.19238,-306.76025z" id="imagebot_41"/>
    <path fill="url(#imagebot_40)" fill-rule="nonzero" d="M388.04065,-348.96005C388.04065,-348.96005 393.90234,-352.3081 395.53223,-355.29589C397.16211,-358.28466 390.64209,-362.63085 381.67822,-361.54394C372.71338,-360.458 370.64046,-354.27101 369.55501,-353.45655C368.4681,-352.64161 379.65012,-359.2257 388.04065,-348.96005z" id="imagebot_39"/>
    <path fill="url(#imagebot_38)" fill-rule="nonzero" d="M401.78027,-327.04395C401.78027,-327.04395 403.13965,-339.26855 395.26123,-338.7251C387.38281,-338.18164 378.41797,-331.93311 375.43018,-328.94531C372.44141,-325.95703 357.50049,-311.01659 346.90527,-308.5708C336.31152,-306.12646 325.17334,-306.66943 325.17334,-306.66943C325.17334,-306.66943 353.42578,-318.89453 369.99658,-330.5752C386.56738,-342.25635 388.46973,-347.68994 388.46973,-347.68994C388.46973,-347.68994 411.28906,-359.37109 401.78027,-327.04395z" id="imagebot_37"/>
    <g id="imagebot_29" transform="scale(1,-1)">
     <g id="imagebot_36"/>
     <g id="imagebot_30">
      <g opacity="0.36" clip-path="url(#imagebot_32)" id="imagebot_31">
       <g transform="scale(1,-1)" id="imagebot_33">
        <path fill="url(#imagebot_35)" fill-rule="nonzero" d="M375.43018,-307.75635C375.43018,-307.75635 377.60352,-315.3623 372.16992,-313.18896C366.73633,-311.0166 365.92188,-307.75635 364.83496,-306.66943C363.74854,-305.58301 356.68555,-305.58301 356.68555,-305.58301C356.68555,-305.58301 357.50049,-310.20117 357.50049,-310.20117C357.50049,-310.20117 349.62207,-302.05176 342.83057,-300.69287C336.03906,-299.33496 345.54736,-296.07422 349.35107,-299.06348C353.15332,-302.05176 354.24023,-304.49609 354.24023,-304.49609C354.24023,-304.49609 371.89795,-306.12646 366.19287,-303.40967C360.48828,-300.69287 356.68554,-300.69287 360.48828,-300.69287C364.29199,-300.69287 372.98438,-300.96484 380.31934,-307.48438C387.6543,-314.00439 381.13477,-309.11426 375.43018,-307.75635z" id="imagebot_34"/>
       </g>
      </g>
     </g>
    </g>
    <g id="imagebot_23" transform="scale(1,-1)">
     <g id="imagebot_28"/>
     <g id="imagebot_24">
      <g opacity="0.64" clip-path="url(#imagebot_26)" id="imagebot_25">
       <g transform="scale(1,-1)" id="imagebot_27"/>
      </g>
     </g>
    </g>
    <g id="imagebot_17" transform="scale(1,-1)">
     <g id="imagebot_22"/>
     <g id="imagebot_18">
      <g opacity="0.64" clip-path="url(#imagebot_20)" id="imagebot_19">
       <g transform="scale(1,-1)" id="imagebot_21"/>
      </g>
     </g>
    </g>
    <path fill="url(#imagebot_16)" fill-rule="nonzero" d="M321.54892,-305.18515C321.54892,-305.18515 368.65932,-296.99606 375.43938,-316.86869C388.11712,-330.99515 385.38917,-337.91017 389.73634,-337.91017C394.08302,-337.91017 359.79575,-308.3106 321.54892,-305.18515z" id="imagebot_15"/>
    <path fill="#ffffff" fill-rule="nonzero" d="M362.40009,-314.89441C362.40009,-314.89441 381.25001,-327.74999 383.75001,-330.49999C386.25001,-333.24999 368.15009,-317.39441 362.40009,-314.89441z" id="imagebot_14"/>
    <g id="imagebot_7" transform="scale(1,-1)">
     <g id="imagebot_13"/>
     <g id="imagebot_8">
      <g opacity="0.5" clip-path="url(#imagebot_10)" id="imagebot_9">
       <g transform="scale(1,-1)" id="imagebot_11">
        <path fill="#f57801" fill-rule="nonzero" d="M345.75,-352.5C345.75,-352.5 333.25,-341 331.75,-334.75C330.25,-328.5 331.75,-342 345.75,-352.5z" id="imagebot_12"/>
       </g>
      </g>
     </g>
    </g>
   </g>
  </g>
  <path label="Layer 1" fill="url(#imagebot_4)" stroke-width="1px" transform="translate(-118.633, -115.664) matrix(-1.26923, 0, 0, -1.28947, 575.71, 762.814)" d="M268.1955,416.47116C268.1955,427.07111 256.43672,435.66406 241.93153,435.66406C227.42635,435.66406 215.66757,427.07111 215.66757,416.47116C215.66757,405.87122 227.42635,397.27826 241.93153,397.27826C256.43672,397.27826 268.1955,405.87122 268.1955,416.47116z" id="imagebot_3"/>
  <title>Layer 1</title>
 </g>
</svg>