<?xml version="1.0" encoding="UTF-8" standalone="no"?>
<!-- Created with Inkscape (http://www.inkscape.org/) -->

<svg
   xmlns:dc="http://purl.org/dc/elements/1.1/"
   xmlns:cc="http://creativecommons.org/ns#"
   xmlns:rdf="http://www.w3.org/1999/02/22-rdf-syntax-ns#"
   xmlns:svg="http://www.w3.org/2000/svg"
   xmlns="http://www.w3.org/2000/svg"
   xmlns:xlink="http://www.w3.org/1999/xlink"
   xmlns:sodipodi="http://sodipodi.sourceforge.net/DTD/sodipodi-0.dtd"
   xmlns:inkscape="http://www.inkscape.org/namespaces/inkscape"
   width="993.57874"
   height="551.19684"
   id="svg59081"
   version="1.1"
   inkscape:version="0.48.3.1 r9886"
   sodipodi:docname="program-from-2.svg"
   inkscape:export-filename="/home/ioo/projet/prez/img/program-from-2.png"
   inkscape:export-xdpi="76.088974"
   inkscape:export-ydpi="76.088974">
  <defs
     id="defs59083">
    <linearGradient
       id="imagebot_73">
      <stop
         offset="0"
         id="imagebot_75"
         stop-color="#b2997c" />
      <stop
         offset="1"
         id="imagebot_74"
         stop-opacity="0"
         stop-color="#b2997c" />
    </linearGradient>
    <linearGradient
       xlink:href="#imagebot_73"
       id="imagebot_29"
       x1="-5554.6445"
       y1="-6940.0293"
       x2="-5551.4688"
       y2="-6940.0293"
       gradientUnits="userSpaceOnUse"
       gradientTransform="matrix(0,1.2479557,-1.2479557,0,-14210.234,-2.6761647)" />
    <linearGradient
       id="imagebot_76">
      <stop
         offset="0"
         id="imagebot_78"
         stop-color="#217d17" />
      <stop
         offset="1"
         id="imagebot_77"
         stop-color="#185412" />
    </linearGradient>
    <linearGradient
       xlink:href="#imagebot_76"
       id="imagebot_48"
       x1="-5685.2295"
       y1="-6678.5532"
       x2="-5630.9702"
       y2="-6638.519"
       gradientTransform="matrix(0.75100011,0,0,0.78482899,-1302.6218,-1606.6617)"
       gradientUnits="userSpaceOnUse" />
    <linearGradient
       xlink:href="#imagebot_65-2"
       id="imagebot_16"
       x1="170.52518"
       y1="132.88805"
       x2="170.52518"
       y2="238.63972"
       gradientTransform="matrix(2.3996601,0,0,0.49954237,-103.82882,23.770067)"
       gradientUnits="userSpaceOnUse" />
    <linearGradient
       xlink:href="#imagebot_66-1"
       id="imagebot_26-6"
       x1="339.89764"
       y1="131.39024"
       x2="344.46442"
       y2="63.56411"
       gradientTransform="scale(0.50031756,1.9987306)"
       gradientUnits="userSpaceOnUse" />
    <linearGradient
       xlink:href="#imagebot_66-1"
       id="imagebot_29-2"
       x1="339.7746"
       y1="132.08151"
       x2="344.33957"
       y2="64.231659"
       gradientTransform="scale(0.50049893,1.9980063)"
       gradientUnits="userSpaceOnUse" />
    <linearGradient
       xlink:href="#imagebot_66-1"
       id="imagebot_32-2"
       x1="339.7746"
       y1="131.75926"
       x2="344.33957"
       y2="63.909405"
       gradientTransform="scale(0.50049893,1.9980063)"
       gradientUnits="userSpaceOnUse" />
    <linearGradient
       xlink:href="#imagebot_66-1"
       id="imagebot_34-8"
       x1="339.7746"
       y1="132.08151"
       x2="344.33957"
       y2="64.231659"
       gradientTransform="scale(0.50049893,1.9980063)"
       gradientUnits="userSpaceOnUse" />
    <linearGradient
       xlink:href="#imagebot_67-6"
       id="imagebot_40-2"
       x1="18.552362"
       y1="3512.8923"
       x2="64.503738"
       y2="3487.9397"
       gradientTransform="scale(7.1381973,0.14009139)"
       gradientUnits="userSpaceOnUse" />
    <linearGradient
       xlink:href="#imagebot_68-6"
       id="imagebot_42"
       x1="62.078026"
       y1="2246.6011"
       x2="62.078026"
       y2="2455.7629"
       gradientTransform="scale(4.670071,0.21412951)"
       gradientUnits="userSpaceOnUse" />
    <linearGradient
       xlink:href="#imagebot_69-4"
       id="imagebot_19"
       x1="28.035507"
       y1="847.64648"
       x2="75.321243"
       y2="847.64648"
       gradientTransform="matrix(4.9189946,0,0,0.16053046,39.280996,23.770067)"
       gradientUnits="userSpaceOnUse" />
    <linearGradient
       xlink:href="#imagebot_68-6"
       id="imagebot_21-7"
       x1="72.835197"
       y1="567.18365"
       x2="72.835197"
       y2="767.92401"
       gradientTransform="matrix(3.4846765,0,0,0.22660596,39.280996,23.770067)"
       gradientUnits="userSpaceOnUse" />
    <linearGradient
       xlink:href="#imagebot_70-4"
       id="imagebot_44"
       x1="249.31999"
       y1="480.20667"
       x2="319.25119"
       y2="480.20667"
       gradientTransform="matrix(1.1690515,0,0,0.67546081,39.280996,23.770067)"
       gradientUnits="userSpaceOnUse" />
    <linearGradient
       xlink:href="#imagebot_71-4"
       id="imagebot_46-6"
       x1="242.41245"
       y1="595.94269"
       x2="243.93137"
       y2="479.01407"
       gradientTransform="matrix(1.3171659,0,0,0.5995057,39.280996,23.770067)"
       gradientUnits="userSpaceOnUse" />
    <linearGradient
       xlink:href="#imagebot_68-6"
       id="imagebot_48-6"
       x1="291.36533"
       y1="525.32214"
       x2="206.0173"
       y2="525.88934"
       gradientTransform="matrix(1.2802599,0,0,0.61678764,39.280996,23.770067)"
       gradientUnits="userSpaceOnUse" />
    <radialGradient
       xlink:href="#imagebot_70-4"
       id="imagebot_50-0"
       cx="238.16443"
       cy="343.37595"
       fx="238.16443"
       fy="343.37595"
       r="30.765631"
       gradientTransform="matrix(-0.73954512,2.2351554,-0.88862136,-0.29401457,718.24998,-90.625497)"
       gradientUnits="userSpaceOnUse" />
    <radialGradient
       xlink:href="#imagebot_71-4"
       id="imagebot_52-3"
       cx="228.29497"
       cy="376.28073"
       fx="228.29497"
       fy="376.28073"
       r="32.98085"
       gradientTransform="matrix(0.07378666,3.598968,-1.7985277,0.03687703,894.93235,-460.23262)"
       gradientUnits="userSpaceOnUse" />
    <linearGradient
       xlink:href="#imagebot_68-6"
       id="imagebot_54-3"
       x1="355.02188"
       y1="302.901"
       x2="248.79436"
       y2="303.49356"
       gradientTransform="matrix(0.64716233,0,0,1.2201706,39.280996,23.770067)"
       gradientUnits="userSpaceOnUse" />
    <linearGradient
       xlink:href="#imagebot_68-6"
       id="imagebot_58"
       x1="212.99152"
       y1="496.83258"
       x2="318.29068"
       y2="496.83258"
       gradientTransform="matrix(1.2095155,0,0,0.65286347,39.280996,23.770067)"
       gradientUnits="userSpaceOnUse" />
    <linearGradient
       xlink:href="#imagebot_68-6"
       id="imagebot_56"
       x1="236.09866"
       y1="302.46344"
       x2="352.51889"
       y2="302.46344"
       gradientTransform="matrix(0.66510789,0,0,1.1872487,39.280996,23.770067)"
       gradientUnits="userSpaceOnUse" />
    <linearGradient
       xlink:href="#imagebot_66-1"
       id="imagebot_60"
       x1="247.34558"
       y1="338.83813"
       x2="247.34558"
       y2="582.19427"
       gradientTransform="matrix(1.0883349,0,0,0.72555656,39.280996,23.770067)"
       gradientUnits="userSpaceOnUse" />
    <linearGradient
       id="imagebot_66-1">
      <stop
         offset="0"
         id="imagebot_73-9"
         stop-color="#e9e9ea" />
      <stop
         offset="1"
         id="imagebot_72"
         stop-color="#ffffff" />
    </linearGradient>
    <linearGradient
       id="imagebot_67-6">
      <stop
         offset="0"
         id="imagebot_75-4"
         stop-color="#eeeeee" />
      <stop
         offset="1"
         id="imagebot_74-0"
         stop-opacity="0"
         stop-color="#eeeeee" />
    </linearGradient>
    <linearGradient
       id="imagebot_68-6">
      <stop
         id="imagebot_77-7"
         offset="0"
         stop-color="#888888" />
      <stop
         id="imagebot_76-5"
         offset="1"
         stop-color="#333333" />
    </linearGradient>
    <linearGradient
       id="imagebot_71-4">
      <stop
         offset="0"
         id="imagebot_79"
         stop-color="#ededed" />
      <stop
         offset="1"
         id="imagebot_78-3"
         stop-color="#0169c8" />
    </linearGradient>
    <linearGradient
       id="imagebot_70-4">
      <stop
         offset="0"
         id="imagebot_81"
         stop-opacity="0.84444"
         stop-color="#eeeeee" />
      <stop
         offset="1"
         id="imagebot_80"
         stop-opacity="0"
         stop-color="#eeeeee" />
    </linearGradient>
    <linearGradient
       id="imagebot_69-4">
      <stop
         id="imagebot_84"
         offset="0"
         stop-color="#aaaaaa" />
      <stop
         offset="0.48044"
         id="imagebot_83"
         stop-color="#ededed" />
      <stop
         id="imagebot_82"
         offset="1"
         stop-opacity="0"
         stop-color="#eeeeee" />
    </linearGradient>
    <linearGradient
       id="imagebot_65-2">
      <stop
         id="imagebot_86"
         offset="0"
         stop-color="#dadadb" />
      <stop
         id="imagebot_85"
         offset="1"
         stop-color="#ffffff" />
    </linearGradient>
  </defs>
  <sodipodi:namedview
     inkscape:document-units="mm"
     pagecolor="#ffffff"
     bordercolor="#666666"
     borderopacity="1.0"
     inkscape:pageopacity="0.0"
     inkscape:pageshadow="2"
     inkscape:zoom="0.43415836"
     inkscape:cx="597.34095"
     inkscape:cy="259.16474"
     inkscape:current-layer="imagebot_4"
     id="namedview59085"
     showgrid="false"
     inkscape:window-width="1366"
     inkscape:window-height="721"
     inkscape:window-x="-2"
     inkscape:window-y="-3"
     inkscape:window-maximized="1"
     units="mm"
     fit-margin-top="0"
     fit-margin-left="0"
     fit-margin-right="0"
     fit-margin-bottom="0" />
  <metadata
     id="metadata59087">
    <rdf:RDF>
      <cc:Work
         rdf:about="">
        <dc:format>image/svg+xml</dc:format>
        <dc:type
           rdf:resource="http://purl.org/dc/dcmitype/StillImage" />
        <dc:title></dc:title>
      </cc:Work>
    </rdf:RDF>
  </metadata>
  <g
     inkscape:label="Layer 1"
     inkscape:groupmode="layer"
     id="layer1"
     transform="translate(-24.460564,-72.062379)">
    <g
       label="Capa 1"
       id="imagebot_2"
       transform="translate(19.847292,42.196821)">
      <g
         id="imagebot_3"
         transform="matrix(3.05784,0,0,3.05784,17168.756,21374.402)"
         label="Capa 1">
        <path
           d="m -5611.2046,-6825.6043 86.9179,14.1674 57.0769,-52.0357 -62.339,-109.6324 -83.6104,39.8293 1.9546,107.6714"
           id="imagebot_71"
           inkscape:connector-curvature="0"
           style="fill:#00b9ff;fill-rule:evenodd" />
        <path
           id="imagebot_70"
           d="m -5515.1466,-6927.5097 c 0,18.8708 -15.2932,34.1639 -34.1639,34.1639 -18.8708,0 -34.164,-15.2931 -34.164,-34.1639 0,-18.863 15.2932,-34.1639 34.164,-34.1639 18.8707,0 34.1639,15.3009 34.1639,34.1639 z"
           inkscape:connector-curvature="0"
           style="fill:#ffdcb2;fill-rule:evenodd" />
        <g
           id="imagebot_66"
           transform="matrix(-0.76772823,0,0,0.76772823,-9799.0525,-1606.6617)">
          <path
             id="imagebot_69"
             d="m -5577.7334,-6937.3603 c -32.1384,-5.4857 -11.7017,32.0361 0.954,20.0328"
             inkscape:connector-curvature="0"
             style="fill:#ffdcb2;fill-rule:evenodd" />
          <path
             d="m -5578.3647,-6919.7544 c 0.1248,0.1088 -0.088,0.5979 -0.8273,1.3058 -0.3695,0.3539 -0.8756,0.7556 -1.5492,1.122 -0.6736,0.3664 -1.5161,0.6983 -2.5379,0.8525 -1.6815,0.2284 -3.7279,-0.076 -5.6566,-1.055 -1.6705,-0.8402 -3.3041,-2.0798 -4.7052,-3.6659 -1.4012,-1.586 -2.5658,-3.515 -3.345,-5.5974 0,0 0,0 0,0 -0.7133,-1.8481 -1.1021,-3.9136 -0.9251,-5.9829 0.1761,-2.0204 1.0243,-3.9556 2.3901,-5.3879 1.8727,-1.8701 4.2155,-2.6581 6.2372,-2.9427 1.6002,-0.236 3.0518,-0.2368 4.3072,-0.1444 1.2554,0.092 2.3155,0.278 3.1601,0.4713 1.6891,0.3866 2.5119,0.7802 2.455,0.9936 -0.016,0.2203 -0.9214,0.2648 -2.5964,0.277 -0.8375,0.01 -1.8641,0.01 -3.033,0.083 -1.1689,0.073 -2.4798,0.2169 -3.859,0.5584 -1.7007,0.4368 -3.5492,1.1527 -4.7187,2.5319 -0.8817,0.9683 -1.4122,2.3584 -1.5291,3.7983 -0.1289,1.542 0.2082,3.181 0.773,4.7491 0,0 0,0 0,0 0.6654,1.7798 1.6146,3.451 2.7414,4.8504 1.127,1.3994 2.4297,2.5236 3.7797,3.3247 1.5124,0.891 3.062,1.3323 4.3783,1.3199 0.7891,0.01 1.5064,-0.1423 2.1232,-0.3329 0.6167,-0.1906 1.1341,-0.4215 1.5517,-0.6194 0.835,-0.3959 1.2831,-0.6391 1.3856,-0.5092 z"
             id="imagebot_68"
             inkscape:connector-curvature="0"
             style="fill:#b2997c;fill-rule:evenodd" />
          <path
             id="imagebot_67"
             d="m -5585.34,-6927.78 c 0,0 0,0 -0.01,0 0,0 0,0 0,0 -0.15,-0.01 -0.24,-0.33 -0.28,-0.94 -0.03,-0.61 0,-1.51 0.1,-2.51 0.39,-0.9 1.3,-1.65 2.36,-1.78 0.71,-0.03 1.35,0.12 1.88,0.33 0.54,0.21 0.97,0.49 1.3,0.75 0.66,0.51 0.91,0.91 0.81,1.05 -0.08,0.14 -0.55,0.03 -1.27,-0.22 -0.73,-0.25 -1.68,-0.65 -2.6,-0.51 -0.48,-0.01 -0.96,0.34 -1.22,0.77 -0.16,0.87 -0.35,1.64 -0.54,2.19 -0.19,0.55 -0.38,0.87 -0.52,0.87 0,0 0,0 0,0 -0.02,0 -0.01,0 -0.01,0 l 0,0 z"
             inkscape:connector-curvature="0"
             style="fill:#b2997c;fill-rule:evenodd" />
        </g>
        <g
           id="imagebot_62"
           transform="matrix(0.76772823,0,0,0.76772823,-1302.6218,-1606.6617)">
          <path
             d="m -5577.7334,-6937.3603 c -32.1384,-5.4857 -11.7017,32.0361 0.954,20.0328"
             id="imagebot_65"
             inkscape:connector-curvature="0"
             style="fill:#ffdcb2;fill-rule:evenodd" />
          <path
             id="imagebot_64"
             d="m -5578.3647,-6919.7544 c 0.1248,0.1088 -0.088,0.5979 -0.8273,1.3058 -0.3695,0.3539 -0.8756,0.7556 -1.5492,1.122 -0.6736,0.3664 -1.5161,0.6983 -2.5379,0.8525 -1.6815,0.2284 -3.7279,-0.076 -5.6566,-1.055 -1.6705,-0.8402 -3.3041,-2.0798 -4.7052,-3.6659 -1.4012,-1.586 -2.5658,-3.515 -3.345,-5.5974 0,0 0,0 0,0 -0.7133,-1.8481 -1.1021,-3.9136 -0.9251,-5.9829 0.1761,-2.0204 1.0243,-3.9556 2.3901,-5.3879 1.8727,-1.8701 4.2155,-2.6581 6.2372,-2.9427 1.6002,-0.236 3.0518,-0.2368 4.3072,-0.1444 1.2554,0.092 2.3155,0.278 3.1601,0.4713 1.6891,0.3866 2.5119,0.7802 2.455,0.9936 -0.016,0.2203 -0.9214,0.2648 -2.5964,0.277 -0.8375,0.01 -1.8641,0.01 -3.033,0.083 -1.1689,0.073 -2.4798,0.2169 -3.859,0.5584 -1.7007,0.4368 -3.5492,1.1527 -4.7187,2.5319 -0.8817,0.9683 -1.4122,2.3584 -1.5291,3.7983 -0.1289,1.542 0.2082,3.181 0.773,4.7491 0,0 0,0 0,0 0.6654,1.7798 1.6146,3.451 2.7414,4.8504 1.127,1.3994 2.4297,2.5236 3.7797,3.3247 1.5124,0.891 3.062,1.3323 4.3783,1.3199 0.7891,0.01 1.5064,-0.1423 2.1232,-0.3329 0.6167,-0.1906 1.1341,-0.4215 1.5517,-0.6194 0.835,-0.3959 1.2831,-0.6391 1.3856,-0.5092 z"
             inkscape:connector-curvature="0"
             style="fill:#b2997c;fill-rule:evenodd" />
          <path
             d="m -5585.34,-6927.78 c 0,0 0,0 -0.01,0 0,0 0,0 0,0 -0.15,-0.01 -0.24,-0.33 -0.28,-0.94 -0.03,-0.61 0,-1.51 0.1,-2.51 0.39,-0.9 1.3,-1.65 2.36,-1.78 0.71,-0.03 1.35,0.12 1.88,0.33 0.54,0.21 0.97,0.49 1.3,0.75 0.66,0.51 0.91,0.91 0.81,1.05 -0.08,0.14 -0.55,0.03 -1.27,-0.22 -0.73,-0.25 -1.68,-0.65 -2.6,-0.51 -0.48,-0.01 -0.96,0.34 -1.22,0.77 -0.16,0.87 -0.35,1.64 -0.54,2.19 -0.19,0.55 -0.38,0.87 -0.52,0.87 0,0 0,0 0,0 -0.02,0 -0.01,0 -0.01,0 l 0,0 z"
             id="imagebot_63"
             inkscape:connector-curvature="0"
             style="fill:#b2997c;fill-rule:evenodd" />
        </g>
        <path
           d="m -5516.6821,-6929.0451 c -0.069,0.038 -0.1152,-0.5221 -0.238,-1.6583 -0.1228,-1.1286 -0.3224,-2.8406 -0.8368,-5.0363 -0.5221,-2.2034 -1.3666,-4.8981 -2.8406,-7.8462 -1.474,-2.9557 -3.593,-6.1572 -6.6025,-9.1052 -2.687,-2.618 -6.0881,-5.0133 -10.111,-6.7561 -4.0152,-1.7504 -8.6522,-2.8405 -13.535,-2.8098 -4.0766,0.023 -8.3068,0.8368 -12.3374,2.4797 -4.0382,1.643 -7.8692,4.1074 -11.0706,7.3242 -2.9865,3.0018 -5.4125,6.6562 -7.0785,10.6714 -1.6736,4.0075 -2.5872,8.3682 -2.5796,12.7366 0,4.3684 0.906,8.7367 2.5796,12.7443 1.666,4.0075 4.092,7.6619 7.0785,10.6637 3.2014,3.2245 7.0324,5.6889 11.0706,7.3241 4.0306,1.643 8.2608,2.4645 12.3374,2.4875 4.8828,0.031 9.5198,-1.0672 13.535,-2.8099 4.0229,-1.7504 7.424,-4.1381 10.111,-6.7637 3.0095,-2.9404 5.1285,-6.1495 6.6025,-9.0976 1.474,-2.948 2.3185,-5.6504 2.8406,-7.8461 0.5144,-2.2034 0.714,-3.9078 0.8368,-5.044 0.1228,-1.1286 0.1689,-1.689 0.238,-1.6583 0.069,-0.031 0.1459,0.5297 0.1536,1.6813 0.01,1.1516 -0.069,2.902 -0.476,5.1745 -0.3993,2.2802 -1.1516,5.0824 -2.5719,8.184 -1.4203,3.0939 -3.5239,6.4796 -6.6025,9.635 -2.7408,2.8022 -6.257,5.3817 -10.4411,7.2857 -4.1918,1.8963 -9.0515,3.1247 -14.226,3.1554 -4.3223,0.023 -8.8058,-0.7985 -13.0974,-2.5028 -4.284,-1.7044 -8.376,-4.2916 -11.8077,-7.708 -3.2014,-3.1861 -5.804,-7.0631 -7.5852,-11.324 -1.7888,-4.2609 -2.7638,-8.9056 -2.7715,-13.5811 0,-4.6678 0.9827,-9.3126 2.7715,-13.5811 1.7812,-4.2609 4.3838,-8.1379 7.5852,-11.324 3.4317,-3.4164 7.5237,-6.0037 11.8077,-7.708 4.2916,-1.7044 8.7751,-2.5182 13.0974,-2.4951 5.1745,0.031 10.0342,1.2514 14.226,3.1553 4.1841,1.904 7.7003,4.4759 10.4411,7.2858 3.0786,3.1477 5.1822,6.541 6.6025,9.635 1.4203,3.0939 2.1726,5.9038 2.5719,8.1763 0.4069,2.2801 0.4836,4.0229 0.476,5.1821 -0.01,1.1516 -0.084,1.7121 -0.1536,1.6737 z"
           id="imagebot_61"
           inkscape:connector-curvature="0"
           style="fill:#b2997c;fill-rule:evenodd" />
        <path
           d="m -5573.7189,-6844.1711 5.5759,-16.1107 c -1.2191,-3.3021 -4.8543,-5.2749 -10.8434,-4.1237 0.7179,-18.5854 11.9036,-19.0762 16.8272,-20.3363 l 1.465,-6.5358 c -34.4847,7.593 -37.1585,41.9743 -13.0247,47.1065 z"
           id="imagebot_55"
           inkscape:connector-curvature="0"
           style="fill:#ffdcb2" />
        <path
           d="m -5537.7578,-6840.1597 -1.8887,-16.9434 c 1.9168,-2.9523 5.8973,-4.0755 11.4856,-1.6328 3.3952,-18.2868 -7.4073,-21.2303 -11.9323,-23.5445 l 0.011,-6.6979 c 31.9637,15.0055 26.9955,49.1308 2.324,48.8186 z"
           id="imagebot_54"
           inkscape:connector-curvature="0"
           style="fill:#ffdcb2" />
        <path
           id="imagebot_53"
           d="m -5537.7578,-6840.1597 -1.8887,-16.9434 c 1.9168,-2.9523 5.8973,-4.0755 11.4856,-1.6328 3.3952,-18.2868 -7.4073,-21.2303 -11.9323,-23.5445 l 0.011,-6.6979 c 31.9637,15.0055 26.9955,49.1308 2.324,48.8186 z"
           inkscape:connector-curvature="0"
           style="fill:#ffdcb2" />
        <path
           d="m -5558.6901,-6943.1605 c 6.1662,8.5441 30.477,1.3104 52.658,-4.0715 -23.8499,-27.1835 -52.4855,-25.6393 -65.1439,-10.3145 -26.3664,6.3305 -19.5685,19.2049 -11.7868,22.357 4.4781,-7.0427 10.0361,-14.9975 24.2727,-7.971"
           id="imagebot_52"
           inkscape:connector-curvature="0"
           style="fill:#13470d" />
        <path
           id="imagebot_51"
           d="m -5574.3078,-6845.4088 c 0,0 0,0 -0.01,0.031 -0.1842,-0.01 -0.6602,-0.069 -1.4279,-0.2457 -0.7678,-0.1765 -1.8272,-0.4529 -3.1093,-0.9596 -1.2898,-0.499 -2.8176,-1.2207 -4.4068,-2.3186 -1.5892,-1.0978 -3.2475,-2.5642 -4.6447,-4.5833 -1.2207,-1.8425 -2.1881,-4.069 -2.7024,-6.5871 -0.5221,-2.5105 -0.5912,-5.305 -0.077,-8.1379 0.5067,-2.7255 1.5124,-5.4509 2.9864,-8.0458 1.4741,-2.5949 3.4241,-5.044 5.7196,-7.1783 2.8483,-2.4567 6.1572,-4.4835 9.7502,-6.065 3.5929,-1.5816 7.4546,-2.7101 11.3547,-3.4241 -0.4069,2.5412 -0.8138,5.0747 -1.213,7.5928 0,0 0,0 0,0 -1.7351,0.5451 -3.4164,0.929 -4.9749,1.4817 -1.8426,0.5375 -3.593,1.2975 -5.0594,2.3877 -1.8886,1.3819 -3.3319,3.3166 -4.3069,5.3971 -1.7811,3.1631 -2.4567,6.6792 -2.7869,9.9958 2.4184,-0.6756 4.9826,-0.7907 7.1629,0.069 1.9424,0.9443 3.3627,2.6257 3.9999,4.4759 -1.8886,5.2512 -3.4087,9.3739 -4.4758,12.1071 -1.0672,2.7407 -1.6737,4.0919 -1.7889,4.0075 -0.1381,0 0.2227,-1.4357 1.0595,-4.1918 0.8292,-2.7485 2.1343,-6.8174 3.8387,-11.9075 -0.5375,-1.3128 -1.7351,-2.472 -3.2706,-2.9941 -2.0652,-0.929 -4.6294,-1.0057 -7.2627,-0.714 -0.054,-3.6928 0.238,-7.7617 1.6967,-11.6848 1.0595,-2.3569 2.6794,-4.5833 4.8828,-6.2416 1.712,-1.2745 3.6774,-2.1727 5.7119,-2.7639 1.4586,-0.3378 2.902,-0.4683 4.2455,-0.714 0,0 0,0 0,0 0.5604,-1.8195 1.1362,-3.6467 1.712,-5.4739 -3.5315,0.9136 -7.0093,2.2111 -10.2184,3.9078 -3.2091,1.6967 -6.1419,3.8002 -8.637,6.2877 -2.165,1.9884 -4.0152,4.2532 -5.4278,6.6408 -1.4126,2.38 -2.3953,4.8905 -2.8944,7.3932 -0.5297,2.5873 -0.5297,5.1592 -0.1228,7.4854 0.4069,2.3262 1.2207,4.4068 2.2878,6.1341 1.1747,2.0038 2.641,3.5162 4.0767,4.6678 1.4356,1.1593 2.8406,1.9577 4.0459,2.5335 1.1977,0.5758 2.2034,0.9367 2.9327,1.1747 0.7294,0.2456 1.19,0.3685 1.3512,0.4376 -0.01,0.031 -0.01,0.023 -0.01,0.023 l 0.01,0 z"
           inkscape:connector-curvature="0"
           style="fill:#b2997c" />
        <path
           d="m -5535.645,-6839.9272 c 0,0 0,0 0,-0.023 0.1766,-0.031 0.6526,-0.054 1.4126,-0.1305 0.7678,-0.069 1.8196,-0.1996 3.1247,-0.499 1.2975,-0.2994 2.8406,-0.7677 4.4989,-1.5815 1.6506,-0.8061 3.4164,-1.9577 5.0056,-3.6544 1.4203,-1.451 2.6717,-3.2936 3.5853,-5.4739 0.9059,-2.1803 1.474,-4.6908 1.5277,-7.3318 0.061,-2.5489 -0.3378,-5.2129 -1.1899,-7.8539 -0.8599,-2.6409 -2.165,-5.2589 -3.8387,-7.6772 -1.8809,-2.9712 -4.2762,-5.6659 -7.0324,-8.0305 -2.7561,-2.3569 -5.8654,-4.3914 -9.1052,-6.065 0.1535,1.9116 0.3147,3.8233 0.4606,5.7195 0,0 0,0 0,0 1.2591,0.5374 2.641,0.9827 3.9845,1.6276 1.8502,1.0288 3.57,2.3339 4.9595,3.9538 1.7812,2.1113 2.879,4.6371 3.3857,7.1706 0.5605,4.1457 -0.054,8.1763 -0.9213,11.7693 -1.2513,-0.4299 -2.5027,-0.7754 -3.7234,-0.952 -1.2207,-0.1689 -2.403,-0.1766 -3.5162,0.054 -1.6123,0.1689 -3.0402,1.0288 -3.8463,2.1957 0.5374,5.3434 0.9135,9.589 1.1208,12.4603 0.2073,2.8713 0.238,4.353 0.1075,4.3223 -0.1305,0.061 -0.4222,-1.3973 -0.8598,-4.2993 -0.4376,-2.902 -1.0211,-7.2627 -1.6967,-12.798 1.0287,-1.666 2.7868,-2.9942 4.8904,-3.4855 1.1593,-0.1766 2.3493,-0.1075 3.5316,0.1689 1.1899,0.2687 2.3569,0.7447 3.4624,1.3435 0.4146,-3.3089 0.5297,-6.8865 -0.5144,-10.3643 -0.4913,-2.2495 -1.4663,-4.4528 -3.0095,-6.2186 -1.1899,-1.3819 -2.7254,-2.5105 -4.4144,-3.4471 -1.3896,-0.8752 -2.9481,-1.6276 -4.5142,-2.5335 0,0 0,0 0,0 0.1535,-2.5412 0.3224,-5.1054 0.4836,-7.6773 3.6467,1.5585 7.1629,3.5085 10.3183,5.8424 3.1554,2.3339 5.9422,5.044 8.1763,8.0612 1.7735,2.5949 3.1323,5.4124 3.9999,8.2684 0.8675,2.8483 1.2437,5.7349 1.1362,8.5064 -0.1152,2.8713 -0.8061,5.5891 -1.8656,7.923 -1.0594,2.3339 -2.4874,4.2992 -4.092,5.827 -1.8041,1.6583 -3.7465,2.7255 -5.543,3.4471 -1.7888,0.7217 -3.4317,1.0902 -4.7983,1.2975 -1.3742,0.1996 -2.4644,0.2457 -3.2475,0.2457 -0.7907,0 -1.2667,-0.046 -1.4433,-0.077 0,-0.031 0,-0.031 0,-0.031 l 0,0 z"
           id="imagebot_50"
           inkscape:connector-curvature="0"
           style="fill:#b2997c" />
        <path
           d="m -5560.6803,-6891.9337 c -12.2069,27.0614 -16.321,54.6858 -11.1849,82.9537 6.3081,3.2854 11.2463,2.3744 16.2349,1.6179 -1.5639,-6.5939 -2.3336,-12.1941 -1.3496,-15.6003 4.3688,0.8592 8.6124,0.2702 12.8234,-0.6939 0.1974,4.3669 -0.092,10.8146 -1.8299,16.4044 5.0114,0.734 9.9973,0.9974 14.7743,-2.6006 1.0584,-31.7517 0.3567,-58.3526 -8.9304,-80.9489 l -20.5378,-1.1323"
           id="imagebot_49"
           inkscape:connector-curvature="0"
           style="fill:#ffffff" />
        <path
           d="m -5539.6258,-6851.0713 c -12.0822,-1.2416 -27.1121,-0.5301 -33.1018,-0.1682 -1.9629,13.9309 -1.7275,28.0217 0.8613,42.2692 6.308,3.2854 11.2463,2.3745 16.2349,1.6179 -1.564,-6.594 -2.3337,-12.1941 -1.3497,-15.6003 4.3687,0.8592 8.6123,0.2703 12.8234,-0.6938 0.1974,4.3668 -0.092,10.8145 -1.83,16.4043 5.0114,0.734 9.9973,0.9974 14.7744,-2.6006 0.4775,-14.3265 0.5893,-27.6003 -0.2767,-39.9348 -2.3963,-0.5744 -5.1694,-0.9889 -8.1359,-1.2937 z"
           id="imagebot_47"
           stroke-miterlimit="4"
           inkscape:connector-curvature="0"
           style="fill:url(#imagebot_48);stroke:#000000;stroke-width:0.25107017;stroke-linecap:round;stroke-miterlimit:4;stroke-dashoffset:0" />
        <path
           d="m -5578.5577,-6922.0986 c 18.7597,-6.669 38.0491,-5.9208 57.708,0 -7.4158,27.733 -49.1725,28.7008 -57.708,0"
           id="imagebot_46"
           inkscape:connector-curvature="0"
           style="fill:#ffffff;fill-rule:evenodd" />
        <path
           d="m -5531.0332,-6815.7855 c -4.2463,0.2743 -8.7995,0.3312 -13.3531,0.2485 -0.2735,2.7492 -0.7687,5.6163 -1.6013,8.2947 5.0114,0.7341 9.9974,0.9974 14.7743,-2.6006 0.067,-2.0051 0.1293,-3.9783 0.1801,-5.9426 z m -26.2026,-0.3399 c -6.2654,-0.4084 -11.8791,-0.926 -15.9012,-1.3634 0.3305,2.8326 0.7537,5.6733 1.2707,8.5184 6.308,3.2854 11.2463,2.3745 16.2349,1.618 -0.7611,-3.2091 -1.3301,-6.1731 -1.6044,-8.773 z"
           id="imagebot_45"
           inkscape:connector-curvature="0"
           style="fill:#2d2d2d" />
        <path
           id="imagebot_41"
           d="m -5559.6591,-6944.4819 c -0.01,0.091 -0.7238,-0.2766 -2.1952,-0.9385 -0.7356,-0.331 -1.6621,-0.7311 -2.7905,-1.1114 -1.1284,-0.3803 -2.459,-0.7438 -4,-0.9052 -0.9597,-0.102 -2.0025,-0.1094 -3.0894,0.033 -1.0869,0.1425 -2.2184,0.4349 -3.323,0.9418 -1.6622,0.7323 -3.2464,1.8756 -4.7741,3.358 -1.5278,1.4825 -2.9981,3.3064 -4.5186,5.2255 -2.1459,-0.9441 -4.1614,-2.4565 -5.6725,-4.4591 -1.2464,-1.8968 -1.9517,-4.3479 -1.4418,-6.8268 0.3476,-1.4789 1.076,-2.8106 2.0491,-3.9669 0.9732,-1.1563 2.1909,-2.1369 3.483,-2.9142 2.1232,-1.312 4.4598,-2.2883 6.9155,-3.0233 2.4556,-0.7348 5.0299,-1.2287 7.6029,-1.6159 3.6272,-3.7631 8.335,-6.4671 13.5279,-7.9487 5.1929,-1.4817 10.8596,-1.7404 16.2542,-0.7537 7.5121,1.4944 14.3864,5.0047 20.3271,9.5492 5.9406,4.5446 10.9443,10.0963 14.9332,15.6723 -6.39,1.1538 -12.4414,2.3576 -18.0245,3.2815 -5.583,0.924 -10.6967,1.569 -15.2105,1.8789 -2.5317,0.1363 -4.9004,0.1816 -7.0412,0.068 -2.1408,-0.1144 -4.0544,-0.385 -5.7137,-0.7694 -1.8682,-0.4313 -3.4074,-1.0617 -4.5383,-1.7604 -1.1988,-0.7401 -1.9191,-1.5513 -2.316,-2.1171 -0.3969,-0.5659 -0.5008,-0.8896 -0.4416,-0.8951 0.032,-0.05 0.2279,0.2172 0.6875,0.6929 0.4594,0.4759 1.2129,1.1593 2.3831,1.7706 1.1119,0.5806 2.5943,1.0795 4.4113,1.413 1.6202,0.2962 3.4801,0.4797 5.568,0.513 2.0878,0.033 4.4044,-0.087 6.9099,-0.2853 4.3972,-0.2819 9.3625,-0.8261 14.7927,-1.5813 5.4303,-0.7552 11.3255,-1.7226 17.5901,-2.5917 -4.049,-5.205 -9.0514,-10.3289 -14.9014,-14.4343 -5.8499,-4.1054 -12.5434,-7.1663 -19.792,-8.2476 -5.1776,-0.8582 -10.6211,-0.5757 -15.5964,0.8311 -4.9754,1.4067 -9.4718,3.9375 -12.9054,7.4574 -2.6342,0.4325 -5.2252,0.9363 -7.6614,1.6513 -2.4363,0.715 -4.7173,1.6417 -6.7587,2.8812 -1.1475,0.7174 -2.2295,1.5548 -3.0763,2.499 -0.8468,0.9443 -1.4582,1.9953 -1.6979,3.1402 -0.4617,1.8623 0.1141,3.894 1.1116,5.5226 0.9291,1.8311 2.3677,3.2672 3.9683,4.1996 1.3329,-1.8665 2.7189,-3.6729 4.2239,-5.1531 1.5051,-1.4804 3.128,-2.6368 4.8548,-3.381 1.2501,-0.5188 2.5031,-0.7952 3.6909,-0.9052 1.1878,-0.1101 2.311,-0.054 3.3339,0.1044 1.6249,0.2541 2.9908,0.7064 4.1293,1.1713 1.1386,0.4649 2.0502,0.9458 2.7606,1.3541 0.7103,0.4083 1.2197,0.7467 1.5446,0.982 0.3249,0.2352 0.4652,0.3687 0.427,0.3938 z"
           inkscape:connector-curvature="0"
           style="fill:#13380d" />
        <path
           id="imagebot_40"
           d="m -5560.6806,-6891.9331 c -0.061,-0.1075 1.6813,-0.1152 5.1898,0 3.5086,0.1151 8.7829,0.3531 15.6387,0.7216 1.9346,4.5527 3.8233,10.0112 5.3817,16.2989 1.5585,6.2877 2.7792,13.3969 3.5777,21.0665 0.6065,6.7176 0.9059,13.8728 0.9596,21.3275 0.054,7.4546 -0.1382,15.2087 -0.4222,23.1086 -2.3263,1.8348 -5.1131,3.0709 -8.0305,3.5546 -2.7715,0.077 -5.5353,-0.4146 -8.1993,-1.0211 1.666,-5.1592 2.165,-10.7175 2.0038,-16.2221 0,0 0,0 0,0 -3.8464,1.0364 -7.9614,1.6352 -11.9843,0.8215 -1.3665,4.7675 0.3225,10.1186 1.5355,15.3161 0,0 0,0 0,0 -2.6947,0.6065 -5.4509,1.2284 -8.2608,1.3512 -3.2935,-0.2456 -6.4796,-1.2667 -9.3125,-2.8252 -2.2571,-12.4526 -2.4567,-24.3907 -1.5355,-34.924 0.9136,-10.5332 2.9174,-19.6615 5.021,-26.9626 2.1035,-7.3011 4.2916,-12.7903 5.8577,-16.391 0.7831,-1.8041 1.4203,-3.1323 1.8579,-3.9998 0.4376,-0.8753 0.6833,-1.2745 0.7217,-1.2207 0.061,-0.01 -0.084,0.4376 -0.4222,1.3512 -0.3455,0.9059 -0.8829,2.2724 -1.5662,4.0996 -1.3819,3.6467 -3.3857,9.136 -5.3434,16.3757 -1.95,7.232 -3.8386,16.2221 -4.6831,26.5327 -0.8445,10.3182 -0.6373,21.9493 1.5661,34.0487 2.426,1.1746 5.1438,1.8656 7.9076,1.8195 2.2571,0.2918 4.591,0.1075 6.994,-0.061 0,0 0,0 0,0 -1.19,-4.9211 -2.7561,-10.4411 -1.1669,-15.8766 4.4067,0.8368 9.0822,0.3224 13.6655,-0.5681 0,0 0,0 0,0 0.3302,5.5507 -0.054,11.2318 -1.6583,16.5829 2.3032,0.1152 4.5757,0.1382 6.7484,-0.3685 2.3876,-0.1535 4.6908,-0.9673 6.5717,-2.3032 0.238,-7.7233 0.3916,-15.2931 0.3225,-22.5712 -0.077,-7.2704 -0.3762,-14.249 -0.9597,-20.8054 -0.5604,-7.5007 -1.5431,-14.4564 -2.8866,-20.6289 -1.3436,-6.1725 -3.0479,-11.562 -4.8367,-16.0916 -6.6025,-0.3685 -11.7309,-0.7063 -15.1627,-0.975 -3.4317,-0.261 -5.1591,-0.4606 -5.09,-0.5604 l 0,0 z"
           inkscape:connector-curvature="0"
           style="fill:#bbbbbb" />
        <path
           id="imagebot_39"
           d="m -5540.5508,-6851.5583 c 0,0 0,0 0,-0.023 0.2457,-0.023 1.0672,-0.01 2.4798,0.077 1.4126,0.084 3.4087,0.2304 5.9576,0.668 0.522,4.0689 1.0978,9.6426 1.5354,16.5061 0.43,6.8558 0.714,14.9861 0.8676,23.9838 -2.1727,1.8656 -4.8674,3.2245 -7.7848,3.831 -2.7024,0.215 -5.4662,-0.1305 -8.184,-0.6142 1.405,-5.0977 1.7197,-10.6714 1.3205,-16.2758 -3.7695,1.1746 -7.8539,1.9731 -11.9458,1.3205 -1.1593,4.7753 0.7216,10.0495 2.1649,15.2471 -2.6563,0.7216 -5.3894,1.4586 -8.2146,1.712 -3.3013,-0.1152 -6.5411,-1.0057 -9.4508,-2.4644 -1.6813,-7.8923 -2.6026,-15.6847 -2.9173,-23.0011 -0.3071,-7.3165 -0.015,-14.1493 0.6372,-20.2374 0,0 0,0 0,0 5.4662,-0.6449 10.3873,-1.0517 14.6482,-1.2897 6.1418,-0.2227 10.9478,-0.1536 14.1493,0.023 3.1937,0.1842 4.7983,0.4299 4.7292,0.5374 0.054,0.1152 -1.5585,0.1 -4.7446,0.1382 -1.5969,0.015 -3.5853,0.054 -5.9345,0.1459 -2.357,0.084 -5.0747,0.2303 -8.1303,0.4376 -4.0689,0.1919 -8.7214,0.476 -13.8191,0.8982 0,0 0,0 0,0 -0.5451,5.8962 -0.7293,12.4449 -0.3148,19.4005 0.4146,6.9556 1.4357,14.3181 3.1861,21.7574 2.4644,1.0748 5.2052,1.643 7.946,1.4894 2.2648,0.215 4.5833,-0.069 6.971,-0.3224 -1.3973,-4.9135 -3.1554,-10.3797 -1.8042,-15.8152 4.4989,0.6756 9.1513,-0.046 13.6272,-1.1056 0.5681,5.6659 0.3531,11.3701 -1.0134,16.6521 2.3492,0.046 4.6371,-0.015 6.7867,-0.5758 2.4414,-0.2534 4.7369,-1.1977 6.5641,-2.6026 0.023,-8.5986 -0.069,-16.4064 -0.3301,-23.0626 -0.2611,-6.6485 -0.6833,-12.1455 -1.0672,-16.2298 -2.3032,-0.522 -4.1841,-0.7447 -5.5276,-0.8982 -1.3436,-0.1536 -2.1573,-0.238 -2.3953,-0.2841 0,-0.023 0,-0.023 0,-0.023 l 0.01,0 z"
           inkscape:connector-curvature="0"
           style="fill:#164f0f" />
        <path
           d="m -5547.7207,-6891.2507 -6.3877,-0.3023 -2.3417,5.1947 4.9073,4.9167 5.7567,-5.079 -1.9346,-4.7301 z m -3.9971,10.0793 -8.2852,31.4238 6.228,7.792 6.5386,-5.8127 -4.4814,-33.4031 z"
           id="imagebot_38"
           inkscape:connector-curvature="0"
           style="fill:#757575;fill-rule:evenodd" />
        <path
           id="imagebot_37"
           d="m -5545.6638,-6890.413 c 0,0 0,0 0.054,-0.023 0,0 0,0 0,0 0.1152,0.1689 0.3455,0.691 0.6833,1.5585 0.3301,0.8676 0.7831,2.0882 1.3205,3.5776 -1.8349,1.3896 -4.307,3.1554 -6.9787,5.021 -1.6967,-1.9884 -3.4931,-4.115 -5.1361,-6.1035 1.2361,-2.0882 2.4184,-4.0382 3.4164,-5.6504 2.142,0.3071 3.8617,0.6295 4.9979,0.9136 1.1363,0.284 1.6814,0.5374 1.643,0.7063 -0.015,0.1689 -0.6065,0.2456 -1.6583,0.1996 -1.0518,-0.046 -2.5642,-0.2227 -4.353,-0.5067 -0.6987,1.3205 -1.4818,2.7408 -2.3032,4.1995 1.2053,1.5354 2.4183,3.1246 3.6083,4.6908 1.9654,-1.4434 3.8693,-2.7946 5.52,-3.9001 -0.5375,-2.5181 -0.8906,-4.2686 -0.8676,-4.6678 0,0 0,0 0,0 0.054,-0.023 0.054,-0.023 0.054,-0.023 l 0,0.01 z m -5.0133,9.6119 c 0,0 0,0 0.031,0 0,0 0,0 0,0 0.069,0.2764 0.1612,1.3128 0.2764,3.0556 0.1152,1.7504 0.261,4.2148 0.4222,7.2704 0.1613,3.0479 0.3455,6.6946 0.5375,10.7251 0.1919,4.0383 0.3915,8.4681 0.5911,13.0514 -2.6487,1.7888 -5.3664,3.616 -8.0919,5.4279 0,0 0,0 0,0 -2.0959,-3.0326 -4.1841,-6.0805 -6.1955,-9.0285 1.6429,-4.3838 3.2475,-8.5756 4.7062,-12.3528 1.4586,-3.7695 2.7868,-7.1245 3.9077,-9.8576 1.1132,-2.7408 2.0268,-4.8674 2.6717,-6.2723 0.6449,-1.405 1.0364,-2.0883 1.1439,-2.0192 0.1228,0.023 -0.038,0.7831 -0.476,2.2495 -0.4376,1.4663 -1.1439,3.6236 -2.0959,6.3491 -0.9443,2.7254 -2.1266,6.0267 -3.4778,9.7117 -1.3589,3.6775 -2.879,7.7541 -4.4912,11.992 1.5201,2.5411 3.0555,5.1437 4.591,7.754 0,0 0,0 0,0 2.0422,-1.6122 4.092,-3.2168 6.1111,-4.7906 -0.077,-4.4452 -0.1305,-8.7444 -0.1766,-12.6598 -0.046,-3.9155 -0.084,-7.4547 -0.1,-10.4335 -0.023,-2.9864 -0.023,-5.4048 -0.015,-7.1322 0.015,-1.7274 0.038,-2.7638 0.092,-3.0402 0,0 0,0 0,0 0.038,0 0.038,0 0.038,0 z"
           inkscape:connector-curvature="0"
           style="fill:#5d5d5d;fill-rule:evenodd" />
        <path
           id="imagebot_36"
           d="m -5529.5876,-6815.6209 c 0.1382,-0.015 0.261,0.5067 0.3378,1.5661 0.084,1.0595 0.1152,2.6564 0.084,4.6908 -0.9059,0.7601 -2.0191,1.5201 -3.3319,2.165 -1.3128,0.6449 -2.8252,1.167 -4.4528,1.4587 0,0 0,0 0,0 -2.641,0.1229 -5.4816,-0.3378 -8.1994,-0.9596 0.8753,-3.0786 1.3896,-6.3031 1.7121,-9.2358 4.115,-0.015 7.6926,-0.061 10.134,-0.038 2.4337,0.023 3.7235,0.1305 3.7158,0.3532 0.031,0.2072 -1.2207,0.5143 -3.5085,0.7139 -2.2802,0.192 -5.5891,0.2457 -9.351,0.084 -0.2072,2.3876 -0.6448,4.9135 -1.497,7.3625 2.3492,0.1152 4.6524,0.1228 6.756,-0.3148 0,0 0,0 0,0 1.3512,-0.061 2.6333,-0.3301 3.7849,-0.7293 1.1439,-0.3992 2.165,-0.9213 3.0248,-1.4894 0.1,-1.7658 0.2227,-3.1937 0.3609,-4.1611 0.1382,-0.975 0.2917,-1.4894 0.4299,-1.4663 l 0,0 z m -26.2026,-0.3455 c 0.1536,-0.031 0.3762,0.7447 0.7063,2.2955 0.3225,1.5585 0.7754,3.8847 1.3666,6.7944 -1.1439,0.2687 -2.403,0.5681 -3.7619,0.8291 -1.3589,0.2687 -2.8252,0.499 -4.3683,0.5912 0,0 0,0 0,0 -3.1247,-0.1766 -6.4259,-1.1516 -9.3663,-2.7715 -0.4223,-3.2552 -0.7294,-6.5334 -0.929,-9.5506 2.4184,0.192 4.6985,0.3609 6.733,0.5221 2.0268,0.1612 3.8002,0.3148 5.2513,0.4683 1.4433,0.1459 2.5565,0.2994 3.2858,0.4376 0.7371,0.1459 1.0979,0.2764 1.0825,0.3839 0.01,0.2226 -1.5277,0.3455 -4.2762,0.2226 -2.7562,-0.1228 -6.7023,-0.499 -11.1781,-1.1362 0.4299,2.426 0.9827,4.9595 1.6122,7.4853 2.4798,1.2054 5.2282,1.8656 7.8538,1.881 0,0 0,0 0,0 1.2438,0.1842 2.4721,0.2149 3.6698,0.1919 1.1976,-0.031 2.3492,-0.1075 3.4471,-0.1843 -0.6986,-2.5411 -1.0979,-4.6908 -1.2437,-6.1725 -0.1382,-1.4817 -0.046,-2.2878 0.1151,-2.2878 z"
           inkscape:connector-curvature="0"
           style="fill:#000000" />
        <path
           d="m -5574.6474,-6913.7784 c 5.2562,-2.4306 10.3842,-2.2011 15.2412,-1.1612 -4.7788,0.3207 -9.6656,-0.114 -14.08,2.7579 l -1.1612,-1.5967"
           id="imagebot_35"
           inkscape:connector-curvature="0"
           style="fill:#cccccc;fill-rule:evenodd" />
        <path
           id="imagebot_34"
           d="m -5524.7144,-6913.9238 c -9.5113,-2.4306 -18.7904,-2.2011 -27.5792,-1.1613 8.6474,0.3207 17.49,-0.1139 25.4779,2.758 l 2.1013,-1.5967"
           inkscape:connector-curvature="0"
           style="fill:#cccccc;fill-rule:evenodd" />
        <path
           d="m -5537.488,-6907.8273 c 0.52,-0.3598 3.7035,-7.9872 1.4516,-13.2091 l -1.4516,13.2091"
           id="imagebot_33"
           inkscape:connector-curvature="0"
           style="fill:#cccccc;fill-rule:evenodd" />
        <path
           id="imagebot_32"
           d="m -5565.7219,-6910.1496 c -0.3185,-0.261 -2.2689,-5.793 -0.8892,-9.5803 l 0.8892,9.5803"
           inkscape:connector-curvature="0"
           style="fill:#cccccc;fill-rule:evenodd" />
        <path
           d="m -5530.3752,-6910.0042 c 0.3185,-0.261 2.2688,-5.793 0.8892,-9.5803 l -0.8892,9.5803"
           id="imagebot_31"
           inkscape:connector-curvature="0"
           style="fill:#cccccc;fill-rule:evenodd" />
        <path
           id="imagebot_30"
           d="m -5578.9052,-6920.7933 c 0.026,-0.034 0.1907,0.3593 0.541,1.1508 0.3502,0.7915 0.8892,1.9829 1.7462,3.468 0.857,1.4852 2.0369,3.2675 3.6911,5.1223 1.6542,1.8549 3.7875,3.7841 6.4988,5.4029 2.3022,1.3774 4.994,2.5334 7.9889,3.2891 2.9948,0.7558 6.2924,1.1097 9.6919,0.9131 0,0 0,0 0,0 2.8899,-0.1686 5.8649,-0.7346 8.7499,-1.7465 2.8851,-1.0118 5.6786,-2.4698 8.1792,-4.3871 2.5491,-1.8722 4.7564,-4.2308 6.4977,-6.8928 1.7413,-2.6619 3.0153,-5.6247 3.7347,-8.6795 -3.8799,-0.9652 -7.7766,-1.7149 -11.59,-2.2421 -3.8134,-0.5272 -7.5429,-0.832 -11.0991,-0.9389 -7.1126,-0.2138 -13.5083,0.3824 -18.7135,1.2863 -5.2053,0.9039 -9.2283,2.0854 -11.9069,2.9482 -1.3393,0.4314 -2.3464,0.7848 -3.0159,1.0129 -0.6694,0.2282 -1.0015,0.3306 -0.9933,0.292 -0.033,-0.022 0.2746,-0.185 0.9237,-0.4716 0.6491,-0.2865 1.6402,-0.6961 2.9716,-1.1792 2.6626,-0.9662 6.7035,-2.2329 11.9702,-3.1867 5.2666,-0.9538 11.7671,-1.5639 19.0084,-1.3203 3.6205,0.1217 7.4199,0.4522 11.3045,1.0148 3.8846,0.5627 7.8538,1.3576 11.803,2.3756 -0.6768,3.282 -1.9292,6.4706 -3.6716,9.3469 -1.7424,2.8763 -3.9735,5.4379 -6.5668,7.4939 -2.6056,1.9833 -5.5047,3.4839 -8.4917,4.5162 -2.9869,1.0325 -6.06,1.5969 -9.0406,1.7466 0,0 0,0 0,0 -3.5062,0.1778 -6.8978,-0.2195 -9.9702,-1.0326 -3.0724,-0.8131 -5.8251,-2.0404 -8.1698,-3.4919 -2.7638,-1.7142 -4.9112,-3.7338 -6.5552,-5.667 -1.6438,-1.9333 -2.7893,-3.782 -3.5995,-5.3203 -0.8101,-1.5384 -1.2898,-2.7699 -1.5763,-3.5932 -0.2865,-0.8234 -0.3824,-1.2411 -0.3404,-1.2299 z"
           inkscape:connector-curvature="0"
           style="fill:#a8a8a8;fill-rule:evenodd" />
        <path
           d="m -5549.385,-6925.9528 c -2.3957,0 -4.3378,-1.9422 -4.3378,-4.3379 0,-2.3958 1.9421,-4.3378 4.3378,-4.3378 2.3957,0 4.3379,1.942 4.3379,4.3378 0,2.3957 -1.9422,4.3379 -4.3379,4.3379 z"
           id="imagebot_28"
           inkscape:connector-curvature="0"
           style="fill:url(#imagebot_29);fill-rule:evenodd" />
        <g
           id="imagebot_24"
           transform="matrix(0.76772823,0,0,0.76772823,-1302.6218,-1606.6617)">
          <path
             transform="matrix(1.1730769,0,0,1.1730769,956.96926,1201.7605)"
             d="m -5547.6943,-6940.0293 c 0,1.9197 -1.5563,3.476 -3.476,3.476 -1.9198,0 -3.476,-1.5563 -3.476,-3.476 0,-1.9197 1.5562,-3.476 3.476,-3.476 1.9197,0 3.476,1.5563 3.476,3.476 z"
             id="imagebot_27"
             inkscape:connector-curvature="0"
             style="fill:#313131;fill-rule:evenodd" />
          <path
             id="imagebot_26"
             d="m -5547.6943,-6940.0293 c 0,1.9197 -1.5563,3.476 -3.476,3.476 -1.9198,0 -3.476,-1.5563 -3.476,-3.476 0,-1.9197 1.5562,-3.476 3.476,-3.476 1.9197,0 3.476,1.5563 3.476,3.476 z"
             transform="matrix(0.35576922,0,0,0.35576922,-3581.8832,-4472.0833)"
             inkscape:connector-curvature="0"
             style="fill:#ffffff;fill-rule:evenodd" />
          <path
             transform="matrix(0.15384614,0,0,0.15384614,-4703.8956,-5871.5971)"
             d="m -5547.6943,-6940.0293 c 0,1.9197 -1.5563,3.476 -3.476,3.476 -1.9198,0 -3.476,-1.5563 -3.476,-3.476 0,-1.9197 1.5562,-3.476 3.476,-3.476 1.9197,0 3.476,1.5563 3.476,3.476 z"
             id="imagebot_25"
             inkscape:connector-curvature="0"
             style="fill:#ffffff;fill-rule:evenodd" />
        </g>
        <g
           id="imagebot_20"
           transform="matrix(0.76772823,0,0,0.76772823,-1266.5954,-1606.6617)">
          <path
             id="imagebot_23"
             d="m -5547.6943,-6940.0293 c 0,1.9197 -1.5563,3.476 -3.476,3.476 -1.9198,0 -3.476,-1.5563 -3.476,-3.476 0,-1.9197 1.5562,-3.476 3.476,-3.476 1.9197,0 3.476,1.5563 3.476,3.476 z"
             transform="matrix(1.1730769,0,0,1.1730769,956.96926,1201.7605)"
             inkscape:connector-curvature="0"
             style="fill:#313131;fill-rule:evenodd" />
          <path
             transform="matrix(0.35576922,0,0,0.35576922,-3581.8832,-4472.0833)"
             d="m -5547.6943,-6940.0293 c 0,1.9197 -1.5563,3.476 -3.476,3.476 -1.9198,0 -3.476,-1.5563 -3.476,-3.476 0,-1.9197 1.5562,-3.476 3.476,-3.476 1.9197,0 3.476,1.5563 3.476,3.476 z"
             id="imagebot_22"
             inkscape:connector-curvature="0"
             style="fill:#ffffff;fill-rule:evenodd" />
          <path
             id="imagebot_21"
             d="m -5547.6943,-6940.0293 c 0,1.9197 -1.5563,3.476 -3.476,3.476 -1.9198,0 -3.476,-1.5563 -3.476,-3.476 0,-1.9197 1.5562,-3.476 3.476,-3.476 1.9197,0 3.476,1.5563 3.476,3.476 z"
             transform="matrix(0.15384614,0,0,0.15384614,-4703.8956,-5871.5971)"
             inkscape:connector-curvature="0"
             style="fill:#ffffff;fill-rule:evenodd" />
        </g>
        <g
           label="Layer 1"
           id="imagebot_2-7"
           transform="matrix(0.252899,0,0,0.252899,-5437.9406,-6970.777)">
          <g
             id="imagebot_4"
             transform="matrix(1.52814,0,0,1.52814,-164.562,-107.938)"
             label="Layer 1">
            <rect
               y="140.08615"
               x="241.90074"
               height="18.091047"
               width="7.9600596"
               id="imagebot_63-9"
               style="fill:#cccccf" />
            <rect
               id="imagebot_62-2"
               width="7.9600596"
               height="18.091047"
               x="359.85437"
               y="140.08615"
               style="fill:#cccccf" />
            <rect
               y="262.38165"
               x="170.98383"
               height="189.59419"
               width="276.43121"
               id="imagebot_61-7"
               style="fill:#cccccf" />
            <rect
               id="imagebot_59"
               width="264.85294"
               height="176.56863"
               x="176.04933"
               y="269.61807"
               style="fill:url(#imagebot_60)" />
            <rect
               y="313.76022"
               x="296.89752"
               height="68.745979"
               width="127.36098"
               id="imagebot_57"
               style="fill:url(#imagebot_58)" />
            <rect
               y="313.76019"
               x="196.31129"
               height="138.21561"
               width="77.429688"
               id="imagebot_55-1"
               style="fill:url(#imagebot_56)" />
            <rect
               style="fill:url(#imagebot_54-3)"
               id="imagebot_53-3"
               width="69.46962"
               height="130.97919"
               x="200.29134"
               y="320.6348" />
            <rect
               style="fill:url(#imagebot_52-3)"
               y="328.59485"
               x="205.71864"
               height="115.05905"
               width="58.61499"
               id="imagebot_51-1" />
            <path
               style="opacity:0.76889002;fill:url(#imagebot_50-0)"
               id="imagebot_49-8"
               d="m 209.64643,328.59507 c 13.64135,8.6514 36.46443,24.25616 54.678,42.40391 l 0,-42.40391 -54.678,0 z"
               inkscape:connector-curvature="0" />
            <rect
               style="fill:url(#imagebot_48-6)"
               id="imagebot_47-9"
               width="115.08037"
               height="55.441986"
               x="303.03784"
               y="320.41223" />
            <rect
               style="fill:url(#imagebot_46-6)"
               y="324.50577"
               x="308.66644"
               height="47.254917"
               width="103.82314"
               id="imagebot_45-6" />
            <path
               id="imagebot_43"
               d="m 330.7489,324.51296 c 15.6882,12.60842 38.88379,31.72187 57.6771,47.2358 l 24.07609,0 0,-47.2358 -81.75319,0 z"
               inkscape:connector-curvature="0"
               style="fill:url(#imagebot_44)" />
            <g
               transform="matrix(0.88862167,0,0,0.88862167,39.280996,22.746682)"
               id="imagebot_38-1">
              <rect
                 id="imagebot_41-6"
                 width="372.96863"
                 height="17.101151"
                 x="119.70828"
                 y="480.24768"
                 style="fill:url(#imagebot_42)" />
              <rect
                 style="fill:url(#imagebot_40-2)"
                 id="imagebot_39-5"
                 width="356.25766"
                 height="6.9917698"
                 x="126.15316"
                 y="485.13373" />
            </g>
            <path
               id="imagebot_37-6"
               d="m 171.27072,234.0255 0,49.0408 c 0,8.72179 7.02347,15.74527 15.74527,15.74527 l 5.97043,0 c 7.18839,0 13.23457,-4.76937 15.13433,-11.32993 1.90194,6.55711 7.89285,11.32993 15.0788,11.32993 l 5.97043,0 c 7.18595,0 13.20462,-4.77282 15.10657,-11.32993 1.89976,6.56056 7.91816,11.32993 15.10657,11.32993 l 5.97042,0 c 6.78108,0 12.52043,-4.25844 14.74557,-10.24692 2.22273,5.99319 7.9611,10.24692 14.74557,10.24692 l 5.97042,0 c 6.43147,0 11.93529,-3.82756 14.38457,-9.33053 2.44927,5.50297 7.95309,9.33053 14.38456,9.33053 l 5.97043,0 c 5.86552,0 10.95295,-3.1809 13.66255,-7.91429 2.71005,4.73171 7.79828,7.91429 13.66256,7.91429 l 5.97043,0 c 5.37892,0 10.10264,-2.68214 12.94055,-6.77574 2.83895,4.08601 7.53974,6.77574 12.91278,6.77574 l 5.97043,0 c 4.74112,0 8.9755,-2.09184 11.85755,-5.38727 2.88205,3.29543 7.11643,5.38727 11.85754,5.38727 l 5.97043,0 c 8.72179,0 15.74526,-7.02348 15.74526,-15.74527 l 0,-49.0408 -29.68551,0 -7.77544,0 -24.04833,0 -33.29554,0 -34.73955,0 -35.46156,0 -36.18356,0 -36.18357,0 -37.46096,0 z"
               inkscape:connector-curvature="0"
               style="fill:#cccccf" />
            <g
               transform="matrix(0.88862167,0,0,0.69526516,39.280996,93.343131)"
               id="imagebot_22-2">
              <path
                 d="m 446.90625,107.90625 0,151.46875 c 0,9.81496 7.90379,17.71875 17.71875,17.71875 l 7.6875,0 c 9.81496,0 17.71875,-7.90379 17.71875,-17.71875 l 0,-9.8125 -43.125,-141.65625 z"
                 id="imagebot_36-2"
                 inkscape:connector-curvature="0"
                 style="fill:#d40000" />
              <g
                 id="imagebot_23-6">
                <path
                   id="imagebot_35-5"
                   d="m 193.28125,104.9375 0,154.4375 c 0,9.81496 7.90379,17.71875 17.71875,17.71875 l 7.65625,0 c 9.81496,0 17.71875,-7.90379 17.71875,-17.71875 l 0,-154.4375 -43.09375,0 z"
                   inkscape:connector-curvature="0"
                   style="fill:#d40000" />
                <path
                   style="fill:url(#imagebot_34-8)"
                   id="imagebot_33-1"
                   d="m 150.78125,104.9375 0,154.4375 c 0,9.81496 7.90379,17.71875 17.71875,17.71875 l 7.6875,0 c 9.81496,0 17.71875,-7.90379 17.71875,-17.71875 l 0,-154.4375 -43.125,0 z"
                   inkscape:connector-curvature="0" />
                <path
                   style="fill:url(#imagebot_32-2)"
                   id="imagebot_31-9"
                   d="m 235.75,104.9375 0,154.4375 c 0,9.81496 7.90379,17.71875 17.71875,17.71875 l 7.6875,0 c 9.81496,0 17.71875,-7.90379 17.71875,-17.71875 l 0,-154.4375 -43.125,0 z"
                   inkscape:connector-curvature="0" />
                <path
                   id="imagebot_30-0"
                   d="m 277.625,104.9375 0,154.4375 c 0,9.81496 7.90379,17.71875 17.71875,17.71875 l 7.65625,0 c 9.81496,0 17.71875,-7.90379 17.71875,-17.71875 l 0,-154.4375 -43.09375,0 z"
                   inkscape:connector-curvature="0"
                   style="fill:#d40000" />
                <path
                   style="fill:url(#imagebot_29-2)"
                   id="imagebot_28-1"
                   d="m 320.71875,104.9375 0,154.4375 c 0,9.81496 7.90379,17.71875 17.71875,17.71875 l 7.6875,0 c 9.81496,0 17.71875,-7.90379 17.71875,-17.71875 l 0,-154.4375 -43.125,0 z"
                   inkscape:connector-curvature="0" />
                <path
                   id="imagebot_27-7"
                   d="m 362.3125,104.9375 0,154.4375 c 0,9.81496 7.90379,17.71875 17.71875,17.71875 l 7.6875,0 c 9.81496,0 17.71875,-7.90379 17.71875,-17.71875 l 0,-154.4375 -43.125,0 z"
                   inkscape:connector-curvature="0"
                   style="fill:#d40000" />
                <path
                   style="fill:url(#imagebot_26-6)"
                   id="imagebot_25-6"
                   d="m 405.0625,104.9375 0,154.4375 c 0,9.81496 7.90379,17.71875 17.71875,17.71875 l 7.6875,0 c 9.81496,0 17.6875,-7.90379 17.6875,-17.71875 l 0,-154.4375 -43.09375,0 z"
                   inkscape:connector-curvature="0" />
                <path
                   id="imagebot_24-0"
                   d="m 149.65625,104.9375 -41.96875,136.125 0,18.3125 c 0,9.81496 7.90379,17.71875 17.71875,17.71875 l 7.65625,0 c 9.81496,0 17.71875,-7.90379 17.71875,-17.71875 l 0,-154.4375 -1.125,0 z"
                   inkscape:connector-curvature="0"
                   style="fill:#d40000" />
              </g>
            </g>
            <rect
               style="fill:url(#imagebot_21-7)"
               id="imagebot_20-1"
               width="267.0701"
               height="17.367373"
               x="171.21599"
               y="151.46901" />
            <rect
               id="imagebot_18"
               width="253.41644"
               height="8.2701979"
               x="177.1875"
               y="155.70747"
               style="fill:url(#imagebot_19)" />
            <rect
               ry="10.302244"
               rx="15.375835"
               y="86.536644"
               x="174.15157"
               height="60.062275"
               width="262.44415"
               id="imagebot_17"
               style="fill:#d40000" />
            <rect
               id="imagebot_15"
               width="253.76044"
               height="52.825855"
               x="178.49341"
               y="90.154861"
               rx="15.6394"
               ry="10.302244"
               style="fill:url(#imagebot_16)" />
            <text
               xml:space="preserve"
               style="font-size:54.14076233px;font-style:italic;font-variant:normal;font-weight:bold;font-stretch:normal;text-align:center;line-height:100%;letter-spacing:0px;word-spacing:0px;writing-mode:lr-tb;text-anchor:middle;fill:#d40000;fill-opacity:1;stroke:none;font-family:URW Chancery L;-inkscape-font-specification:URW Chancery L Bold Italic"
               x="300.8335"
               y="128.40027"
               id="text60129"
               sodipodi:linespacing="100%"><tspan
                 sodipodi:role="line"
                 id="tspan60131"
                 x="300.8335"
                 y="128.40027">Boulangerie</tspan></text>
            <path
               style="fill:none;stroke:#000000;stroke-width:5.99671984;stroke-linecap:butt;stroke-linejoin:miter;stroke-miterlimit:4;stroke-opacity:1;stroke-dasharray:none"
               d="M 87.73389,67.06863 91.632029,509.5069"
               id="path60643"
               inkscape:connector-curvature="0" />
          </g>
          <rect
             id="imagebot_3-6"
             width="8.6837006"
             height="20.985617"
             x="225.5033"
             y="470.48941"
             label="Layer 1"
             style="fill:#666666" />
          <title
             id="title60040">Layer 1</title>
        </g>
      </g>
      <title
         id="title59507">Capa 1</title>
    </g>
  </g>
</svg>
