<svg width="588" height="650" xmlns="http://www.w3.org/2000/svg" xmlns:xlink="http://www.w3.org/1999/xlink">
 <defs>
  <linearGradient id="imagebot_65">
   <stop stop-color="#dadadb" offset="0" id="imagebot_86"/>
   <stop stop-color="#ffffff" offset="1" id="imagebot_85"/>
  </linearGradient>
  <linearGradient id="imagebot_69">
   <stop stop-color="#aaaaaa" offset="0" id="imagebot_84"/>
   <stop stop-color="#ededed" id="imagebot_83" offset="0.48044"/>
   <stop stop-color="#eeeeee" stop-opacity="0" offset="1" id="imagebot_82"/>
  </linearGradient>
  <linearGradient id="imagebot_70">
   <stop stop-color="#eeeeee" stop-opacity="0.84444" id="imagebot_81" offset="0"/>
   <stop stop-color="#eeeeee" stop-opacity="0" id="imagebot_80" offset="1"/>
  </linearGradient>
  <linearGradient id="imagebot_71">
   <stop stop-color="#ededed" id="imagebot_79" offset="0"/>
   <stop stop-color="#0169c8" id="imagebot_78" offset="1"/>
  </linearGradient>
  <linearGradient id="imagebot_68">
   <stop stop-color="#888888" offset="0" id="imagebot_77"/>
   <stop stop-color="#333333" offset="1" id="imagebot_76"/>
  </linearGradient>
  <linearGradient id="imagebot_67">
   <stop stop-color="#eeeeee" id="imagebot_75" offset="0"/>
   <stop stop-color="#eeeeee" stop-opacity="0" id="imagebot_74" offset="1"/>
  </linearGradient>
  <linearGradient id="imagebot_66">
   <stop stop-color="#e9e9ea" id="imagebot_73" offset="0"/>
   <stop stop-color="#ffffff" id="imagebot_72" offset="1"/>
  </linearGradient>
  <linearGradient y2="0.99999" x2="0.5" y1="-0.00001" x1="0.5" id="imagebot_60" xlink:href="#imagebot_66"/>
  <linearGradient y2="0.50001" x2="1.00004" y1="0.50001" x1="0.00001" id="imagebot_56" xlink:href="#imagebot_68"/>
  <linearGradient y2="0.50001" x2="1" y1="0.50001" x1="0" id="imagebot_58" xlink:href="#imagebot_68"/>
  <linearGradient y2="0.56077" x2="0" y1="0.55525" x1="0.98959" id="imagebot_54" xlink:href="#imagebot_68"/>
  <radialGradient gradientUnits="userSpaceOnUse" gradientTransform="matrix(0.08303496,4.0500566,-2.0239521,0.04149913,962.89725,-544.66676)" r="32.98085" fy="376.28073" fx="228.29497" cy="376.28073" cx="228.29497" id="imagebot_52" xlink:href="#imagebot_71"/>
  <radialGradient gradientUnits="userSpaceOnUse" gradientTransform="matrix(-0.83223845,2.515306,-0.99999966,-0.33086586,764.06981,-128.73371)" r="30.76563" fy="343.37595" fx="238.16443" cy="343.37595" cx="238.16443" id="imagebot_50" xlink:href="#imagebot_70"/>
  <linearGradient y2="0.49998" x2="-0.00001" y1="0.49367" x1="0.94948" id="imagebot_48" xlink:href="#imagebot_68"/>
  <linearGradient y2="-0.28704" x2="0.50001" y1="1.19639" x1="0.48074" id="imagebot_46" xlink:href="#imagebot_71"/>
  <linearGradient y2="0.5" x2="1" y1="0.5" x1="0" id="imagebot_44" xlink:href="#imagebot_70"/>
  <linearGradient y2="2.66691" x2="0.45633" y1="0.04769" x1="0.45633" id="imagebot_21" xlink:href="#imagebot_68"/>
  <linearGradient y2="0.50007" x2="0.91785" y1="0.50007" x1="0" id="imagebot_19" xlink:href="#imagebot_69"/>
  <linearGradient y2="2.6667" x2="0.45634" y1="0.04771" x1="0.45634" id="imagebot_42" xlink:href="#imagebot_68"/>
  <linearGradient y2="0.5001" x2="0.93833" y1="1.00007" x1="0.01762" id="imagebot_40" xlink:href="#imagebot_67"/>
  <linearGradient y2="0.13591" x2="0.49995" y1="0.92336" x1="0.44697" id="imagebot_34" xlink:href="#imagebot_66"/>
  <linearGradient y2="0.13217" x2="-1.47034" y1="0.91962" x1="-1.52332" id="imagebot_32" xlink:href="#imagebot_66"/>
  <linearGradient y2="0.13591" x2="-3.44063" y1="0.92336" x1="-3.49361" id="imagebot_29" xlink:href="#imagebot_66"/>
  <linearGradient y2="0.12843" x2="-5.40034" y1="0.91589" x1="-5.45336" id="imagebot_26" xlink:href="#imagebot_66"/>
  <linearGradient y2="1" x2="0.5" y1="-0.00003" x1="0.5" id="imagebot_16" xlink:href="#imagebot_65"/>
 </defs>
 <metadata id="imagebot_64">image/svg+xml</metadata>
 <g id="imagebot_2" label="Layer 1">
  <g label="Layer 1" transform="matrix(1.52814, 0, 0, 1.52814, -164.562, -107.938)" id="imagebot_4">
   <rect fill="#cccccf" id="imagebot_63" width="8.95776" height="20.35855" x="228.01576" y="130.89494"/>
   <rect fill="#cccccf" y="130.89494" x="360.75351" height="20.35855" width="8.95776" id="imagebot_62"/>
   <rect fill="#cccccf" id="imagebot_61" width="311.07864" height="213.3576" x="148.21025" y="268.51874"/>
   <rect fill="url(#imagebot_60)" y="276.66217" x="153.91064" height="198.69945" width="298.04916" id="imagebot_59"/>
   <rect fill="url(#imagebot_58)" id="imagebot_57" width="143.32419" height="77.36249" x="289.90576" y="326.33704"/>
   <rect fill="url(#imagebot_56)" id="imagebot_55" width="87.13459" height="155.53932" x="176.71222" y="326.33701"/>
   <rect fill="url(#imagebot_54)" y="334.07324" x="181.1911" height="147.39589" width="78.17683" id="imagebot_53"/>
   <rect fill="url(#imagebot_52)" id="imagebot_51" width="65.96169" height="129.48036" x="187.29866" y="343.03101"/>
   <path opacity="0.76889" fill="url(#imagebot_50)" d="M191.71875,343.03125C207.06989,352.767 232.75357,370.32764 253.25,390.75L253.25,343.03125L191.71875,343.03125z" id="imagebot_49"/>
   <rect fill="url(#imagebot_48)" y="333.82278" x="296.81567" height="62.39099" width="129.50435" id="imagebot_47"/>
   <rect fill="url(#imagebot_46)" id="imagebot_45" width="116.83616" height="53.17777" x="303.14978" y="338.42941"/>
   <path fill="url(#imagebot_44)" d="M328,338.4375C345.65453,352.62624 371.75742,374.13533 392.90625,391.59375L420,391.59375L420,338.4375L328,338.4375z" id="imagebot_43"/>
   <g id="imagebot_38" transform="translate(0,-1.1516535)">
    <rect fill="url(#imagebot_42)" y="480.24768" x="119.70828" height="17.10115" width="372.96863" id="imagebot_41"/>
    <rect fill="url(#imagebot_40)" y="485.13373" x="126.15316" height="6.99177" width="356.25766" id="imagebot_39"/>
   </g>
   <path fill="#cccccf" d="M148.5331,236.60849L148.5331,291.79599C148.5331,301.61095 156.43688,309.51474 166.25185,309.51474L172.9706,309.51474C181.05998,309.51474 187.86397,304.14759 190.00185,296.76474C192.14217,304.1437 198.88397,309.51474 206.9706,309.51474L213.68935,309.51474C221.77597,309.51474 228.54902,304.1437 230.68935,296.76474C232.82723,304.14759 239.59996,309.51474 247.68935,309.51474L254.4081,309.51474C262.03911,309.51474 268.49781,304.72255 271.00185,297.98349C273.50317,304.72786 279.96078,309.51474 287.5956,309.51474L294.31435,309.51474C301.55193,309.51474 307.74559,305.20744 310.50185,299.01474C313.25811,305.20744 319.45177,309.51474 326.68935,309.51474L333.4081,309.51474C340.0088,309.51474 345.73388,305.93515 348.7831,300.60849C351.83282,305.93326 357.5588,309.51474 364.1581,309.51474L370.87685,309.51474C376.92996,309.51474 382.24574,306.49643 385.43935,301.88974C388.63413,306.48788 393.92411,309.51474 399.9706,309.51474L406.68935,309.51474C412.02471,309.51474 416.78982,307.16071 420.0331,303.45224C423.27638,307.16071 428.04149,309.51474 433.37685,309.51474L440.0956,309.51474C449.91056,309.51474 457.81435,301.61095 457.81435,291.79599L457.81435,236.60849L424.4081,236.60849L415.6581,236.60849L388.5956,236.60849L351.12685,236.60849L312.0331,236.60849L272.12685,236.60849L231.4081,236.60849L190.68935,236.60849L148.5331,236.60849z" id="imagebot_37"/>
   <g id="imagebot_22" transform="matrix(1,0,0,0.78240852,0,78.293238)">
    <path fill="#d40000" id="imagebot_36" d="M446.90625,107.90625L446.90625,259.375C446.90625,269.18996 454.81004,277.09375 464.625,277.09375L472.3125,277.09375C482.12746,277.09375 490.03125,269.18996 490.03125,259.375L490.03125,249.5625L446.90625,107.90625z"/>
    <g id="imagebot_23">
     <path fill="#d40000" d="M193.28125,104.9375L193.28125,259.375C193.28125,269.18996 201.18504,277.09375 211,277.09375L218.65625,277.09375C228.47121,277.09375 236.375,269.18996 236.375,259.375L236.375,104.9375L193.28125,104.9375z" id="imagebot_35"/>
     <path fill="url(#imagebot_34)" d="M150.78125,104.9375L150.78125,259.375C150.78125,269.18996 158.68504,277.09375 168.5,277.09375L176.1875,277.09375C186.00246,277.09375 193.90625,269.18996 193.90625,259.375L193.90625,104.9375L150.78125,104.9375z" id="imagebot_33"/>
     <path fill="url(#imagebot_32)" d="M235.75,104.9375L235.75,259.375C235.75,269.18996 243.65379,277.09375 253.46875,277.09375L261.15625,277.09375C270.97121,277.09375 278.875,269.18996 278.875,259.375L278.875,104.9375L235.75,104.9375z" id="imagebot_31"/>
     <path fill="#d40000" d="M277.625,104.9375L277.625,259.375C277.625,269.18996 285.52879,277.09375 295.34375,277.09375L303,277.09375C312.81496,277.09375 320.71875,269.18996 320.71875,259.375L320.71875,104.9375L277.625,104.9375z" id="imagebot_30"/>
     <path fill="url(#imagebot_29)" d="M320.71875,104.9375L320.71875,259.375C320.71875,269.18996 328.62254,277.09375 338.4375,277.09375L346.125,277.09375C355.93996,277.09375 363.84375,269.18996 363.84375,259.375L363.84375,104.9375L320.71875,104.9375z" id="imagebot_28"/>
     <path fill="#d40000" d="M362.3125,104.9375L362.3125,259.375C362.3125,269.18996 370.21629,277.09375 380.03125,277.09375L387.71875,277.09375C397.53371,277.09375 405.4375,269.18996 405.4375,259.375L405.4375,104.9375L362.3125,104.9375z" id="imagebot_27"/>
     <path fill="url(#imagebot_26)" d="M405.0625,104.9375L405.0625,259.375C405.0625,269.18996 412.96629,277.09375 422.78125,277.09375L430.46875,277.09375C440.28371,277.09375 448.15625,269.18996 448.15625,259.375L448.15625,104.9375L405.0625,104.9375z" id="imagebot_25"/>
     <path fill="#d40000" d="M149.65625,104.9375L107.6875,241.0625L107.6875,259.375C107.6875,269.18996 115.59129,277.09375 125.40625,277.09375L133.0625,277.09375C142.87746,277.09375 150.78125,269.18996 150.78125,259.375L150.78125,104.9375L149.65625,104.9375z" id="imagebot_24"/>
    </g>
   </g>
   <rect fill="url(#imagebot_21)" y="143.70451" x="148.47151" height="19.54417" width="300.54422" id="imagebot_20"/>
   <rect fill="url(#imagebot_19)" y="148.47421" x="155.19148" height="9.30677" width="285.17923" id="imagebot_18"/>
   <rect fill="#d40000" id="imagebot_17" width="197.8851" height="67.59038" x="204.39984" y="70.63364" rx="11.59351" ry="11.59351"/>
   <rect fill="url(#imagebot_16)" ry="11.59351" rx="11.59351" y="74.70535" x="209.28589" height="59.44696" width="188.11299" id="imagebot_15"/>
   <g font-size="58.49639px" font-style="normal" font-weight="normal" fill="#aaaaaa" font-family="Casual" transform="matrix(1.1229887,0,-0.1892768,0.89048088,8.272153,110.75051)" id="imagebot_10">
    <path fill="#aaaaaa" d="M225.17387,0.2356C225.17385,3.04343 224.10141,5.28579 221.95657,6.96269C220.39665,8.17161 218.60276,8.77607 216.5749,8.77607C215.63894,8.77607 214.64451,8.63958 213.59158,8.3666C210.74475,7.66464 208.15141,6.00724 205.81156,3.39441C205.30459,2.80945 205.05111,2.08799 205.05111,1.23004C205.05111,-0.56384 205.92855,-1.57778 207.68345,-1.81177C209.12635,-2.00675 210.56926,-1.12931 212.01218,0.82056C212.94811,2.10749 214.27403,2.75095 215.98994,2.75095C217.70582,2.75095 218.68075,2.08799 218.91476,0.76207C219.10973,-0.52485 218.15429,-1.94826 216.04843,-3.50817C215.85343,-3.66415 214.25453,-4.65859 211.25173,-6.49148C207.50796,-8.75333 205.63607,-11.26867 205.63608,-14.03752C205.63607,-16.49434 206.65001,-18.50272 208.67789,-20.06265C210.54976,-21.50553 212.75313,-22.22698 215.28798,-22.22701C217.74481,-22.22698 220.14316,-21.54453 222.48303,-20.17964C223.57495,-19.55565 224.12091,-18.60021 224.12093,-17.31332C224.12091,-15.40241 223.10698,-14.44697 221.07912,-14.44699C220.76712,-14.44697 219.85068,-14.73945 218.32979,-15.32444C216.84787,-15.94838 215.56095,-16.26036 214.46903,-16.26038C212.87012,-16.26036 212.07067,-15.5194 212.07068,-14.03752C212.07067,-12.63358 213.63057,-11.28817 216.75039,-10.00127C222.36602,-7.73939 225.17385,-4.32711 225.17387,0.2356" id="imagebot_14"/>
    <path fill="#aaaaaa" d="M256.69885,-9.94277C256.97181,-4.13212 256.32835,1.11305 254.76847,5.79276C254.30047,7.27466 253.28654,8.01562 251.72666,8.01562C250.79069,8.01562 249.97175,7.70364 249.26981,7.07968C248.60683,6.45572 248.27535,5.71476 248.27537,4.85681C248.27535,4.46684 248.33387,3.97937 248.45086,3.39441C249.58177,-0.85632 250.04974,-5.38004 249.85477,-10.17676C249.77677,-13.02356 248.70432,-14.44697 246.63747,-14.44699C244.72657,-14.44697 242.05524,-11.11268 238.62347,-4.44411L238.62347,3.21892C238.62346,4.23286 238.31148,5.0518 237.68753,5.67576C237.06356,6.26073 236.24461,6.55321 235.23068,6.55321C234.25573,6.55321 233.45628,6.24123 232.83233,5.61727C232.20836,4.99331 231.89638,4.19386 231.89638,3.21892L231.89638,-30.70899C231.89638,-31.95687 232.34485,-33.0683 233.2418,-34.04328C234.17774,-35.01818 235.25017,-35.50565 236.4591,-35.50569C237.902,-35.50565 238.62346,-34.6867 238.62347,-33.04885L238.62347,-14.97346C241.62627,-18.7562 244.55109,-20.64758 247.39793,-20.64761C249.93275,-20.64758 252.13611,-19.45816 254.00802,-17.07933C255.72388,-14.89544 256.62083,-12.51659 256.69885,-9.94277" id="imagebot_13"/>
    <path fill="#aaaaaa" d="M285.64725,-8.77284C285.64722,-4.67808 284.61379,-0.91482 282.54694,2.51696C280.16807,6.49471 277.04826,8.48359 273.18752,8.48359C272.48555,8.48359 271.76409,8.40559 271.02315,8.24961C268.21532,7.66464 266.08995,6.12424 264.64705,3.62839C263.36012,1.44453 262.71666,-1.1878 262.71667,-4.26862C262.71666,-8.36335 263.7501,-12.10712 265.81697,-15.49993C268.23482,-19.47766 271.35462,-21.46653 275.1764,-21.46656C275.87834,-21.46653 276.59979,-21.38854 277.34076,-21.23257C280.14857,-20.64758 282.27394,-19.10718 283.71687,-16.61136C285.00376,-14.46647 285.64722,-11.85363 285.64725,-8.77284M278.97866,-8.48036C278.97864,-9.65027 278.74466,-10.8592 278.2767,-12.10714C277.69172,-13.62802 276.91177,-14.48597 275.93685,-14.68098C274.49392,-14.99294 273.10951,-14.17399 271.78361,-12.22413C270.73066,-10.70321 270.0287,-9.12381 269.67774,-7.48592C269.48274,-6.54997 269.38524,-5.57503 269.38525,-4.5611C269.38524,-3.39117 269.61923,-2.18224 270.08721,-0.93433C270.67216,0.58658 271.45211,1.44453 272.42707,1.63951C273.40199,1.83451 274.47442,1.40553 275.64437,0.35259C277.12626,-0.97332 278.14019,-2.94269 278.68618,-5.55554C278.88115,-6.49147 278.97864,-7.46641 278.97866,-8.48036" id="imagebot_12"/>
    <path fill="#aaaaaa" d="M314.44943,-9.70879C314.4494,-5.30204 312.77251,-1.81176 309.41874,0.76207C306.45491,3.02393 302.65264,4.34985 298.01195,4.73982L298.01195,16.32211C298.01194,17.29704 297.68046,18.09649 297.01751,18.72046C296.39354,19.34441 295.59409,19.65639 294.61916,19.6564C293.64421,19.65639 292.84476,19.34441 292.2208,18.72046C291.59684,18.09649 291.28486,17.29704 291.28486,16.32211L291.28486,-19.00971C291.28486,-19.98462 291.57734,-20.78407 292.16231,-21.40806C292.78626,-22.07099 293.58571,-22.40247 294.56066,-22.4025C296.31554,-22.44147 297.40747,-21.66152 297.83646,-20.06264C299.94231,-21.73951 302.06768,-22.57796 304.21256,-22.57799C307.25436,-22.57796 309.7697,-21.15455 311.7586,-18.30775C313.55246,-15.73389 314.4494,-12.86757 314.44943,-9.70878M307.78084,-11.0542C307.74184,-12.14611 307.39085,-13.14055 306.72791,-14.03752C306.06493,-14.93444 305.20698,-15.38291 304.15407,-15.38293C302.20417,-15.38291 300.1568,-13.80351 298.01195,-10.64473L298.01195,-2.04576C304.71952,-2.70871 307.97581,-5.71152 307.78084,-11.0542" id="imagebot_11"/>
   </g>
   <g font-size="58.49639px" font-style="normal" font-weight="normal" fill="#d40000" font-family="Casual" id="imagebot_5" transform="matrix(1.1229887,0,-0.1892768,0.89048088,9.4936658,111.15768)">
    <path id="imagebot_9" d="M225.17387,0.2356C225.17385,3.04343 224.10141,5.28579 221.95657,6.96269C220.39665,8.17161 218.60276,8.77607 216.5749,8.77607C215.63894,8.77607 214.64451,8.63958 213.59158,8.3666C210.74475,7.66464 208.15141,6.00724 205.81156,3.39441C205.30459,2.80945 205.05111,2.08799 205.05111,1.23004C205.05111,-0.56384 205.92855,-1.57778 207.68345,-1.81177C209.12635,-2.00675 210.56926,-1.12931 212.01218,0.82056C212.94811,2.10749 214.27403,2.75095 215.98994,2.75095C217.70582,2.75095 218.68075,2.08799 218.91476,0.76207C219.10973,-0.52485 218.15429,-1.94826 216.04843,-3.50817C215.85343,-3.66415 214.25453,-4.65859 211.25173,-6.49148C207.50796,-8.75333 205.63607,-11.26867 205.63608,-14.03752C205.63607,-16.49434 206.65001,-18.50272 208.67789,-20.06265C210.54976,-21.50553 212.75313,-22.22698 215.28798,-22.22701C217.74481,-22.22698 220.14316,-21.54453 222.48303,-20.17964C223.57495,-19.55565 224.12091,-18.60021 224.12093,-17.31332C224.12091,-15.40241 223.10698,-14.44697 221.07912,-14.44699C220.76712,-14.44697 219.85068,-14.73945 218.32979,-15.32444C216.84787,-15.94838 215.56095,-16.26036 214.46903,-16.26038C212.87012,-16.26036 212.07067,-15.5194 212.07068,-14.03752C212.07067,-12.63358 213.63057,-11.28817 216.75039,-10.00127C222.36602,-7.73939 225.17385,-4.32711 225.17387,0.2356"/>
    <path id="imagebot_8" d="M256.69885,-9.94277C256.97181,-4.13212 256.32835,1.11305 254.76847,5.79276C254.30047,7.27466 253.28654,8.01562 251.72666,8.01562C250.79069,8.01562 249.97175,7.70364 249.26981,7.07968C248.60683,6.45572 248.27535,5.71476 248.27537,4.85681C248.27535,4.46684 248.33387,3.97937 248.45086,3.39441C249.58177,-0.85632 250.04974,-5.38004 249.85477,-10.17676C249.77677,-13.02356 248.70432,-14.44697 246.63747,-14.44699C244.72657,-14.44697 242.05524,-11.11268 238.62347,-4.44411L238.62347,3.21892C238.62346,4.23286 238.31148,5.0518 237.68753,5.67576C237.06356,6.26073 236.24461,6.55321 235.23068,6.55321C234.25573,6.55321 233.45628,6.24123 232.83233,5.61727C232.20836,4.99331 231.89638,4.19386 231.89638,3.21892L231.89638,-30.70899C231.89638,-31.95687 232.34485,-33.0683 233.2418,-34.04328C234.17774,-35.01818 235.25017,-35.50565 236.4591,-35.50569C237.902,-35.50565 238.62346,-34.6867 238.62347,-33.04885L238.62347,-14.97346C241.62627,-18.7562 244.55109,-20.64758 247.39793,-20.64761C249.93275,-20.64758 252.13611,-19.45816 254.00802,-17.07933C255.72388,-14.89544 256.62083,-12.51659 256.69885,-9.94277"/>
    <path id="imagebot_7" d="M285.64725,-8.77284C285.64722,-4.67808 284.61379,-0.91482 282.54694,2.51696C280.16807,6.49471 277.04826,8.48359 273.18752,8.48359C272.48555,8.48359 271.76409,8.40559 271.02315,8.24961C268.21532,7.66464 266.08995,6.12424 264.64705,3.62839C263.36012,1.44453 262.71666,-1.1878 262.71667,-4.26862C262.71666,-8.36335 263.7501,-12.10712 265.81697,-15.49993C268.23482,-19.47766 271.35462,-21.46653 275.1764,-21.46656C275.87834,-21.46653 276.59979,-21.38854 277.34076,-21.23257C280.14857,-20.64758 282.27394,-19.10718 283.71687,-16.61136C285.00376,-14.46647 285.64722,-11.85363 285.64725,-8.77284M278.97866,-8.48036C278.97864,-9.65027 278.74466,-10.8592 278.2767,-12.10714C277.69172,-13.62802 276.91177,-14.48597 275.93685,-14.68098C274.49392,-14.99294 273.10951,-14.17399 271.78361,-12.22413C270.73066,-10.70321 270.0287,-9.12381 269.67774,-7.48592C269.48274,-6.54997 269.38524,-5.57503 269.38525,-4.5611C269.38524,-3.39117 269.61923,-2.18224 270.08721,-0.93433C270.67216,0.58658 271.45211,1.44453 272.42707,1.63951C273.40199,1.83451 274.47442,1.40553 275.64437,0.35259C277.12626,-0.97332 278.14019,-2.94269 278.68618,-5.55554C278.88115,-6.49147 278.97864,-7.46641 278.97866,-8.48036"/>
    <path id="imagebot_6" d="M314.44943,-9.70879C314.4494,-5.30204 312.77251,-1.81176 309.41874,0.76207C306.45491,3.02393 302.65264,4.34985 298.01195,4.73982L298.01195,16.32211C298.01194,17.29704 297.68046,18.09649 297.01751,18.72046C296.39354,19.34441 295.59409,19.65639 294.61916,19.6564C293.64421,19.65639 292.84476,19.34441 292.2208,18.72046C291.59684,18.09649 291.28486,17.29704 291.28486,16.32211L291.28486,-19.00971C291.28486,-19.98462 291.57734,-20.78407 292.16231,-21.40806C292.78626,-22.07099 293.58571,-22.40247 294.56066,-22.4025C296.31554,-22.44147 297.40747,-21.66152 297.83646,-20.06264C299.94231,-21.73951 302.06768,-22.57796 304.21256,-22.57799C307.25436,-22.57796 309.7697,-21.15455 311.7586,-18.30775C313.55246,-15.73389 314.4494,-12.86757 314.44943,-9.70878M307.78084,-11.0542C307.74184,-12.14611 307.39085,-13.14055 306.72791,-14.03752C306.06493,-14.93444 305.20698,-15.38291 304.15407,-15.38293C302.20417,-15.38291 300.1568,-13.80351 298.01195,-10.64473L298.01195,-2.04576C304.71952,-2.70871 307.97581,-5.71152 307.78084,-11.0542"/>
   </g>
  </g>
  <rect transform="matrix(1, 0, 0, 1, -218.438, -64.1189)" label="Layer 1" fill="#666666" y="566.23065" x="425.28088" height="23.61592" width="9.7721" id="imagebot_3"/>
  <title>Layer 1</title>
 </g>
</svg>