<?xml version="1.0" encoding="UTF-8" standalone="no"?>
<!-- Creator: CorelDRAW -->

<svg
   xmlns:dc="http://purl.org/dc/elements/1.1/"
   xmlns:cc="http://creativecommons.org/ns#"
   xmlns:rdf="http://www.w3.org/1999/02/22-rdf-syntax-ns#"
   xmlns:svg="http://www.w3.org/2000/svg"
   xmlns="http://www.w3.org/2000/svg"
   xmlns:xlink="http://www.w3.org/1999/xlink"
   xmlns:sodipodi="http://sodipodi.sourceforge.net/DTD/sodipodi-0.dtd"
   xmlns:inkscape="http://www.inkscape.org/namespaces/inkscape"
   xml:space="preserve"
   width="1023px"
   height="776px"
   style="shape-rendering:geometricPrecision; text-rendering:geometricPrecision; image-rendering:optimizeQuality; fill-rule:evenodd"
   viewBox="0 0 1024 776"
   id="svg7740"
   version="1.1"
   inkscape:version="0.48.3.1 r9886"
   sodipodi:docname="stomach.svg"><metadata
   id="metadata7807"><rdf:RDF><cc:Work
       rdf:about=""><dc:format>image/svg+xml</dc:format><dc:type
         rdf:resource="http://purl.org/dc/dcmitype/StillImage" /></cc:Work></rdf:RDF></metadata><sodipodi:namedview
   pagecolor="#ffffff"
   bordercolor="#666666"
   borderopacity="1"
   objecttolerance="10"
   gridtolerance="10"
   guidetolerance="10"
   inkscape:pageopacity="0"
   inkscape:pageshadow="2"
   inkscape:window-width="1280"
   inkscape:window-height="977"
   id="namedview7805"
   showgrid="false"
   inkscape:zoom="0.56"
   inkscape:cx="278.77939"
   inkscape:cy="487.58698"
   inkscape:window-x="-2"
   inkscape:window-y="-3"
   inkscape:window-maximized="1"
   inkscape:current-layer="Layer 1" />
 <defs
   id="defs7742"><linearGradient
   id="linearGradient8317"><stop
     style="stop-color:#ffcdcb;stop-opacity:1;"
     offset="0"
     id="stop8319" /><stop
     style="stop-color:#ff9b97;stop-opacity:1;"
     offset="1"
     id="stop8321" /></linearGradient>
  <style
   type="text/css"
   id="style7744">
   
    .str0 {stroke:#000000;stroke-width:3}
    .str1 {stroke:#000000;stroke-width:3;stroke-dasharray:7 10}
    .fil1 {fill:none}
    .fil2 {fill:#000000}
    .fil0 {fill:#FFF5F5}
    .fnt1 {font-weight:normal;font-size:31;font-family:Arial}
    .fnt0 {font-weight:normal;font-size:40;font-family:Arial}
    .fnt2 {font-weight:normal;font-size:41;font-family:Arial}
   
  </style>
 <linearGradient
   inkscape:collect="always"
   xlink:href="#linearGradient8317"
   id="linearGradient8323"
   x1="355.5"
   y1="344.59641"
   x2="979.99802"
   y2="344.59641"
   gradientUnits="userSpaceOnUse" /></defs>
 <g
   id="Layer 1"
   transform="translate(-151.93409,39.324117)">
  <path
   class="fil0 str0"
   d="m 357,479 c 27,10 40,11 54,-7 -3,15 2,25 17,30 6,3 11,18 25,20 -1,98 135,162 192,93 42,3 89,-8 137,-29 C 955,515 1039,229 929,97 866,17 697,27 704,147 c 0,13 -16,21 -31,6 -14,-12 -22,-23 -32,-40 -12,16 -24,31 -36,47 55,125 32,256 -51,346 -14,11 -23,8 -29,-10 -26,-63 -85,-88 -108,-61 10,-13 -11,-21 -44,-28 -5,24 -10,48 -16,72 z"
   id="path7747"
   inkscape:connector-curvature="0"
   style="fill:url(#linearGradient8323);stroke:#000000;stroke-width:3;fill-opacity:1" />
  
  
  
  
  
  
  
  
  
  <text
   x="766"
   y="128"
   class="fil2 fnt0"
   id="text7767"
   style="font-size:40px;font-weight:normal;fill:#000000;font-family:Arial" />


  <text
   x="237"
   y="183"
   class="fil2 fnt0"
   id="text7769"
   style="font-size:40px;font-weight:normal;fill:#000000;font-family:Arial" />


  <text
   x="248"
   y="338"
   class="fil2 fnt0"
   id="text7771"
   style="font-size:40px;font-weight:normal;fill:#000000;font-family:Arial" />


  <text
   x="322"
   y="759"
   class="fil2 fnt0"
   id="text7773"
   style="font-size:40px;font-weight:normal;fill:#000000;font-family:Arial" />


  <text
   x="95"
   y="604"
   class="fil2 fnt0"
   id="text7775"
   style="font-size:40px;font-weight:normal;fill:#000000;font-family:Arial" />


  <text
   x="13"
   y="651"
   class="fil2 fnt0"
   id="text7777"
   style="font-size:40px;font-weight:normal;fill:#000000;font-family:Arial" />


  <text
   x="73"
   y="512"
   class="fil2 fnt0"
   id="text7779"
   style="font-size:40px;font-weight:normal;fill:#000000;font-family:Arial" />


  <text
   x="207"
   y="556"
   class="fil2 fnt0"
   id="text7781"
   style="font-size:40px;font-weight:normal;fill:#000000;font-family:Arial" />


  <g
   transform="matrix(0.725932,-0.687766,0.687766,0.725932,289.351,574.674)"
   id="g7783">
   <text
   x="407"
   y="388"
   class="fil2 fnt1"
   id="text7785"
   style="font-size:31px;font-weight:normal;fill:#000000;font-family:Arial" />


  </g>
  <g
   transform="matrix(0.312674,-0.94986,0.94986,0.312674,462.854,712.606)"
   id="g7787">
   <text
   x="382"
   y="388"
   class="fil2 fnt1"
   id="text7789"
   style="font-size:31px;font-weight:normal;fill:#000000;font-family:Arial" />


  </g>
  <g
   transform="matrix(-0.0496921,-0.998765,0.998765,-0.0496921,253.907,757.069)"
   id="g7791">
   <text
   x="382"
   y="388"
   class="fil2 fnt1"
   id="text7793"
   style="font-size:31px;font-weight:normal;fill:#000000;font-family:Arial" />


  </g>
  <g
   transform="matrix(0.434824,-0.900516,0.900516,0.434824,44.2208,672.907)"
   id="g7795">
   <text
   x="419"
   y="388"
   class="fil2 fnt1"
   id="text7797"
   style="font-size:31px;font-weight:normal;fill:#000000;font-family:Arial" />


  </g>
  
  
  <text
   x="734"
   y="303"
   class="fil2 fnt2"
   id="text7803"
   style="font-size:41px;font-weight:normal;fill:#000000;font-family:Arial" />


 </g>
</svg>