<svg width="288" height="220" xmlns="http://www.w3.org/2000/svg">

 <metadata id="imagebot_59">image/svg+xml</metadata>
 <g id="imagebot_2" label="Capa 1">
  <g label="Capa 1" transform="matrix(0.870132, 0, 0, 0.855973, -287.098, -432.621)" id="imagebot_3">
   <path fill="none" stroke="#ca368d" stroke-width="4.7918" stroke-miterlimit="4" d="M623.82782,697.61761C616.81144,679.74071 595.83443,672.52432 577.80326,678.06066L575.82733,677.92877" id="imagebot_58"/>
   <path fill="#ffffff" fill-opacity="0" stroke="#ca368d" stroke-width="4.7918" stroke-miterlimit="4" d="M523.90845,517.60229C517.16203,527.68287 507.30517,536.53008 504.99224,548.76534C504.07632,554.01453 505.54569,559.23298 505.49708,564.4966C505.96693,572.31252 506.81335,580.1031 507.25522,587.92077" id="imagebot_57"/>
   <path fill="#ca368d" d="M594.03949,647.56799C598.6142,668.47269 614.10767,681.1599 576.50861,700.27402C558.28764,709.53697 568.05271,713.66737 496.0793,717.41768C473.11998,718.61402 467.74332,715.30855 447.97684,709.64982C417.23501,700.84907 412.81313,663.46308 412.81313,642.8801C412.81313,601.71414 450.09267,568.34251 496.07929,568.34251C542.06592,568.34251 576.66974,568.19469 594.03948,647.56799z" id="imagebot_56"/>
   <g fill="#b6327f" transform="matrix(1.0807221,0,0,1.1482718,613.09489,-63.910187)" id="imagebot_53">
    <path fill="#b6327f" id="imagebot_55" d="M-366,478.36218C-366,491.06473 -378.75988,501.36218 -394.5,501.36218C-410.24012,501.36218 -423,491.06473 -423,478.36218C-423,465.65963 -410.24012,455.36218 -394.5,455.36218C-378.75988,455.36218 -366,465.65963 -366,478.36218z" transform="matrix(0.75438596,0,0,0.89130435,166.10526,145.49589)"/>
    <path fill="#b6327f" id="imagebot_54" d="M-366,478.36218C-366,491.06473 -378.75988,501.36218 -394.5,501.36218C-410.24012,501.36218 -423,491.06473 -423,478.36218C-423,465.65963 -410.24012,455.36218 -394.5,455.36218C-378.75988,455.36218 -366,465.65963 -366,478.36218z" transform="matrix(0.75438596,0,0,0.89130435,200.60526,141.99589)"/>
   </g>
   <g id="imagebot_50" transform="matrix(0.97960195,0,0,0.93757967,600.31741,55.035952)">
    <path fill="#ffffff" id="imagebot_52" d="M-366,478.36218C-366,491.06473 -378.75988,501.36218 -394.5,501.36218C-410.24012,501.36218 -423,491.06473 -423,478.36218C-423,465.65963 -410.24012,455.36218 -394.5,455.36218C-378.75988,455.36218 -366,465.65963 -366,478.36218z" transform="matrix(0.75438596,0,0,0.89130435,166.10526,145.49589)"/>
    <path fill="#ffffff" id="imagebot_51" d="M-366,478.36218C-366,491.06473 -378.75988,501.36218 -394.5,501.36218C-410.24012,501.36218 -423,491.06473 -423,478.36218C-423,465.65963 -410.24012,455.36218 -394.5,455.36218C-378.75988,455.36218 -366,465.65963 -366,478.36218z" transform="matrix(0.75438596,0,0,0.89130435,200.60526,141.99589)"/>
   </g>
   <path fill="#000000" id="imagebot_49" d="M-248,544.36218C-248,551.54188 -253.8203,557.36218 -261,557.36218C-268.1797,557.36218 -274,551.54188 -274,544.36218C-274,537.18248 -268.1797,531.36218 -261,531.36218C-253.8203,531.36218 -248,537.18248 -248,544.36218z" transform="matrix(0.67818596,0,0,0.72121513,653.8941,201.88159)"/>
   <path fill="#000000" id="imagebot_48" d="M-248,544.36218C-248,551.54188 -253.8203,557.36218 -261,557.36218C-268.1797,557.36218 -274,551.54188 -274,544.36218C-274,537.18248 -268.1797,531.36218 -261,531.36218C-253.8203,531.36218 -248,537.18248 -248,544.36218z" transform="matrix(0.67818596,0,0,0.72121513,674.46574,199.06885)"/>
   <path fill="#79226c" d="M530.0271,610.43744C553.59603,610.17757 564.06355,642.19467 550.02682,658.10459C538.23743,670.8661 522.31067,679.28463 507.61855,688.6072C490.59266,697.06058 472.42383,687.19687 456.97026,680.39361C442.47449,676.9255 426.43035,665.03831 431.21193,649.00338C434.56206,634.30981 452.46294,630.59683 465.8671,632.92454C478.0917,635.44394 492.30448,638.41811 501.95829,628.23418C510.59262,621.79657 518.04143,610.54336 530.0271,610.43744z" id="imagebot_47"/>
   <path fill="#ca368d" id="imagebot_46" d="M-27,625.86218C-27,669.76882 -65.0558,705.36218 -112,705.36218C-158.9442,705.36218 -197,669.76882 -197,625.86218C-197,581.95555 -158.9442,546.36218 -112,546.36218C-65.0558,546.36218 -27,581.95555 -27,625.86218z" transform="matrix(0.13829674,0,0,0.14152146,413.02904,465.12619)"/>
   <path fill="#000000" d="M519.48273,558.33704C507.75093,563.99796 494.36507,571.38858 480.69603,567.35864C474.10764,563.79263 467.20617,557.27339 458.88188,560.71903C448.70326,564.44419 455.71302,573.79579 463.77186,574.76179C477.80049,580.63742 494.25073,581.77046 508.81242,576.8604C516.39834,575.67813 531.80414,569.37832 525.12736,560.87113C523.48766,559.63913 521.49204,558.89189 519.48273,558.33704z" id="imagebot_45"/>
   <path fill="none" stroke="#e192a3" stroke-width="9.48207" stroke-miterlimit="4" id="imagebot_44" d="M-418,347.86218C-418,359.7363 -431.87917,369.36218 -449,369.36218C-466.12083,369.36218 -480,359.7363 -480,347.86218C-480,335.98806 -466.12083,326.36218 -449,326.36218C-431.87917,326.36218 -418,335.98806 -418,347.86218z" transform="matrix(0.52611312,0,0,0.53272717,806.65037,478.34642)"/>
   <path fill="none" stroke="#e192a3" stroke-width="9.48207" stroke-miterlimit="4" id="imagebot_43" d="M-418,347.86218C-418,359.7363 -431.87917,369.36218 -449,369.36218C-466.12083,369.36218 -480,359.7363 -480,347.86218C-480,335.98806 -466.12083,326.36218 -449,326.36218C-431.87917,326.36218 -418,335.98806 -418,347.86218z" transform="matrix(0.38586276,0,0,0.38638776,612.93094,553.84799)"/>
   <path fill="none" stroke="#e192a3" stroke-width="9.48271" stroke-miterlimit="4" stroke-opacity="0.77947" id="imagebot_42" d="M-418,347.86218C-418,359.7363 -431.87917,369.36218 -449,369.36218C-466.12083,369.36218 -480,359.7363 -480,347.86218C-480,335.98806 -466.12083,326.36218 -449,326.36218C-431.87917,326.36218 -418,335.98806 -418,347.86218z" transform="matrix(0.52611312,0,0,0.47070585,772.86807,530.52239)"/>
   <path fill="#ca368d" id="imagebot_41" d="M-27,625.86218C-27,669.76882 -65.0558,705.36218 -112,705.36218C-158.9442,705.36218 -197,669.76882 -197,625.86218C-197,581.95555 -158.9442,546.36218 -112,546.36218C-65.0558,546.36218 -27,581.95555 -27,625.86218z" transform="matrix(0.13829674,0,0,0.14152146,368.94695,495.59753)"/>
   <path fill="#ca368d" id="imagebot_40" d="M-27,625.86218C-27,669.76882 -65.0558,705.36218 -112,705.36218C-158.9442,705.36218 -197,669.76882 -197,625.86218C-197,581.95555 -158.9442,546.36218 -112,546.36218C-65.0558,546.36218 -27,581.95555 -27,625.86218z" transform="matrix(0.13829674,0,0,0.14152146,539.39769,428.0918)"/>
   <path fill="#ca368d" id="imagebot_39" d="M-27,625.86218C-27,669.76882 -65.0558,705.36218 -112,705.36218C-158.9442,705.36218 -197,669.76882 -197,625.86218C-197,581.95555 -158.9442,546.36218 -112,546.36218C-65.0558,546.36218 -27,581.95555 -27,625.86218z" transform="matrix(0.13829674,0,0,0.14152146,615.80664,470.28288)"/>
   <path fill="#ca368d" id="imagebot_38" d="M-27,625.86218C-27,669.76882 -65.0558,705.36218 -112,705.36218C-158.9442,705.36218 -197,669.76882 -197,625.86218C-197,581.95555 -158.9442,546.36218 -112,546.36218C-65.0558,546.36218 -27,581.95555 -27,625.86218z" transform="matrix(0.13829674,0,0,0.14152146,664.78674,546.22683)"/>
   <path fill="#ca368d" id="imagebot_37" d="M-27,625.86218C-27,669.76882 -65.0558,705.36218 -112,705.36218C-158.9442,705.36218 -197,669.76882 -197,625.86218C-197,581.95555 -158.9442,546.36218 -112,546.36218C-65.0558,546.36218 -27,581.95555 -27,625.86218z" transform="matrix(0.13829674,0,0,0.14152146,641.27629,615.60773)"/>
   <path fill="#ca368d" id="imagebot_36" d="M-27,625.86218C-27,669.76882 -65.0558,705.36218 -112,705.36218C-158.9442,705.36218 -197,669.76882 -197,625.86218C-197,581.95555 -158.9442,546.36218 -112,546.36218C-65.0558,546.36218 -27,581.95555 -27,625.86218z" transform="matrix(0.13829674,0,0,0.14152146,569.76535,662.48671)"/>
   <path fill="#ca368d" id="imagebot_35" d="M-27,625.86218C-27,669.76882 -65.0558,705.36218 -112,705.36218C-158.9442,705.36218 -197,669.76882 -197,625.86218C-197,581.95555 -158.9442,546.36218 -112,546.36218C-65.0558,546.36218 -27,581.95555 -27,625.86218z" transform="matrix(0.13829674,0,0,0.14152146,406.17182,650.29818)"/>
   <path fill="#ca368d" id="imagebot_34" d="M-27,625.86218C-27,669.76882 -65.0558,705.36218 -112,705.36218C-158.9442,705.36218 -197,669.76882 -197,625.86218C-197,581.95555 -158.9442,546.36218 -112,546.36218C-65.0558,546.36218 -27,581.95555 -27,625.86218z" transform="matrix(0.13829674,0,0,0.14152146,357.19173,567.79117)"/>
   <path fill="none" stroke="#ca368d" stroke-width="5.01031" stroke-miterlimit="4" d="M393.73065,554.27716C439.0769,619.55655 444.22988,587.40401 444.22988,587.40401L444.22988,587.40401" id="imagebot_33"/>
   <path fill="none" stroke="#ca368d" stroke-width="4.7918" stroke-miterlimit="4" d="M354.43732,589.79596C363.19898,598.11015 367.45619,610.21646 377.93383,616.96077C381.71926,619.24598 386.35923,621.29393 390.88963,619.91337C398.75035,618.0688 405.40241,612.14935 413.8367,612.54109C416.00426,612.66228 418.12681,613.25868 420.07065,614.17297" id="imagebot_32"/>
   <path fill="none" stroke="#ca368d" stroke-width="4.7918" stroke-miterlimit="4" d="M348.55972,654.48895C356.58906,656.67785 362.70774,662.46479 369.62944,666.6286C374.59515,669.73441 380.77855,672.67611 386.80053,670.71195C392.44801,668.91085 395.65657,663.75022 399.95351,660.16894C406.22638,654.32734 413.99591,649.29754 423.00947,648.86351" id="imagebot_31"/>
   <path fill="none" stroke="#ca368d" stroke-width="4.7918" stroke-miterlimit="4" d="M391.6622,737.93353C394.21483,728.18706 401.21603,719.69708 410.36468,714.82412C417.74182,709.66438 426.7257,707.2636 434.38118,702.57717C434.50901,702.48647 434.63684,702.39589 434.76468,702.30524" id="imagebot_30"/>
   <path fill="none" stroke="#ca368d" stroke-width="4.7918" stroke-miterlimit="4" d="M550.35773,748.24689C546.05472,742.58012 544.09073,735.6133 539.81687,729.93825C532.35942,721.85913 521.91449,717.27861 513.22319,710.64521C512.07572,709.5411 511.04769,708.32016 510.19405,706.99338" id="imagebot_29"/>
   <path fill="none" stroke="#ca368d" stroke-width="4.7918" stroke-miterlimit="4" d="M652.23633,633.86218C629.44867,643.85229 603.60032,642.49595 580.84328,633.53445L577.78657,632.9246" id="imagebot_28"/>
   <path fill="none" stroke="#ca368d" stroke-width="5.36111" stroke-miterlimit="4" d="M595.41937,561.66858C593.76846,580.07924 576.81961,591.74097 562.41525,586.54615C555.54909,585.28736 548.31292,583.45205 541.54126,586.31421" id="imagebot_27"/>
   <path fill="#79226c" fill-opacity="0.63878" id="imagebot_26" d="M-129.30232,694.22266C-129.30232,697.94737 -131.69708,700.96684 -134.65116,700.96684C-137.60524,700.96684 -140,697.94737 -140,694.22266C-140,690.49795 -137.60524,687.47847 -134.65116,687.47847C-131.69708,687.47847 -129.30232,690.49795 -129.30232,694.22266z" transform="matrix(1.2961846,0,0,0.51728533,644.63898,349.64835)"/>
   <path fill="#79226c" fill-opacity="0.76426" id="imagebot_25" d="M-129.30232,694.22266C-129.30232,697.94737 -131.69708,700.96684 -134.65116,700.96684C-137.60524,700.96684 -140,697.94737 -140,694.22266C-140,690.49795 -137.60524,687.47847 -134.65116,687.47847C-131.69708,687.47847 -129.30232,690.49795 -129.30232,694.22266z" transform="matrix(0.55083533,0,0,0.37179882,536.54641,443.34398)"/>
   <path fill="#79226c" id="imagebot_24" d="M-129.30232,694.22266C-129.30232,697.94737 -131.69708,700.96684 -134.65116,700.96684C-137.60524,700.96684 -140,697.94737 -140,694.22266C-140,690.49795 -137.60524,687.47847 -134.65116,687.47847C-131.69708,687.47847 -129.30232,690.49795 -129.30232,694.22266z" transform="matrix(0.35917408,0,0,0.24247748,507.09397,538.89987)"/>
   <path fill="#79226c" fill-opacity="0.61597" id="imagebot_23" d="M-129.30232,694.22266C-129.30232,697.94737 -131.69708,700.96684 -134.65116,700.96684C-137.60524,700.96684 -140,697.94737 -140,694.22266C-140,690.49795 -137.60524,687.47847 -134.65116,687.47847C-131.69708,687.47847 -129.30232,690.49795 -129.30232,694.22266z" transform="matrix(0.31658269,0,0,0.25864265,497.94177,523.2078)"/>
   <path fill="#79226c" id="imagebot_22" d="M-129.30232,694.22266C-129.30232,697.94737 -131.69708,700.96684 -134.65116,700.96684C-137.60524,700.96684 -140,697.94737 -140,694.22266C-140,690.49795 -137.60524,687.47847 -134.65116,687.47847C-131.69708,687.47847 -129.30232,690.49795 -129.30232,694.22266z" transform="matrix(0.35917408,0,0,0.25864265,520.07939,522.11759)"/>
   <path fill="#79226c" id="imagebot_21" d="M-129.30232,694.22266C-129.30232,697.94737 -131.69708,700.96684 -134.65116,700.96684C-137.60524,700.96684 -140,697.94737 -140,694.22266C-140,690.49795 -137.60524,687.47847 -134.65116,687.47847C-131.69708,687.47847 -129.30232,690.49795 -129.30232,694.22266z" transform="matrix(0.40176547,0,0,0.29097298,628.78648,482.44784)"/>
   <path fill="#79226c" id="imagebot_20" d="M-129.30232,694.22266C-129.30232,697.94737 -131.69708,700.96684 -134.65116,700.96684C-137.60524,700.96684 -140,697.94737 -140,694.22266C-140,690.49795 -137.60524,687.47847 -134.65116,687.47847C-131.69708,687.47847 -129.30232,690.49795 -129.30232,694.22266z" transform="matrix(0.35917408,0,0,0.27480782,629.20249,493.99712)"/>
   <path fill="#79226c" fill-opacity="0.74144" id="imagebot_19" d="M-129.30232,694.22266C-129.30232,697.94737 -131.69708,700.96684 -134.65116,700.96684C-137.60524,700.96684 -140,697.94737 -140,694.22266C-140,690.49795 -137.60524,687.47847 -134.65116,687.47847C-131.69708,687.47847 -129.30232,690.49795 -129.30232,694.22266z" transform="matrix(0.42306116,0,0,0.35563365,634.27383,442.79194)"/>
   <path fill="#79226c" fill-opacity="0.78327" d="M481.83374,702.26331C480.05448,698.9254 472.16638,702.47537 477.41799,704.59751C481.44639,706.42726 475.66215,715.09539 482.1,713.34704C486.80288,711.27653 486.29088,704.31077 481.83374,702.26331z" id="imagebot_18"/>
   <path fill="#79226c" fill-opacity="0.61217" id="imagebot_17" d="M-129.30232,694.22266C-129.30232,697.94737 -131.69708,700.96684 -134.65116,700.96684C-137.60524,700.96684 -140,697.94737 -140,694.22266C-140,690.49795 -137.60524,687.47847 -134.65116,687.47847C-131.69708,687.47847 -129.30232,690.49795 -129.30232,694.22266z" transform="matrix(1.9563511,0,0,1.2285526,699.50741,-235.84676)"/>
   <path fill="#79226c" fill-opacity="0.61217" d="M549.34875,583.29041C539.44903,583.23011 530.60028,591.81861 529.66544,601.62523C530.61426,604.98784 534.49274,605.70847 537.49689,605.44158C540.90334,605.31152 545.00345,605.06771 547.39374,608.01715C549.78886,609.65319 552.11767,611.46027 553.56918,614.05279C556.02222,617.88141 557.5226,622.42529 560.9707,625.53436C564.03703,626.17733 566.38462,623.02348 567.69035,620.60639C569.8895,615.85145 570.51003,610.39697 569.98066,605.20848C568.93921,596.43811 563.76613,587.46462 555.22868,584.3117C553.34481,583.64065 551.34794,583.28568 549.34875,583.29041z" id="imagebot_16"/>
   <path fill="#ffffff" d="M448.122,633.37 C448.122,633.37 453.78,632.399 456.796,632.335 C459.812,632.271 465.47,632.71 465.47,632.71 L466.527,633.18 L466.301,633.144 L464.515,648.602 C464.076,649.587 463.107,650.162 461.704,650.049 L450.88,649.709 C450.284,649.463 449.914,649.036 449.885,648.428 L448.122,633.37 z" id="imagebot_15"/>
   <path fill="#ffffff" d="M495.071,633.112 L495.071,633.171 L495.316,633.112 L495.194,633.112 L495.071,633.112 z M495.071,633.171 L487.173,635.281 L477.316,634.958 L478.816,649.315 C479.261,650.043 479.913,650.322 480.622,650.399 L490.633,650.926 C492.061,650.878 492.739,650.299 493.449,649.491 L493.541,648.553 C493.431,648.572 493.32,648.583 493.204,648.583 C492.276,648.583 491.52,647.936 491.52,647.147 C491.52,646.358 492.276,645.711 493.204,645.711 C493.422,645.711 493.625,645.764 493.816,645.828 L495.071,633.171 L495.071,633.171 z" id="imagebot_14"/>
   <path fill="#2b0100" fill-opacity="0.19392" d="M395.84103,544.80548C391.52652,544.80548 388.02853,548.54084 388.02853,553.11798C388.02853,556.81111 390.32009,559.92213 393.46603,560.99298C393.04331,559.65801 392.77853,558.19528 392.77853,556.64923C392.77853,551.19492 395.70382,546.67704 399.52853,545.80548C398.42733,545.17618 397.17951,544.80548 395.84103,544.80548z" id="imagebot_13"/>
   <path fill="#2b0100" id="imagebot_12" d="M376.754,539.857 C376.754,540.87 376.724,541.691 376.686,541.691 C376.649,541.691 376.618,540.87 376.618,539.857 C376.618,538.844 376.649,538.023 376.686,538.023 C376.724,538.023 376.754,538.844 376.754,539.857 z"/>
   <path fill="#2b0100" fill-opacity="0.19392" d="M351.61453,575.3847C347.30002,575.3847 343.80203,579.12006 343.80203,583.6972C343.80203,587.39033 346.09359,590.50135 349.23953,591.5722C348.81681,590.23723 348.55203,588.7745 348.55203,587.22845C348.55203,581.77414 351.47732,577.25626 355.30203,576.3847C354.20083,575.7554 352.95301,575.3847 351.61453,575.3847z" id="imagebot_11"/>
   <path fill="#2b0100" fill-opacity="0.19392" d="M336.79327,648.97089C332.70407,650.34693 330.58009,655.00284 332.03989,659.34095C333.21775,662.84121 336.38184,665.05892 339.70502,665.0705C338.87861,663.94006 338.16115,662.63817 337.66806,661.17286C335.9285,656.00339 337.26013,650.78847 340.60713,648.7426C339.36273,648.49737 338.06185,648.544 336.79327,648.97089z" id="imagebot_10"/>
   <path fill="#2b0100" fill-opacity="0.19392" d="M382.668,733.557 C379.508,736.494 379.49,741.612 382.606,744.964 C385.121,747.669 388.917,748.387 391.951,747.029 C390.732,746.339 389.542,745.448 388.489,744.316 C384.775,740.321 383.842,735.021 386.049,731.778 C384.814,732.067 383.648,732.645 382.668,733.557 L382.668,733.557 z" id="imagebot_9"/>
   <path fill="#2b0100" fill-opacity="0.19392" d="M549.35345,759.22729C552.48624,762.19388 557.59452,761.88679 560.74168,758.56329C563.28102,755.88169 563.75619,752.04712 562.20821,749.10648C561.59724,750.36646 560.78375,751.61061 559.72071,752.73321C555.97043,756.69362 550.73994,757.96269 547.36352,755.96573C547.73041,757.17984 548.38157,758.30698 549.35345,759.22729z" id="imagebot_8"/>
   <path fill="#2b0100" fill-opacity="0.19392" d="M624.51868,712.84222C628.57634,714.30865 633.13567,711.98457 634.69136,707.67992C635.94659,704.20665 634.84884,700.50197 632.25415,698.42562C632.19795,699.82479 631.94983,701.29044 631.42435,702.74445C629.57052,707.87405 625.28383,711.12872 621.39059,710.64843C622.21234,711.61455 623.25988,712.38729 624.51868,712.84222z" id="imagebot_7"/>
   <path fill="#2b0100" fill-opacity="0.19392" d="M654.87335,642.48529C658.79439,640.68518 660.41489,635.83102 658.5052,631.6713C656.96434,628.31497 653.58377,626.44376 650.27794,626.78313C651.2191,627.81998 652.07001,629.03885 652.71506,630.4439C654.99073,635.4008 654.21718,640.72717 651.10491,643.115C652.36824,643.22747 653.65693,643.0437 654.87335,642.48529z" id="imagebot_6"/>
   <path fill="#2b0100" fill-opacity="0.19392" d="M609.05658,562.27753C611.41279,558.66321 610.19394,553.69298 606.35962,551.19334C603.26584,549.17647 599.40825,549.39717 596.79315,551.44775C598.14232,551.82268 599.51227,552.39968 600.80741,553.244C605.37655,556.22268 607.56368,561.1405 606.20507,564.82047C607.33363,564.24165 608.32562,563.39879 609.05658,562.27753z" id="imagebot_5"/>
   <path fill="#2b0100" fill-opacity="0.19392" d="M531.76422,512.84369C530.64707,508.67633 526.13337,506.26482 521.71233,507.44998C518.14515,508.40624 515.73358,511.42518 515.51382,514.7411C516.69381,513.98714 518.0381,513.35264 519.53142,512.95233C524.79972,511.54005 529.92096,513.19577 531.75313,516.66437C532.07583,515.43778 532.1108,514.13653 531.76423,512.84369z" id="imagebot_4"/>
  </g>
  <title>Capa 1</title>
 </g>
</svg>